G04 #@! TF.GenerationSoftware,KiCad,Pcbnew,(5.1.0)-1*
G04 #@! TF.CreationDate,2019-11-07T23:05:45-05:00*
G04 #@! TF.ProjectId,ocarina v1.0,6f636172-696e-4612-9076-312e302e6b69,rev?*
G04 #@! TF.SameCoordinates,Original*
G04 #@! TF.FileFunction,Copper,L2,Bot*
G04 #@! TF.FilePolarity,Positive*
%FSLAX46Y46*%
G04 Gerber Fmt 4.6, Leading zero omitted, Abs format (unit mm)*
G04 Created by KiCad (PCBNEW (5.1.0)-1) date 2019-11-07 23:05:45*
%MOMM*%
%LPD*%
G04 APERTURE LIST*
%ADD10R,1.600000X1.600000*%
%ADD11O,1.600000X1.600000*%
%ADD12O,1.200000X2.000000*%
%ADD13O,1.350000X1.350000*%
%ADD14R,1.350000X1.350000*%
%ADD15R,2.400000X2.400000*%
%ADD16C,2.400000*%
%ADD17C,2.600000*%
%ADD18C,1.500000*%
%ADD19C,0.800000*%
%ADD20C,0.250000*%
%ADD21C,0.254000*%
G04 APERTURE END LIST*
D10*
X92964000Y-65532000D03*
D11*
X100584000Y-98552000D03*
X92964000Y-68072000D03*
X100584000Y-96012000D03*
X92964000Y-70612000D03*
X100584000Y-93472000D03*
X92964000Y-73152000D03*
X100584000Y-90932000D03*
X92964000Y-75692000D03*
X100584000Y-88392000D03*
X92964000Y-78232000D03*
X100584000Y-85852000D03*
X92964000Y-80772000D03*
X100584000Y-83312000D03*
X92964000Y-83312000D03*
X100584000Y-80772000D03*
X92964000Y-85852000D03*
X100584000Y-78232000D03*
X92964000Y-88392000D03*
X100584000Y-75692000D03*
X92964000Y-90932000D03*
X100584000Y-73152000D03*
X92964000Y-93472000D03*
X100584000Y-70612000D03*
X92964000Y-96012000D03*
X100584000Y-68072000D03*
X92964000Y-98552000D03*
X100584000Y-65532000D03*
D12*
X71120000Y-101650000D03*
X71120000Y-109170000D03*
X73660000Y-101650000D03*
X73660000Y-109170000D03*
X76200000Y-101650000D03*
X76200000Y-109170000D03*
D13*
X96710000Y-109220000D03*
X94710000Y-109220000D03*
D14*
X92710000Y-109220000D03*
D15*
X130810000Y-74930000D03*
D16*
X138310000Y-74930000D03*
X138310000Y-92710000D03*
D15*
X130810000Y-92710000D03*
D14*
X104140000Y-109220000D03*
D13*
X106140000Y-109220000D03*
X108140000Y-109220000D03*
X110140000Y-109220000D03*
X112140000Y-109220000D03*
D14*
X128270000Y-64770000D03*
D13*
X126270000Y-64770000D03*
X124270000Y-64770000D03*
X122270000Y-64770000D03*
X120270000Y-64770000D03*
X118270000Y-64770000D03*
X116270000Y-64770000D03*
X114270000Y-64770000D03*
X112270000Y-64770000D03*
X110270000Y-64770000D03*
X108270000Y-64770000D03*
X106270000Y-64770000D03*
D14*
X135890000Y-64770000D03*
D13*
X137890000Y-64770000D03*
X139890000Y-64770000D03*
D17*
X71120000Y-95250000D03*
X76120000Y-95250000D03*
D18*
X87430000Y-99060000D03*
X82550000Y-99060000D03*
X119380000Y-91440000D03*
X119380000Y-86560000D03*
D19*
X76200000Y-85090000D03*
X78218000Y-88152000D03*
X74930000Y-106680000D03*
X90170000Y-63500000D03*
X90170000Y-63500000D03*
X87630000Y-66040000D03*
X102870000Y-90170000D03*
X104140000Y-81280000D03*
X109220000Y-101600000D03*
X116840000Y-100330000D03*
X111740000Y-86340000D03*
X110490000Y-87630000D03*
X109220000Y-90170000D03*
X121920000Y-76200000D03*
X118110000Y-81280000D03*
X127000000Y-82550000D03*
X106680000Y-83820000D03*
X102870000Y-91440000D03*
X111760000Y-104140000D03*
X83820000Y-78740000D03*
X104140000Y-88900000D03*
X97790000Y-87630000D03*
X106482500Y-93782500D03*
X111760000Y-82550000D03*
X102870000Y-100330000D03*
X115570000Y-99060000D03*
X115570000Y-99060000D03*
X104140000Y-80010000D03*
X110675000Y-96335000D03*
X109220000Y-81280000D03*
X107950000Y-73660000D03*
X102870000Y-67310000D03*
X102870000Y-68580000D03*
X110490000Y-66040000D03*
X110490000Y-67310000D03*
X125730000Y-80010000D03*
X110490000Y-97790000D03*
X114300000Y-93980000D03*
X124460000Y-90170000D03*
X107950000Y-96520000D03*
X107950000Y-90170000D03*
X106680000Y-85090000D03*
X106680000Y-85090000D03*
X104140000Y-92710000D03*
X114300000Y-85090000D03*
X118110000Y-76200000D03*
X119380000Y-76200000D03*
X118110000Y-73660000D03*
X119380000Y-71120000D03*
X92710000Y-105410000D03*
X90170000Y-93980000D03*
D20*
X76200000Y-86134000D02*
X78218000Y-88152000D01*
X76200000Y-85090000D02*
X76200000Y-86134000D01*
X85598000Y-80772000D02*
X78218000Y-88152000D01*
X92964000Y-80772000D02*
X85598000Y-80772000D01*
X71120000Y-97088477D02*
X71120000Y-95250000D01*
X72284980Y-98253457D02*
X71120000Y-97088477D01*
X72284980Y-104034980D02*
X72284980Y-98253457D01*
X74930000Y-106680000D02*
X72284980Y-104034980D01*
X90170000Y-63500000D02*
X87630000Y-66040000D01*
X87630000Y-66040000D02*
X87630000Y-66040000D01*
X111465001Y-109894999D02*
X112140000Y-109220000D01*
X111139999Y-110220001D02*
X111465001Y-109894999D01*
X97710001Y-110220001D02*
X111139999Y-110220001D01*
X96710000Y-109220000D02*
X97710001Y-110220001D01*
X104865001Y-89248001D02*
X104865001Y-82005001D01*
X102870000Y-90170000D02*
X103943002Y-90170000D01*
X103943002Y-90170000D02*
X104865001Y-89248001D01*
X104865001Y-82005001D02*
X104140000Y-81280000D01*
X104140000Y-81280000D02*
X104140000Y-81280000D01*
X115570000Y-101600000D02*
X109220000Y-101600000D01*
X116840000Y-100330000D02*
X115570000Y-101600000D01*
X111740000Y-86340000D02*
X110490000Y-87590000D01*
X110490000Y-87590000D02*
X110490000Y-87630000D01*
X110490000Y-87630000D02*
X110490000Y-87630000D01*
X109220000Y-88900000D02*
X110490000Y-87630000D01*
X109220000Y-90170000D02*
X109220000Y-88900000D01*
X126905010Y-90264990D02*
X117239999Y-99930001D01*
X126905010Y-79475598D02*
X126905010Y-90264990D01*
X121920000Y-76200000D02*
X123629412Y-76200000D01*
X123629412Y-76200000D02*
X126905010Y-79475598D01*
X117239999Y-99930001D02*
X116840000Y-100330000D01*
X110293002Y-90170000D02*
X118110000Y-82353002D01*
X109220000Y-90170000D02*
X110293002Y-90170000D01*
X118110000Y-82353002D02*
X118110000Y-81280000D01*
X118110000Y-81280000D02*
X118110000Y-81280000D01*
X105410000Y-89339412D02*
X103309412Y-91440000D01*
X106680000Y-83820000D02*
X105410000Y-85090000D01*
X105410000Y-85090000D02*
X105410000Y-89339412D01*
X103309412Y-91440000D02*
X102870000Y-91440000D01*
X102870000Y-91440000D02*
X102870000Y-91440000D01*
X100043999Y-92346999D02*
X97790000Y-94600998D01*
X102870000Y-91440000D02*
X101963001Y-92346999D01*
X101963001Y-92346999D02*
X100043999Y-92346999D01*
X97790000Y-94600998D02*
X97790000Y-95250000D01*
X97790000Y-97423002D02*
X104506998Y-104140000D01*
X97790000Y-95250000D02*
X97790000Y-97423002D01*
X104506998Y-104140000D02*
X111760000Y-104140000D01*
X111760000Y-104140000D02*
X111760000Y-104140000D01*
X99784001Y-86651999D02*
X100584000Y-85852000D01*
X99458999Y-86977001D02*
X99784001Y-86651999D01*
X99458999Y-88642003D02*
X99458999Y-86977001D01*
X93504001Y-94597001D02*
X99458999Y-88642003D01*
X92713997Y-94597001D02*
X93504001Y-94597001D01*
X92060998Y-95250000D02*
X92713997Y-94597001D01*
X76120000Y-95250000D02*
X92060998Y-95250000D01*
X104140000Y-88900000D02*
X104140000Y-88900000D01*
X93504001Y-74566999D02*
X97790000Y-78852998D01*
X83820000Y-78740000D02*
X87993001Y-74566999D01*
X87993001Y-74566999D02*
X93504001Y-74566999D01*
X97790000Y-78852998D02*
X97790000Y-87630000D01*
X97790000Y-87630000D02*
X97790000Y-87630000D01*
X106482500Y-90564498D02*
X111760000Y-85286998D01*
X106482500Y-93782500D02*
X106482500Y-90564498D01*
X111760000Y-85286998D02*
X111760000Y-82550000D01*
X111760000Y-82550000D02*
X111760000Y-82550000D01*
X102870000Y-100330000D02*
X114300000Y-100330000D01*
X114300000Y-100330000D02*
X115570000Y-99060000D01*
X115570000Y-99060000D02*
X115570000Y-99060000D01*
X115570000Y-99060000D02*
X115570000Y-99060000D01*
X121005020Y-82677210D02*
X121005019Y-75479197D01*
X120100801Y-74574979D02*
X109575021Y-74574979D01*
X124397233Y-79284999D02*
X121005020Y-82677210D01*
X126455001Y-79661999D02*
X126078001Y-79284999D01*
X126078001Y-79284999D02*
X124397233Y-79284999D01*
X115570000Y-99060000D02*
X113574999Y-97064999D01*
X113574999Y-97064999D02*
X113574999Y-92801411D01*
X113574999Y-92801411D02*
X118291399Y-88085011D01*
X118291399Y-88085011D02*
X120082402Y-88085010D01*
X120082402Y-88085010D02*
X126455001Y-81712411D01*
X121005019Y-75479197D02*
X120100801Y-74574979D01*
X126455001Y-81712411D02*
X126455001Y-79661999D01*
X109575021Y-74574979D02*
X104140000Y-80010000D01*
X104140000Y-80010000D02*
X104140000Y-80010000D01*
X119914401Y-75024989D02*
X115475011Y-75024989D01*
X110109315Y-96335000D02*
X109764999Y-95990684D01*
X110675000Y-96335000D02*
X110109315Y-96335000D01*
X109764999Y-95990684D02*
X109764999Y-93280823D01*
X109764999Y-93280823D02*
X120555011Y-82490811D01*
X120555011Y-82490811D02*
X120555010Y-75665598D01*
X120555010Y-75665598D02*
X119914401Y-75024989D01*
X115475011Y-75024989D02*
X109220000Y-81280000D01*
X109220000Y-81280000D02*
X109220000Y-81280000D01*
X91785000Y-109220000D02*
X92710000Y-109220000D01*
X89970001Y-107405001D02*
X91785000Y-109220000D01*
X69494999Y-102318001D02*
X74581999Y-107405001D01*
X74581999Y-107405001D02*
X89970001Y-107405001D01*
X69494999Y-85543179D02*
X69494999Y-102318001D01*
X91531198Y-63506980D02*
X69494999Y-85543179D01*
X100223982Y-63506980D02*
X91531198Y-63506980D01*
X101709001Y-64991999D02*
X100223982Y-63506980D01*
X101709001Y-68612001D02*
X101709001Y-64991999D01*
X94089001Y-69197001D02*
X101124001Y-69197001D01*
X101124001Y-69197001D02*
X101709001Y-68612001D01*
X92964000Y-68072000D02*
X94089001Y-69197001D01*
X94089001Y-76817001D02*
X93763999Y-76491999D01*
X93504001Y-81897001D02*
X94089001Y-81312001D01*
X85742999Y-81897001D02*
X93504001Y-81897001D01*
X74494999Y-93145001D02*
X85742999Y-81897001D01*
X74494999Y-96030001D02*
X74494999Y-93145001D01*
X89621999Y-96875001D02*
X75339999Y-96875001D01*
X94089001Y-81312001D02*
X94089001Y-76817001D01*
X75339999Y-96875001D02*
X74494999Y-96030001D01*
X101966998Y-109220000D02*
X89621999Y-96875001D01*
X93763999Y-76491999D02*
X92964000Y-75692000D01*
X104140000Y-109220000D02*
X101966998Y-109220000D01*
X118944999Y-65444999D02*
X118270000Y-64770000D01*
X120105001Y-66605001D02*
X118944999Y-65444999D01*
X120105001Y-71468001D02*
X120105001Y-66605001D01*
X119385991Y-72187011D02*
X120105001Y-71468001D01*
X109422989Y-72187011D02*
X119385991Y-72187011D01*
X107950000Y-73660000D02*
X109422989Y-72187011D01*
X115595001Y-64095001D02*
X116270000Y-64770000D01*
X114819989Y-63319989D02*
X115595001Y-64095001D01*
X105603599Y-63319989D02*
X114819989Y-63319989D01*
X102870000Y-66053588D02*
X105603599Y-63319989D01*
X102870000Y-67310000D02*
X102870000Y-66053588D01*
X113595001Y-64095001D02*
X114270000Y-64770000D01*
X113269999Y-63769999D02*
X113595001Y-64095001D01*
X105789999Y-63769999D02*
X113269999Y-63769999D01*
X105269999Y-64289999D02*
X105789999Y-63769999D01*
X105269999Y-66180001D02*
X105269999Y-64289999D01*
X102870000Y-68580000D02*
X105269999Y-66180001D01*
X109540000Y-66040000D02*
X108270000Y-64770000D01*
X110490000Y-66040000D02*
X109540000Y-66040000D01*
X108810000Y-67310000D02*
X106270000Y-64770000D01*
X110490000Y-67310000D02*
X108810000Y-67310000D01*
X125730000Y-80010000D02*
X125730000Y-80010000D01*
X125730000Y-80575685D02*
X125730000Y-80010000D01*
X125730000Y-81801002D02*
X125730000Y-80575685D01*
X119896001Y-87635001D02*
X125730000Y-81801002D01*
X118105000Y-87635002D02*
X119896001Y-87635001D01*
X113124990Y-95155010D02*
X113124990Y-92615010D01*
X113124990Y-92615010D02*
X118105000Y-87635002D01*
X110490000Y-97790000D02*
X113124990Y-95155010D01*
X114300000Y-93980000D02*
X120650000Y-93980000D01*
X120650000Y-93980000D02*
X124460000Y-90170000D01*
X124460000Y-90170000D02*
X124460000Y-90170000D01*
X107950000Y-96520000D02*
X107950000Y-90170000D01*
X107950000Y-90170000D02*
X107950000Y-90170000D01*
X106680000Y-85090000D02*
X106680000Y-85090000D01*
X106680000Y-85090000D02*
X106680000Y-85090000D01*
X106280001Y-85489999D02*
X106680000Y-85090000D01*
X105860010Y-85909990D02*
X106280001Y-85489999D01*
X105860010Y-90989990D02*
X105860010Y-85909990D01*
X104140000Y-92710000D02*
X105860010Y-90989990D01*
X107079999Y-84690001D02*
X106680000Y-85090000D01*
X109945001Y-81824999D02*
X107079999Y-84690001D01*
X112108001Y-81824999D02*
X109945001Y-81824999D01*
X114300000Y-84016998D02*
X112108001Y-81824999D01*
X114300000Y-85090000D02*
X114300000Y-84016998D01*
X120105001Y-75851999D02*
X119728001Y-75474999D01*
X102267010Y-97695010D02*
X108484402Y-97695010D01*
X100584000Y-96012000D02*
X102267010Y-97695010D01*
X108484402Y-97695010D02*
X109125011Y-97054401D01*
X109125011Y-97054401D02*
X109125011Y-93284401D01*
X109125011Y-93284401D02*
X120105001Y-82304411D01*
X119728001Y-75474999D02*
X118835001Y-75474999D01*
X120105001Y-82304411D02*
X120105001Y-75851999D01*
X118835001Y-75474999D02*
X118110000Y-76200000D01*
X118110000Y-76200000D02*
X118110000Y-76200000D01*
X108675001Y-93098001D02*
X119380000Y-82393002D01*
X108675001Y-96868001D02*
X108675001Y-93098001D01*
X108298001Y-97245001D02*
X108675001Y-96868001D01*
X106711589Y-97245001D02*
X108298001Y-97245001D01*
X100584000Y-93472000D02*
X102938588Y-93472000D01*
X102938588Y-93472000D02*
X106711589Y-97245001D01*
X119380000Y-82393002D02*
X119380000Y-76200000D01*
X119380000Y-76200000D02*
X119380000Y-76200000D01*
X103414999Y-79661999D02*
X109416998Y-73660000D01*
X100584000Y-90932000D02*
X103414999Y-88101001D01*
X103414999Y-88101001D02*
X103414999Y-79661999D01*
X109416998Y-73660000D02*
X118110000Y-73660000D01*
X118110000Y-73660000D02*
X118110000Y-73660000D01*
X100043999Y-71737001D02*
X118762999Y-71737001D01*
X99458999Y-72322001D02*
X100043999Y-71737001D01*
X100584000Y-88392000D02*
X101709001Y-87266999D01*
X101709001Y-85311999D02*
X101124001Y-84726999D01*
X101124001Y-84726999D02*
X100333997Y-84726999D01*
X101709001Y-87266999D02*
X101709001Y-85311999D01*
X100333997Y-84726999D02*
X99458999Y-83852001D01*
X99458999Y-83852001D02*
X99458999Y-72322001D01*
X118762999Y-71737001D02*
X119380000Y-71120000D01*
X119380000Y-71120000D02*
X119380000Y-71120000D01*
X99784001Y-67272001D02*
X100584000Y-68072000D01*
X96918999Y-64406999D02*
X99784001Y-67272001D01*
X91903999Y-64406999D02*
X96918999Y-64406999D01*
X73660000Y-82650998D02*
X91903999Y-64406999D01*
X73660000Y-101650000D02*
X73660000Y-82650998D01*
X99784001Y-64732001D02*
X100584000Y-65532000D01*
X99008989Y-63956989D02*
X99784001Y-64732001D01*
X73209991Y-82464597D02*
X91717599Y-63956989D01*
X73209990Y-100391849D02*
X73209991Y-82464597D01*
X72734990Y-100866849D02*
X73209990Y-100391849D01*
X72734990Y-102433151D02*
X72734990Y-100866849D01*
X73276849Y-102975010D02*
X72734990Y-102433151D01*
X75274990Y-102975010D02*
X73276849Y-102975010D01*
X76200000Y-102050000D02*
X75274990Y-102975010D01*
X91717599Y-63956989D02*
X99008989Y-63956989D01*
X76200000Y-101650000D02*
X76200000Y-102050000D01*
X94710000Y-109220000D02*
X94710000Y-107410000D01*
X94710000Y-107410000D02*
X92710000Y-105410000D01*
X92710000Y-105410000D02*
X92710000Y-105410000D01*
X93763999Y-71411999D02*
X92964000Y-70612000D01*
X98515001Y-87978001D02*
X98515001Y-76163001D01*
X98138001Y-88355001D02*
X98515001Y-87978001D01*
X97422001Y-88355001D02*
X98138001Y-88355001D01*
X93504001Y-84437001D02*
X97422001Y-88355001D01*
X92423999Y-84437001D02*
X93504001Y-84437001D01*
X91803001Y-85057999D02*
X92423999Y-84437001D01*
X91803001Y-92346999D02*
X91803001Y-85057999D01*
X98515001Y-76163001D02*
X93763999Y-71411999D01*
X90170000Y-93980000D02*
X91803001Y-92346999D01*
D21*
G36*
X143383000Y-111633000D02*
G01*
X67437000Y-111633000D01*
X67437000Y-109297000D01*
X69885000Y-109297000D01*
X69885000Y-109697000D01*
X69933507Y-109935496D01*
X70027610Y-110159946D01*
X70163693Y-110361725D01*
X70336526Y-110533078D01*
X70539467Y-110667421D01*
X70764718Y-110759591D01*
X70802391Y-110763462D01*
X70993000Y-110638731D01*
X70993000Y-109297000D01*
X71247000Y-109297000D01*
X71247000Y-110638731D01*
X71437609Y-110763462D01*
X71475282Y-110759591D01*
X71700533Y-110667421D01*
X71903474Y-110533078D01*
X72076307Y-110361725D01*
X72212390Y-110159946D01*
X72306493Y-109935496D01*
X72355000Y-109697000D01*
X72355000Y-109297000D01*
X71247000Y-109297000D01*
X70993000Y-109297000D01*
X69885000Y-109297000D01*
X67437000Y-109297000D01*
X67437000Y-108643000D01*
X69885000Y-108643000D01*
X69885000Y-109043000D01*
X70993000Y-109043000D01*
X70993000Y-107701269D01*
X71247000Y-107701269D01*
X71247000Y-109043000D01*
X72355000Y-109043000D01*
X72355000Y-108643000D01*
X72306493Y-108404504D01*
X72212390Y-108180054D01*
X72076307Y-107978275D01*
X71903474Y-107806922D01*
X71700533Y-107672579D01*
X71475282Y-107580409D01*
X71437609Y-107576538D01*
X71247000Y-107701269D01*
X70993000Y-107701269D01*
X70802391Y-107576538D01*
X70764718Y-107580409D01*
X70539467Y-107672579D01*
X70336526Y-107806922D01*
X70163693Y-107978275D01*
X70027610Y-108180054D01*
X69933507Y-108404504D01*
X69885000Y-108643000D01*
X67437000Y-108643000D01*
X67437000Y-85543179D01*
X68731323Y-85543179D01*
X68734999Y-85580501D01*
X68735000Y-102280668D01*
X68731323Y-102318001D01*
X68735000Y-102355334D01*
X68745997Y-102466987D01*
X68747058Y-102470484D01*
X68789453Y-102610247D01*
X68860025Y-102742277D01*
X68928755Y-102826024D01*
X68954999Y-102858002D01*
X68983997Y-102881800D01*
X73633801Y-107531605D01*
X73417898Y-107552870D01*
X73185099Y-107623489D01*
X72970551Y-107738167D01*
X72782498Y-107892498D01*
X72628167Y-108080552D01*
X72513489Y-108295100D01*
X72442870Y-108527899D01*
X72425000Y-108709336D01*
X72425000Y-109630665D01*
X72442870Y-109812102D01*
X72513489Y-110044901D01*
X72628168Y-110259449D01*
X72782499Y-110447502D01*
X72970552Y-110601833D01*
X73185100Y-110716511D01*
X73417899Y-110787130D01*
X73660000Y-110810975D01*
X73902102Y-110787130D01*
X74134901Y-110716511D01*
X74349449Y-110601833D01*
X74537502Y-110447502D01*
X74691833Y-110259449D01*
X74806511Y-110044901D01*
X74877130Y-109812101D01*
X74895000Y-109630664D01*
X74895000Y-108709335D01*
X74877130Y-108527898D01*
X74806511Y-108295099D01*
X74736972Y-108165001D01*
X75123028Y-108165001D01*
X75053489Y-108295100D01*
X74982870Y-108527899D01*
X74965000Y-108709336D01*
X74965000Y-109630665D01*
X74982870Y-109812102D01*
X75053489Y-110044901D01*
X75168168Y-110259449D01*
X75322499Y-110447502D01*
X75510552Y-110601833D01*
X75725100Y-110716511D01*
X75957899Y-110787130D01*
X76200000Y-110810975D01*
X76442102Y-110787130D01*
X76674901Y-110716511D01*
X76889449Y-110601833D01*
X77077502Y-110447502D01*
X77231833Y-110259449D01*
X77346511Y-110044901D01*
X77417130Y-109812101D01*
X77435000Y-109630664D01*
X77435000Y-108709335D01*
X77417130Y-108527898D01*
X77346511Y-108295099D01*
X77276972Y-108165001D01*
X89655200Y-108165001D01*
X91221200Y-109731002D01*
X91244999Y-109760001D01*
X91360724Y-109854974D01*
X91396928Y-109874326D01*
X91396928Y-109895000D01*
X91409188Y-110019482D01*
X91445498Y-110139180D01*
X91504463Y-110249494D01*
X91583815Y-110346185D01*
X91680506Y-110425537D01*
X91790820Y-110484502D01*
X91910518Y-110520812D01*
X92035000Y-110533072D01*
X93385000Y-110533072D01*
X93509482Y-110520812D01*
X93629180Y-110484502D01*
X93739494Y-110425537D01*
X93836185Y-110346185D01*
X93909074Y-110257369D01*
X93978682Y-110314495D01*
X94206259Y-110436138D01*
X94453195Y-110511045D01*
X94645649Y-110530000D01*
X94774351Y-110530000D01*
X94966805Y-110511045D01*
X95213741Y-110436138D01*
X95441318Y-110314495D01*
X95640792Y-110150792D01*
X95710000Y-110066461D01*
X95779208Y-110150792D01*
X95978682Y-110314495D01*
X96206259Y-110436138D01*
X96453195Y-110511045D01*
X96645649Y-110530000D01*
X96774351Y-110530000D01*
X96929880Y-110514682D01*
X97146202Y-110731004D01*
X97170000Y-110760002D01*
X97198998Y-110783800D01*
X97285724Y-110854975D01*
X97417754Y-110925547D01*
X97561015Y-110969004D01*
X97672668Y-110980001D01*
X97672678Y-110980001D01*
X97710001Y-110983677D01*
X97747324Y-110980001D01*
X111102677Y-110980001D01*
X111139999Y-110983677D01*
X111177321Y-110980001D01*
X111177332Y-110980001D01*
X111288985Y-110969004D01*
X111432246Y-110925547D01*
X111564275Y-110854975D01*
X111680000Y-110760002D01*
X111703803Y-110730998D01*
X111920119Y-110514682D01*
X112075649Y-110530000D01*
X112204351Y-110530000D01*
X112396805Y-110511045D01*
X112643741Y-110436138D01*
X112871318Y-110314495D01*
X113070792Y-110150792D01*
X113234495Y-109951318D01*
X113356138Y-109723741D01*
X113431045Y-109476805D01*
X113456338Y-109220000D01*
X113431045Y-108963195D01*
X113356138Y-108716259D01*
X113234495Y-108488682D01*
X113070792Y-108289208D01*
X112871318Y-108125505D01*
X112643741Y-108003862D01*
X112396805Y-107928955D01*
X112204351Y-107910000D01*
X112075649Y-107910000D01*
X111883195Y-107928955D01*
X111636259Y-108003862D01*
X111408682Y-108125505D01*
X111209208Y-108289208D01*
X111140000Y-108373539D01*
X111070792Y-108289208D01*
X110871318Y-108125505D01*
X110643741Y-108003862D01*
X110396805Y-107928955D01*
X110204351Y-107910000D01*
X110075649Y-107910000D01*
X109883195Y-107928955D01*
X109636259Y-108003862D01*
X109408682Y-108125505D01*
X109209208Y-108289208D01*
X109140000Y-108373539D01*
X109070792Y-108289208D01*
X108871318Y-108125505D01*
X108643741Y-108003862D01*
X108396805Y-107928955D01*
X108204351Y-107910000D01*
X108075649Y-107910000D01*
X107883195Y-107928955D01*
X107636259Y-108003862D01*
X107408682Y-108125505D01*
X107209208Y-108289208D01*
X107140000Y-108373539D01*
X107070792Y-108289208D01*
X106871318Y-108125505D01*
X106643741Y-108003862D01*
X106396805Y-107928955D01*
X106204351Y-107910000D01*
X106075649Y-107910000D01*
X105883195Y-107928955D01*
X105636259Y-108003862D01*
X105408682Y-108125505D01*
X105339074Y-108182631D01*
X105266185Y-108093815D01*
X105169494Y-108014463D01*
X105059180Y-107955498D01*
X104939482Y-107919188D01*
X104815000Y-107906928D01*
X103465000Y-107906928D01*
X103340518Y-107919188D01*
X103220820Y-107955498D01*
X103110506Y-108014463D01*
X103013815Y-108093815D01*
X102934463Y-108190506D01*
X102875498Y-108300820D01*
X102839188Y-108420518D01*
X102835299Y-108460000D01*
X102281800Y-108460000D01*
X100789672Y-106967872D01*
X135941000Y-106967872D01*
X135941000Y-107408128D01*
X136026890Y-107839925D01*
X136195369Y-108246669D01*
X136439962Y-108612729D01*
X136751271Y-108924038D01*
X137117331Y-109168631D01*
X137524075Y-109337110D01*
X137955872Y-109423000D01*
X138396128Y-109423000D01*
X138827925Y-109337110D01*
X139234669Y-109168631D01*
X139600729Y-108924038D01*
X139912038Y-108612729D01*
X140156631Y-108246669D01*
X140325110Y-107839925D01*
X140411000Y-107408128D01*
X140411000Y-106967872D01*
X140325110Y-106536075D01*
X140156631Y-106129331D01*
X139912038Y-105763271D01*
X139600729Y-105451962D01*
X139234669Y-105207369D01*
X138827925Y-105038890D01*
X138396128Y-104953000D01*
X137955872Y-104953000D01*
X137524075Y-105038890D01*
X137117331Y-105207369D01*
X136751271Y-105451962D01*
X136439962Y-105763271D01*
X136195369Y-106129331D01*
X136026890Y-106536075D01*
X135941000Y-106967872D01*
X100789672Y-106967872D01*
X93639739Y-99817940D01*
X93765101Y-99750932D01*
X93983608Y-99571608D01*
X94162932Y-99353101D01*
X94296182Y-99103808D01*
X94378236Y-98833309D01*
X94405943Y-98552000D01*
X94378236Y-98270691D01*
X94296182Y-98000192D01*
X94162932Y-97750899D01*
X93983608Y-97532392D01*
X93765101Y-97353068D01*
X93632142Y-97282000D01*
X93765101Y-97210932D01*
X93983608Y-97031608D01*
X94162932Y-96813101D01*
X94296182Y-96563808D01*
X94378236Y-96293309D01*
X94405943Y-96012000D01*
X94378236Y-95730691D01*
X94296182Y-95460192D01*
X94162932Y-95210899D01*
X94073670Y-95102133D01*
X99674133Y-89501670D01*
X99782899Y-89590932D01*
X99915858Y-89662000D01*
X99782899Y-89733068D01*
X99564392Y-89912392D01*
X99385068Y-90130899D01*
X99251818Y-90380192D01*
X99169764Y-90650691D01*
X99142057Y-90932000D01*
X99169764Y-91213309D01*
X99251818Y-91483808D01*
X99385068Y-91733101D01*
X99474330Y-91841867D01*
X97279003Y-94037194D01*
X97249999Y-94060997D01*
X97212267Y-94106974D01*
X97155026Y-94176722D01*
X97103510Y-94273101D01*
X97084454Y-94308752D01*
X97040997Y-94452013D01*
X97030000Y-94563666D01*
X97030000Y-94563676D01*
X97026324Y-94600998D01*
X97030000Y-94638320D01*
X97030000Y-95212668D01*
X97030001Y-97385670D01*
X97026324Y-97423002D01*
X97030001Y-97460335D01*
X97040998Y-97571988D01*
X97047797Y-97594402D01*
X97084454Y-97715248D01*
X97155026Y-97847278D01*
X97191679Y-97891939D01*
X97250000Y-97963003D01*
X97278998Y-97986801D01*
X103943199Y-104651003D01*
X103966997Y-104680001D01*
X104082722Y-104774974D01*
X104214751Y-104845546D01*
X104358012Y-104889003D01*
X104469665Y-104900000D01*
X104469673Y-104900000D01*
X104506998Y-104903676D01*
X104544323Y-104900000D01*
X111056289Y-104900000D01*
X111100226Y-104943937D01*
X111269744Y-105057205D01*
X111458102Y-105135226D01*
X111658061Y-105175000D01*
X111861939Y-105175000D01*
X112061898Y-105135226D01*
X112250256Y-105057205D01*
X112419774Y-104943937D01*
X112563937Y-104799774D01*
X112677205Y-104630256D01*
X112755226Y-104441898D01*
X112795000Y-104241939D01*
X112795000Y-104038061D01*
X112755226Y-103838102D01*
X112677205Y-103649744D01*
X112563937Y-103480226D01*
X112419774Y-103336063D01*
X112250256Y-103222795D01*
X112061898Y-103144774D01*
X111861939Y-103105000D01*
X111658061Y-103105000D01*
X111458102Y-103144774D01*
X111269744Y-103222795D01*
X111100226Y-103336063D01*
X111056289Y-103380000D01*
X104821800Y-103380000D01*
X102806800Y-101365000D01*
X102971939Y-101365000D01*
X103171898Y-101325226D01*
X103360256Y-101247205D01*
X103529774Y-101133937D01*
X103573711Y-101090000D01*
X114262678Y-101090000D01*
X114300000Y-101093676D01*
X114337322Y-101090000D01*
X114337333Y-101090000D01*
X114448986Y-101079003D01*
X114592247Y-101035546D01*
X114724276Y-100964974D01*
X114840001Y-100870001D01*
X114863804Y-100840997D01*
X115609802Y-100095000D01*
X115671939Y-100095000D01*
X115871898Y-100055226D01*
X116060256Y-99977205D01*
X116229774Y-99863937D01*
X116373937Y-99719774D01*
X116487205Y-99550256D01*
X116565226Y-99361898D01*
X116605000Y-99161939D01*
X116605000Y-98958061D01*
X116565226Y-98758102D01*
X116487205Y-98569744D01*
X116373937Y-98400226D01*
X116229774Y-98256063D01*
X116060256Y-98142795D01*
X115871898Y-98064774D01*
X115671939Y-98025000D01*
X115609802Y-98025000D01*
X114334999Y-96750198D01*
X114334999Y-95015000D01*
X114401939Y-95015000D01*
X114601898Y-94975226D01*
X114790256Y-94897205D01*
X114959774Y-94783937D01*
X115003711Y-94740000D01*
X120612678Y-94740000D01*
X120650000Y-94743676D01*
X120687322Y-94740000D01*
X120687333Y-94740000D01*
X120798986Y-94729003D01*
X120942247Y-94685546D01*
X121074276Y-94614974D01*
X121190001Y-94520001D01*
X121213804Y-94490997D01*
X124194801Y-91510000D01*
X128971928Y-91510000D01*
X128971928Y-93910000D01*
X128984188Y-94034482D01*
X129020498Y-94154180D01*
X129079463Y-94264494D01*
X129158815Y-94361185D01*
X129255506Y-94440537D01*
X129365820Y-94499502D01*
X129485518Y-94535812D01*
X129610000Y-94548072D01*
X132010000Y-94548072D01*
X132134482Y-94535812D01*
X132254180Y-94499502D01*
X132364494Y-94440537D01*
X132461185Y-94361185D01*
X132540537Y-94264494D01*
X132599502Y-94154180D01*
X132635812Y-94034482D01*
X132648072Y-93910000D01*
X132648072Y-92529268D01*
X136475000Y-92529268D01*
X136475000Y-92890732D01*
X136545518Y-93245250D01*
X136683844Y-93579199D01*
X136884662Y-93879744D01*
X137140256Y-94135338D01*
X137440801Y-94336156D01*
X137774750Y-94474482D01*
X138129268Y-94545000D01*
X138490732Y-94545000D01*
X138845250Y-94474482D01*
X139179199Y-94336156D01*
X139479744Y-94135338D01*
X139735338Y-93879744D01*
X139936156Y-93579199D01*
X140074482Y-93245250D01*
X140145000Y-92890732D01*
X140145000Y-92529268D01*
X140074482Y-92174750D01*
X139936156Y-91840801D01*
X139735338Y-91540256D01*
X139479744Y-91284662D01*
X139179199Y-91083844D01*
X138845250Y-90945518D01*
X138490732Y-90875000D01*
X138129268Y-90875000D01*
X137774750Y-90945518D01*
X137440801Y-91083844D01*
X137140256Y-91284662D01*
X136884662Y-91540256D01*
X136683844Y-91840801D01*
X136545518Y-92174750D01*
X136475000Y-92529268D01*
X132648072Y-92529268D01*
X132648072Y-91510000D01*
X132635812Y-91385518D01*
X132599502Y-91265820D01*
X132540537Y-91155506D01*
X132461185Y-91058815D01*
X132364494Y-90979463D01*
X132254180Y-90920498D01*
X132134482Y-90884188D01*
X132010000Y-90871928D01*
X129610000Y-90871928D01*
X129485518Y-90884188D01*
X129365820Y-90920498D01*
X129255506Y-90979463D01*
X129158815Y-91058815D01*
X129079463Y-91155506D01*
X129020498Y-91265820D01*
X128984188Y-91385518D01*
X128971928Y-91510000D01*
X124194801Y-91510000D01*
X124499802Y-91205000D01*
X124561939Y-91205000D01*
X124761898Y-91165226D01*
X124950256Y-91087205D01*
X125119774Y-90973937D01*
X125263937Y-90829774D01*
X125377205Y-90660256D01*
X125455226Y-90471898D01*
X125495000Y-90271939D01*
X125495000Y-90068061D01*
X125455226Y-89868102D01*
X125377205Y-89679744D01*
X125263937Y-89510226D01*
X125119774Y-89366063D01*
X124950256Y-89252795D01*
X124761898Y-89174774D01*
X124561939Y-89135000D01*
X124358061Y-89135000D01*
X124158102Y-89174774D01*
X123969744Y-89252795D01*
X123800226Y-89366063D01*
X123656063Y-89510226D01*
X123542795Y-89679744D01*
X123464774Y-89868102D01*
X123425000Y-90068061D01*
X123425000Y-90130198D01*
X120335199Y-93220000D01*
X115003711Y-93220000D01*
X114959774Y-93176063D01*
X114790256Y-93062795D01*
X114601898Y-92984774D01*
X114488911Y-92962300D01*
X116147622Y-91303589D01*
X117995000Y-91303589D01*
X117995000Y-91576411D01*
X118048225Y-91843989D01*
X118152629Y-92096043D01*
X118304201Y-92322886D01*
X118497114Y-92515799D01*
X118723957Y-92667371D01*
X118976011Y-92771775D01*
X119243589Y-92825000D01*
X119516411Y-92825000D01*
X119783989Y-92771775D01*
X120036043Y-92667371D01*
X120262886Y-92515799D01*
X120455799Y-92322886D01*
X120607371Y-92096043D01*
X120711775Y-91843989D01*
X120765000Y-91576411D01*
X120765000Y-91303589D01*
X120711775Y-91036011D01*
X120607371Y-90783957D01*
X120455799Y-90557114D01*
X120262886Y-90364201D01*
X120036043Y-90212629D01*
X119783989Y-90108225D01*
X119516411Y-90055000D01*
X119243589Y-90055000D01*
X118976011Y-90108225D01*
X118723957Y-90212629D01*
X118497114Y-90364201D01*
X118304201Y-90557114D01*
X118152629Y-90783957D01*
X118048225Y-91036011D01*
X117995000Y-91303589D01*
X116147622Y-91303589D01*
X118606201Y-88845011D01*
X120045070Y-88845009D01*
X120082402Y-88848686D01*
X120119735Y-88845009D01*
X120231388Y-88834012D01*
X120289857Y-88816276D01*
X120374648Y-88790556D01*
X120506678Y-88719984D01*
X120593404Y-88648809D01*
X120593405Y-88648808D01*
X120622403Y-88625010D01*
X120646201Y-88596012D01*
X126966005Y-82276209D01*
X126995002Y-82252412D01*
X127040309Y-82197205D01*
X127089975Y-82136688D01*
X127160547Y-82004658D01*
X127169851Y-81973985D01*
X127204004Y-81861397D01*
X127215001Y-81749744D01*
X127215001Y-81749734D01*
X127218677Y-81712411D01*
X127215001Y-81675088D01*
X127215001Y-79699332D01*
X127218678Y-79661999D01*
X127214504Y-79619615D01*
X127204004Y-79513013D01*
X127160547Y-79369752D01*
X127089975Y-79237723D01*
X126995002Y-79121998D01*
X126965998Y-79098195D01*
X126641805Y-78774002D01*
X126618002Y-78744998D01*
X126502277Y-78650025D01*
X126370248Y-78579453D01*
X126226987Y-78535996D01*
X126115334Y-78524999D01*
X126115323Y-78524999D01*
X126078001Y-78521323D01*
X126040679Y-78524999D01*
X124434556Y-78524999D01*
X124397233Y-78521323D01*
X124359910Y-78524999D01*
X124359900Y-78524999D01*
X124248247Y-78535996D01*
X124104986Y-78579453D01*
X123972956Y-78650025D01*
X123907172Y-78704013D01*
X123857232Y-78744998D01*
X123833434Y-78773996D01*
X121765019Y-80842410D01*
X121765018Y-75516529D01*
X121768695Y-75479196D01*
X121754021Y-75330210D01*
X121710564Y-75186950D01*
X121639992Y-75054920D01*
X121568818Y-74968194D01*
X121568813Y-74968189D01*
X121545019Y-74939196D01*
X121516026Y-74915402D01*
X120664604Y-74063981D01*
X120640802Y-74034978D01*
X120525077Y-73940005D01*
X120393048Y-73869433D01*
X120249787Y-73825976D01*
X120138134Y-73814979D01*
X120138123Y-73814979D01*
X120100801Y-73811303D01*
X120063479Y-73814979D01*
X119134450Y-73814979D01*
X119145000Y-73761939D01*
X119145000Y-73730000D01*
X128971928Y-73730000D01*
X128971928Y-76130000D01*
X128984188Y-76254482D01*
X129020498Y-76374180D01*
X129079463Y-76484494D01*
X129158815Y-76581185D01*
X129255506Y-76660537D01*
X129365820Y-76719502D01*
X129485518Y-76755812D01*
X129610000Y-76768072D01*
X132010000Y-76768072D01*
X132134482Y-76755812D01*
X132254180Y-76719502D01*
X132364494Y-76660537D01*
X132461185Y-76581185D01*
X132540537Y-76484494D01*
X132599502Y-76374180D01*
X132635812Y-76254482D01*
X132648072Y-76130000D01*
X132648072Y-74749268D01*
X136475000Y-74749268D01*
X136475000Y-75110732D01*
X136545518Y-75465250D01*
X136683844Y-75799199D01*
X136884662Y-76099744D01*
X137140256Y-76355338D01*
X137440801Y-76556156D01*
X137774750Y-76694482D01*
X138129268Y-76765000D01*
X138490732Y-76765000D01*
X138845250Y-76694482D01*
X139179199Y-76556156D01*
X139479744Y-76355338D01*
X139735338Y-76099744D01*
X139936156Y-75799199D01*
X140074482Y-75465250D01*
X140145000Y-75110732D01*
X140145000Y-74749268D01*
X140074482Y-74394750D01*
X139936156Y-74060801D01*
X139735338Y-73760256D01*
X139479744Y-73504662D01*
X139179199Y-73303844D01*
X138845250Y-73165518D01*
X138490732Y-73095000D01*
X138129268Y-73095000D01*
X137774750Y-73165518D01*
X137440801Y-73303844D01*
X137140256Y-73504662D01*
X136884662Y-73760256D01*
X136683844Y-74060801D01*
X136545518Y-74394750D01*
X136475000Y-74749268D01*
X132648072Y-74749268D01*
X132648072Y-73730000D01*
X132635812Y-73605518D01*
X132599502Y-73485820D01*
X132540537Y-73375506D01*
X132461185Y-73278815D01*
X132364494Y-73199463D01*
X132254180Y-73140498D01*
X132134482Y-73104188D01*
X132010000Y-73091928D01*
X129610000Y-73091928D01*
X129485518Y-73104188D01*
X129365820Y-73140498D01*
X129255506Y-73199463D01*
X129158815Y-73278815D01*
X129079463Y-73375506D01*
X129020498Y-73485820D01*
X128984188Y-73605518D01*
X128971928Y-73730000D01*
X119145000Y-73730000D01*
X119145000Y-73558061D01*
X119105226Y-73358102D01*
X119027205Y-73169744D01*
X118913937Y-73000226D01*
X118860722Y-72947011D01*
X119348669Y-72947011D01*
X119385991Y-72950687D01*
X119423313Y-72947011D01*
X119423324Y-72947011D01*
X119534977Y-72936014D01*
X119678238Y-72892557D01*
X119810267Y-72821985D01*
X119925992Y-72727012D01*
X119949794Y-72698009D01*
X120616005Y-72031799D01*
X120645002Y-72008002D01*
X120739975Y-71892277D01*
X120810547Y-71760248D01*
X120854004Y-71616987D01*
X120865001Y-71505334D01*
X120865001Y-71505326D01*
X120868677Y-71468001D01*
X120865001Y-71430676D01*
X120865001Y-66642334D01*
X120868678Y-66605001D01*
X120854004Y-66456015D01*
X120810547Y-66312754D01*
X120739975Y-66180725D01*
X120668800Y-66093998D01*
X120645002Y-66065000D01*
X120616004Y-66041202D01*
X120610468Y-66035666D01*
X120773741Y-65986138D01*
X121001318Y-65864495D01*
X121200792Y-65700792D01*
X121270000Y-65616461D01*
X121339208Y-65700792D01*
X121538682Y-65864495D01*
X121766259Y-65986138D01*
X122013195Y-66061045D01*
X122205649Y-66080000D01*
X122334351Y-66080000D01*
X122526805Y-66061045D01*
X122773741Y-65986138D01*
X123001318Y-65864495D01*
X123200792Y-65700792D01*
X123270000Y-65616461D01*
X123339208Y-65700792D01*
X123538682Y-65864495D01*
X123766259Y-65986138D01*
X124013195Y-66061045D01*
X124205649Y-66080000D01*
X124334351Y-66080000D01*
X124526805Y-66061045D01*
X124773741Y-65986138D01*
X125001318Y-65864495D01*
X125200792Y-65700792D01*
X125270000Y-65616461D01*
X125339208Y-65700792D01*
X125538682Y-65864495D01*
X125766259Y-65986138D01*
X126013195Y-66061045D01*
X126205649Y-66080000D01*
X126334351Y-66080000D01*
X126526805Y-66061045D01*
X126773741Y-65986138D01*
X127001318Y-65864495D01*
X127070926Y-65807369D01*
X127143815Y-65896185D01*
X127240506Y-65975537D01*
X127350820Y-66034502D01*
X127470518Y-66070812D01*
X127595000Y-66083072D01*
X128945000Y-66083072D01*
X129069482Y-66070812D01*
X129189180Y-66034502D01*
X129299494Y-65975537D01*
X129396185Y-65896185D01*
X129475537Y-65799494D01*
X129534502Y-65689180D01*
X129570812Y-65569482D01*
X129583072Y-65445000D01*
X129583072Y-64095000D01*
X134576928Y-64095000D01*
X134576928Y-65445000D01*
X134589188Y-65569482D01*
X134625498Y-65689180D01*
X134684463Y-65799494D01*
X134763815Y-65896185D01*
X134860506Y-65975537D01*
X134970820Y-66034502D01*
X135090518Y-66070812D01*
X135215000Y-66083072D01*
X136565000Y-66083072D01*
X136689482Y-66070812D01*
X136809180Y-66034502D01*
X136919494Y-65975537D01*
X137016185Y-65896185D01*
X137089074Y-65807369D01*
X137158682Y-65864495D01*
X137386259Y-65986138D01*
X137633195Y-66061045D01*
X137825649Y-66080000D01*
X137954351Y-66080000D01*
X138146805Y-66061045D01*
X138393741Y-65986138D01*
X138621318Y-65864495D01*
X138820792Y-65700792D01*
X138890000Y-65616461D01*
X138959208Y-65700792D01*
X139158682Y-65864495D01*
X139386259Y-65986138D01*
X139633195Y-66061045D01*
X139825649Y-66080000D01*
X139954351Y-66080000D01*
X140146805Y-66061045D01*
X140393741Y-65986138D01*
X140621318Y-65864495D01*
X140820792Y-65700792D01*
X140984495Y-65501318D01*
X141106138Y-65273741D01*
X141181045Y-65026805D01*
X141206338Y-64770000D01*
X141181045Y-64513195D01*
X141106138Y-64266259D01*
X140984495Y-64038682D01*
X140820792Y-63839208D01*
X140621318Y-63675505D01*
X140393741Y-63553862D01*
X140146805Y-63478955D01*
X139954351Y-63460000D01*
X139825649Y-63460000D01*
X139633195Y-63478955D01*
X139386259Y-63553862D01*
X139158682Y-63675505D01*
X138959208Y-63839208D01*
X138890000Y-63923539D01*
X138820792Y-63839208D01*
X138621318Y-63675505D01*
X138393741Y-63553862D01*
X138146805Y-63478955D01*
X137954351Y-63460000D01*
X137825649Y-63460000D01*
X137633195Y-63478955D01*
X137386259Y-63553862D01*
X137158682Y-63675505D01*
X137089074Y-63732631D01*
X137016185Y-63643815D01*
X136919494Y-63564463D01*
X136809180Y-63505498D01*
X136689482Y-63469188D01*
X136565000Y-63456928D01*
X135215000Y-63456928D01*
X135090518Y-63469188D01*
X134970820Y-63505498D01*
X134860506Y-63564463D01*
X134763815Y-63643815D01*
X134684463Y-63740506D01*
X134625498Y-63850820D01*
X134589188Y-63970518D01*
X134576928Y-64095000D01*
X129583072Y-64095000D01*
X129570812Y-63970518D01*
X129534502Y-63850820D01*
X129475537Y-63740506D01*
X129396185Y-63643815D01*
X129299494Y-63564463D01*
X129189180Y-63505498D01*
X129069482Y-63469188D01*
X128945000Y-63456928D01*
X127595000Y-63456928D01*
X127470518Y-63469188D01*
X127350820Y-63505498D01*
X127240506Y-63564463D01*
X127143815Y-63643815D01*
X127070926Y-63732631D01*
X127001318Y-63675505D01*
X126773741Y-63553862D01*
X126526805Y-63478955D01*
X126334351Y-63460000D01*
X126205649Y-63460000D01*
X126013195Y-63478955D01*
X125766259Y-63553862D01*
X125538682Y-63675505D01*
X125339208Y-63839208D01*
X125270000Y-63923539D01*
X125200792Y-63839208D01*
X125001318Y-63675505D01*
X124773741Y-63553862D01*
X124526805Y-63478955D01*
X124334351Y-63460000D01*
X124205649Y-63460000D01*
X124013195Y-63478955D01*
X123766259Y-63553862D01*
X123538682Y-63675505D01*
X123339208Y-63839208D01*
X123270000Y-63923539D01*
X123200792Y-63839208D01*
X123001318Y-63675505D01*
X122773741Y-63553862D01*
X122526805Y-63478955D01*
X122334351Y-63460000D01*
X122205649Y-63460000D01*
X122013195Y-63478955D01*
X121766259Y-63553862D01*
X121538682Y-63675505D01*
X121339208Y-63839208D01*
X121270000Y-63923539D01*
X121200792Y-63839208D01*
X121001318Y-63675505D01*
X120773741Y-63553862D01*
X120526805Y-63478955D01*
X120334351Y-63460000D01*
X120205649Y-63460000D01*
X120013195Y-63478955D01*
X119766259Y-63553862D01*
X119538682Y-63675505D01*
X119339208Y-63839208D01*
X119270000Y-63923539D01*
X119200792Y-63839208D01*
X119001318Y-63675505D01*
X118773741Y-63553862D01*
X118526805Y-63478955D01*
X118334351Y-63460000D01*
X118205649Y-63460000D01*
X118013195Y-63478955D01*
X117766259Y-63553862D01*
X117538682Y-63675505D01*
X117339208Y-63839208D01*
X117270000Y-63923539D01*
X117200792Y-63839208D01*
X117001318Y-63675505D01*
X116773741Y-63553862D01*
X116526805Y-63478955D01*
X116334351Y-63460000D01*
X116205649Y-63460000D01*
X116050121Y-63475318D01*
X115383792Y-62808991D01*
X115359990Y-62779988D01*
X115244265Y-62685015D01*
X115112236Y-62614443D01*
X114968975Y-62570986D01*
X114857322Y-62559989D01*
X114857311Y-62559989D01*
X114819989Y-62556313D01*
X114782667Y-62559989D01*
X105640924Y-62559989D01*
X105603599Y-62556313D01*
X105566274Y-62559989D01*
X105566266Y-62559989D01*
X105454613Y-62570986D01*
X105311352Y-62614443D01*
X105179323Y-62685015D01*
X105063598Y-62779988D01*
X105039800Y-62808986D01*
X102469001Y-65379786D01*
X102469001Y-65029321D01*
X102472677Y-64991998D01*
X102469001Y-64954676D01*
X102469001Y-64954666D01*
X102458004Y-64843013D01*
X102414547Y-64699752D01*
X102394654Y-64662535D01*
X102343975Y-64567722D01*
X102272800Y-64480996D01*
X102249002Y-64451998D01*
X102220004Y-64428200D01*
X100787786Y-62995983D01*
X100763983Y-62966979D01*
X100648258Y-62872006D01*
X100516229Y-62801434D01*
X100372968Y-62757977D01*
X100261315Y-62746980D01*
X100261304Y-62746980D01*
X100223982Y-62743304D01*
X100186660Y-62746980D01*
X91568520Y-62746980D01*
X91531197Y-62743304D01*
X91493874Y-62746980D01*
X91493865Y-62746980D01*
X91382212Y-62757977D01*
X91238951Y-62801434D01*
X91106922Y-62872006D01*
X91106920Y-62872007D01*
X91106921Y-62872007D01*
X91034748Y-62931237D01*
X90973937Y-62840226D01*
X90829774Y-62696063D01*
X90660256Y-62582795D01*
X90471898Y-62504774D01*
X90271939Y-62465000D01*
X90068061Y-62465000D01*
X89868102Y-62504774D01*
X89679744Y-62582795D01*
X89510226Y-62696063D01*
X89366063Y-62840226D01*
X89252795Y-63009744D01*
X89174774Y-63198102D01*
X89135000Y-63398061D01*
X89135000Y-63460197D01*
X87590199Y-65005000D01*
X87528061Y-65005000D01*
X87328102Y-65044774D01*
X87139744Y-65122795D01*
X86970226Y-65236063D01*
X86826063Y-65380226D01*
X86712795Y-65549744D01*
X86634774Y-65738102D01*
X86595000Y-65938061D01*
X86595000Y-66141939D01*
X86634774Y-66341898D01*
X86712795Y-66530256D01*
X86826063Y-66699774D01*
X86970226Y-66843937D01*
X87059672Y-66903703D01*
X68984002Y-84979375D01*
X68954998Y-85003178D01*
X68915835Y-85050899D01*
X68860025Y-85118903D01*
X68807576Y-85217027D01*
X68789453Y-85250933D01*
X68745996Y-85394194D01*
X68734999Y-85505847D01*
X68734999Y-85505857D01*
X68731323Y-85543179D01*
X67437000Y-85543179D01*
X67437000Y-72798967D01*
X71375000Y-72798967D01*
X71375000Y-73121033D01*
X71437832Y-73436912D01*
X71561082Y-73734463D01*
X71740013Y-74002252D01*
X71967748Y-74229987D01*
X72235537Y-74408918D01*
X72533088Y-74532168D01*
X72848967Y-74595000D01*
X73171033Y-74595000D01*
X73486912Y-74532168D01*
X73784463Y-74408918D01*
X74052252Y-74229987D01*
X74279987Y-74002252D01*
X74458918Y-73734463D01*
X74582168Y-73436912D01*
X74645000Y-73121033D01*
X74645000Y-72798967D01*
X74582168Y-72483088D01*
X74458918Y-72185537D01*
X74279987Y-71917748D01*
X74052252Y-71690013D01*
X73784463Y-71511082D01*
X73486912Y-71387832D01*
X73171033Y-71325000D01*
X72848967Y-71325000D01*
X72533088Y-71387832D01*
X72235537Y-71511082D01*
X71967748Y-71690013D01*
X71740013Y-71917748D01*
X71561082Y-72185537D01*
X71437832Y-72483088D01*
X71375000Y-72798967D01*
X67437000Y-72798967D01*
X67437000Y-62357000D01*
X143383000Y-62357000D01*
X143383000Y-111633000D01*
X143383000Y-111633000D01*
G37*
X143383000Y-111633000D02*
X67437000Y-111633000D01*
X67437000Y-109297000D01*
X69885000Y-109297000D01*
X69885000Y-109697000D01*
X69933507Y-109935496D01*
X70027610Y-110159946D01*
X70163693Y-110361725D01*
X70336526Y-110533078D01*
X70539467Y-110667421D01*
X70764718Y-110759591D01*
X70802391Y-110763462D01*
X70993000Y-110638731D01*
X70993000Y-109297000D01*
X71247000Y-109297000D01*
X71247000Y-110638731D01*
X71437609Y-110763462D01*
X71475282Y-110759591D01*
X71700533Y-110667421D01*
X71903474Y-110533078D01*
X72076307Y-110361725D01*
X72212390Y-110159946D01*
X72306493Y-109935496D01*
X72355000Y-109697000D01*
X72355000Y-109297000D01*
X71247000Y-109297000D01*
X70993000Y-109297000D01*
X69885000Y-109297000D01*
X67437000Y-109297000D01*
X67437000Y-108643000D01*
X69885000Y-108643000D01*
X69885000Y-109043000D01*
X70993000Y-109043000D01*
X70993000Y-107701269D01*
X71247000Y-107701269D01*
X71247000Y-109043000D01*
X72355000Y-109043000D01*
X72355000Y-108643000D01*
X72306493Y-108404504D01*
X72212390Y-108180054D01*
X72076307Y-107978275D01*
X71903474Y-107806922D01*
X71700533Y-107672579D01*
X71475282Y-107580409D01*
X71437609Y-107576538D01*
X71247000Y-107701269D01*
X70993000Y-107701269D01*
X70802391Y-107576538D01*
X70764718Y-107580409D01*
X70539467Y-107672579D01*
X70336526Y-107806922D01*
X70163693Y-107978275D01*
X70027610Y-108180054D01*
X69933507Y-108404504D01*
X69885000Y-108643000D01*
X67437000Y-108643000D01*
X67437000Y-85543179D01*
X68731323Y-85543179D01*
X68734999Y-85580501D01*
X68735000Y-102280668D01*
X68731323Y-102318001D01*
X68735000Y-102355334D01*
X68745997Y-102466987D01*
X68747058Y-102470484D01*
X68789453Y-102610247D01*
X68860025Y-102742277D01*
X68928755Y-102826024D01*
X68954999Y-102858002D01*
X68983997Y-102881800D01*
X73633801Y-107531605D01*
X73417898Y-107552870D01*
X73185099Y-107623489D01*
X72970551Y-107738167D01*
X72782498Y-107892498D01*
X72628167Y-108080552D01*
X72513489Y-108295100D01*
X72442870Y-108527899D01*
X72425000Y-108709336D01*
X72425000Y-109630665D01*
X72442870Y-109812102D01*
X72513489Y-110044901D01*
X72628168Y-110259449D01*
X72782499Y-110447502D01*
X72970552Y-110601833D01*
X73185100Y-110716511D01*
X73417899Y-110787130D01*
X73660000Y-110810975D01*
X73902102Y-110787130D01*
X74134901Y-110716511D01*
X74349449Y-110601833D01*
X74537502Y-110447502D01*
X74691833Y-110259449D01*
X74806511Y-110044901D01*
X74877130Y-109812101D01*
X74895000Y-109630664D01*
X74895000Y-108709335D01*
X74877130Y-108527898D01*
X74806511Y-108295099D01*
X74736972Y-108165001D01*
X75123028Y-108165001D01*
X75053489Y-108295100D01*
X74982870Y-108527899D01*
X74965000Y-108709336D01*
X74965000Y-109630665D01*
X74982870Y-109812102D01*
X75053489Y-110044901D01*
X75168168Y-110259449D01*
X75322499Y-110447502D01*
X75510552Y-110601833D01*
X75725100Y-110716511D01*
X75957899Y-110787130D01*
X76200000Y-110810975D01*
X76442102Y-110787130D01*
X76674901Y-110716511D01*
X76889449Y-110601833D01*
X77077502Y-110447502D01*
X77231833Y-110259449D01*
X77346511Y-110044901D01*
X77417130Y-109812101D01*
X77435000Y-109630664D01*
X77435000Y-108709335D01*
X77417130Y-108527898D01*
X77346511Y-108295099D01*
X77276972Y-108165001D01*
X89655200Y-108165001D01*
X91221200Y-109731002D01*
X91244999Y-109760001D01*
X91360724Y-109854974D01*
X91396928Y-109874326D01*
X91396928Y-109895000D01*
X91409188Y-110019482D01*
X91445498Y-110139180D01*
X91504463Y-110249494D01*
X91583815Y-110346185D01*
X91680506Y-110425537D01*
X91790820Y-110484502D01*
X91910518Y-110520812D01*
X92035000Y-110533072D01*
X93385000Y-110533072D01*
X93509482Y-110520812D01*
X93629180Y-110484502D01*
X93739494Y-110425537D01*
X93836185Y-110346185D01*
X93909074Y-110257369D01*
X93978682Y-110314495D01*
X94206259Y-110436138D01*
X94453195Y-110511045D01*
X94645649Y-110530000D01*
X94774351Y-110530000D01*
X94966805Y-110511045D01*
X95213741Y-110436138D01*
X95441318Y-110314495D01*
X95640792Y-110150792D01*
X95710000Y-110066461D01*
X95779208Y-110150792D01*
X95978682Y-110314495D01*
X96206259Y-110436138D01*
X96453195Y-110511045D01*
X96645649Y-110530000D01*
X96774351Y-110530000D01*
X96929880Y-110514682D01*
X97146202Y-110731004D01*
X97170000Y-110760002D01*
X97198998Y-110783800D01*
X97285724Y-110854975D01*
X97417754Y-110925547D01*
X97561015Y-110969004D01*
X97672668Y-110980001D01*
X97672678Y-110980001D01*
X97710001Y-110983677D01*
X97747324Y-110980001D01*
X111102677Y-110980001D01*
X111139999Y-110983677D01*
X111177321Y-110980001D01*
X111177332Y-110980001D01*
X111288985Y-110969004D01*
X111432246Y-110925547D01*
X111564275Y-110854975D01*
X111680000Y-110760002D01*
X111703803Y-110730998D01*
X111920119Y-110514682D01*
X112075649Y-110530000D01*
X112204351Y-110530000D01*
X112396805Y-110511045D01*
X112643741Y-110436138D01*
X112871318Y-110314495D01*
X113070792Y-110150792D01*
X113234495Y-109951318D01*
X113356138Y-109723741D01*
X113431045Y-109476805D01*
X113456338Y-109220000D01*
X113431045Y-108963195D01*
X113356138Y-108716259D01*
X113234495Y-108488682D01*
X113070792Y-108289208D01*
X112871318Y-108125505D01*
X112643741Y-108003862D01*
X112396805Y-107928955D01*
X112204351Y-107910000D01*
X112075649Y-107910000D01*
X111883195Y-107928955D01*
X111636259Y-108003862D01*
X111408682Y-108125505D01*
X111209208Y-108289208D01*
X111140000Y-108373539D01*
X111070792Y-108289208D01*
X110871318Y-108125505D01*
X110643741Y-108003862D01*
X110396805Y-107928955D01*
X110204351Y-107910000D01*
X110075649Y-107910000D01*
X109883195Y-107928955D01*
X109636259Y-108003862D01*
X109408682Y-108125505D01*
X109209208Y-108289208D01*
X109140000Y-108373539D01*
X109070792Y-108289208D01*
X108871318Y-108125505D01*
X108643741Y-108003862D01*
X108396805Y-107928955D01*
X108204351Y-107910000D01*
X108075649Y-107910000D01*
X107883195Y-107928955D01*
X107636259Y-108003862D01*
X107408682Y-108125505D01*
X107209208Y-108289208D01*
X107140000Y-108373539D01*
X107070792Y-108289208D01*
X106871318Y-108125505D01*
X106643741Y-108003862D01*
X106396805Y-107928955D01*
X106204351Y-107910000D01*
X106075649Y-107910000D01*
X105883195Y-107928955D01*
X105636259Y-108003862D01*
X105408682Y-108125505D01*
X105339074Y-108182631D01*
X105266185Y-108093815D01*
X105169494Y-108014463D01*
X105059180Y-107955498D01*
X104939482Y-107919188D01*
X104815000Y-107906928D01*
X103465000Y-107906928D01*
X103340518Y-107919188D01*
X103220820Y-107955498D01*
X103110506Y-108014463D01*
X103013815Y-108093815D01*
X102934463Y-108190506D01*
X102875498Y-108300820D01*
X102839188Y-108420518D01*
X102835299Y-108460000D01*
X102281800Y-108460000D01*
X100789672Y-106967872D01*
X135941000Y-106967872D01*
X135941000Y-107408128D01*
X136026890Y-107839925D01*
X136195369Y-108246669D01*
X136439962Y-108612729D01*
X136751271Y-108924038D01*
X137117331Y-109168631D01*
X137524075Y-109337110D01*
X137955872Y-109423000D01*
X138396128Y-109423000D01*
X138827925Y-109337110D01*
X139234669Y-109168631D01*
X139600729Y-108924038D01*
X139912038Y-108612729D01*
X140156631Y-108246669D01*
X140325110Y-107839925D01*
X140411000Y-107408128D01*
X140411000Y-106967872D01*
X140325110Y-106536075D01*
X140156631Y-106129331D01*
X139912038Y-105763271D01*
X139600729Y-105451962D01*
X139234669Y-105207369D01*
X138827925Y-105038890D01*
X138396128Y-104953000D01*
X137955872Y-104953000D01*
X137524075Y-105038890D01*
X137117331Y-105207369D01*
X136751271Y-105451962D01*
X136439962Y-105763271D01*
X136195369Y-106129331D01*
X136026890Y-106536075D01*
X135941000Y-106967872D01*
X100789672Y-106967872D01*
X93639739Y-99817940D01*
X93765101Y-99750932D01*
X93983608Y-99571608D01*
X94162932Y-99353101D01*
X94296182Y-99103808D01*
X94378236Y-98833309D01*
X94405943Y-98552000D01*
X94378236Y-98270691D01*
X94296182Y-98000192D01*
X94162932Y-97750899D01*
X93983608Y-97532392D01*
X93765101Y-97353068D01*
X93632142Y-97282000D01*
X93765101Y-97210932D01*
X93983608Y-97031608D01*
X94162932Y-96813101D01*
X94296182Y-96563808D01*
X94378236Y-96293309D01*
X94405943Y-96012000D01*
X94378236Y-95730691D01*
X94296182Y-95460192D01*
X94162932Y-95210899D01*
X94073670Y-95102133D01*
X99674133Y-89501670D01*
X99782899Y-89590932D01*
X99915858Y-89662000D01*
X99782899Y-89733068D01*
X99564392Y-89912392D01*
X99385068Y-90130899D01*
X99251818Y-90380192D01*
X99169764Y-90650691D01*
X99142057Y-90932000D01*
X99169764Y-91213309D01*
X99251818Y-91483808D01*
X99385068Y-91733101D01*
X99474330Y-91841867D01*
X97279003Y-94037194D01*
X97249999Y-94060997D01*
X97212267Y-94106974D01*
X97155026Y-94176722D01*
X97103510Y-94273101D01*
X97084454Y-94308752D01*
X97040997Y-94452013D01*
X97030000Y-94563666D01*
X97030000Y-94563676D01*
X97026324Y-94600998D01*
X97030000Y-94638320D01*
X97030000Y-95212668D01*
X97030001Y-97385670D01*
X97026324Y-97423002D01*
X97030001Y-97460335D01*
X97040998Y-97571988D01*
X97047797Y-97594402D01*
X97084454Y-97715248D01*
X97155026Y-97847278D01*
X97191679Y-97891939D01*
X97250000Y-97963003D01*
X97278998Y-97986801D01*
X103943199Y-104651003D01*
X103966997Y-104680001D01*
X104082722Y-104774974D01*
X104214751Y-104845546D01*
X104358012Y-104889003D01*
X104469665Y-104900000D01*
X104469673Y-104900000D01*
X104506998Y-104903676D01*
X104544323Y-104900000D01*
X111056289Y-104900000D01*
X111100226Y-104943937D01*
X111269744Y-105057205D01*
X111458102Y-105135226D01*
X111658061Y-105175000D01*
X111861939Y-105175000D01*
X112061898Y-105135226D01*
X112250256Y-105057205D01*
X112419774Y-104943937D01*
X112563937Y-104799774D01*
X112677205Y-104630256D01*
X112755226Y-104441898D01*
X112795000Y-104241939D01*
X112795000Y-104038061D01*
X112755226Y-103838102D01*
X112677205Y-103649744D01*
X112563937Y-103480226D01*
X112419774Y-103336063D01*
X112250256Y-103222795D01*
X112061898Y-103144774D01*
X111861939Y-103105000D01*
X111658061Y-103105000D01*
X111458102Y-103144774D01*
X111269744Y-103222795D01*
X111100226Y-103336063D01*
X111056289Y-103380000D01*
X104821800Y-103380000D01*
X102806800Y-101365000D01*
X102971939Y-101365000D01*
X103171898Y-101325226D01*
X103360256Y-101247205D01*
X103529774Y-101133937D01*
X103573711Y-101090000D01*
X114262678Y-101090000D01*
X114300000Y-101093676D01*
X114337322Y-101090000D01*
X114337333Y-101090000D01*
X114448986Y-101079003D01*
X114592247Y-101035546D01*
X114724276Y-100964974D01*
X114840001Y-100870001D01*
X114863804Y-100840997D01*
X115609802Y-100095000D01*
X115671939Y-100095000D01*
X115871898Y-100055226D01*
X116060256Y-99977205D01*
X116229774Y-99863937D01*
X116373937Y-99719774D01*
X116487205Y-99550256D01*
X116565226Y-99361898D01*
X116605000Y-99161939D01*
X116605000Y-98958061D01*
X116565226Y-98758102D01*
X116487205Y-98569744D01*
X116373937Y-98400226D01*
X116229774Y-98256063D01*
X116060256Y-98142795D01*
X115871898Y-98064774D01*
X115671939Y-98025000D01*
X115609802Y-98025000D01*
X114334999Y-96750198D01*
X114334999Y-95015000D01*
X114401939Y-95015000D01*
X114601898Y-94975226D01*
X114790256Y-94897205D01*
X114959774Y-94783937D01*
X115003711Y-94740000D01*
X120612678Y-94740000D01*
X120650000Y-94743676D01*
X120687322Y-94740000D01*
X120687333Y-94740000D01*
X120798986Y-94729003D01*
X120942247Y-94685546D01*
X121074276Y-94614974D01*
X121190001Y-94520001D01*
X121213804Y-94490997D01*
X124194801Y-91510000D01*
X128971928Y-91510000D01*
X128971928Y-93910000D01*
X128984188Y-94034482D01*
X129020498Y-94154180D01*
X129079463Y-94264494D01*
X129158815Y-94361185D01*
X129255506Y-94440537D01*
X129365820Y-94499502D01*
X129485518Y-94535812D01*
X129610000Y-94548072D01*
X132010000Y-94548072D01*
X132134482Y-94535812D01*
X132254180Y-94499502D01*
X132364494Y-94440537D01*
X132461185Y-94361185D01*
X132540537Y-94264494D01*
X132599502Y-94154180D01*
X132635812Y-94034482D01*
X132648072Y-93910000D01*
X132648072Y-92529268D01*
X136475000Y-92529268D01*
X136475000Y-92890732D01*
X136545518Y-93245250D01*
X136683844Y-93579199D01*
X136884662Y-93879744D01*
X137140256Y-94135338D01*
X137440801Y-94336156D01*
X137774750Y-94474482D01*
X138129268Y-94545000D01*
X138490732Y-94545000D01*
X138845250Y-94474482D01*
X139179199Y-94336156D01*
X139479744Y-94135338D01*
X139735338Y-93879744D01*
X139936156Y-93579199D01*
X140074482Y-93245250D01*
X140145000Y-92890732D01*
X140145000Y-92529268D01*
X140074482Y-92174750D01*
X139936156Y-91840801D01*
X139735338Y-91540256D01*
X139479744Y-91284662D01*
X139179199Y-91083844D01*
X138845250Y-90945518D01*
X138490732Y-90875000D01*
X138129268Y-90875000D01*
X137774750Y-90945518D01*
X137440801Y-91083844D01*
X137140256Y-91284662D01*
X136884662Y-91540256D01*
X136683844Y-91840801D01*
X136545518Y-92174750D01*
X136475000Y-92529268D01*
X132648072Y-92529268D01*
X132648072Y-91510000D01*
X132635812Y-91385518D01*
X132599502Y-91265820D01*
X132540537Y-91155506D01*
X132461185Y-91058815D01*
X132364494Y-90979463D01*
X132254180Y-90920498D01*
X132134482Y-90884188D01*
X132010000Y-90871928D01*
X129610000Y-90871928D01*
X129485518Y-90884188D01*
X129365820Y-90920498D01*
X129255506Y-90979463D01*
X129158815Y-91058815D01*
X129079463Y-91155506D01*
X129020498Y-91265820D01*
X128984188Y-91385518D01*
X128971928Y-91510000D01*
X124194801Y-91510000D01*
X124499802Y-91205000D01*
X124561939Y-91205000D01*
X124761898Y-91165226D01*
X124950256Y-91087205D01*
X125119774Y-90973937D01*
X125263937Y-90829774D01*
X125377205Y-90660256D01*
X125455226Y-90471898D01*
X125495000Y-90271939D01*
X125495000Y-90068061D01*
X125455226Y-89868102D01*
X125377205Y-89679744D01*
X125263937Y-89510226D01*
X125119774Y-89366063D01*
X124950256Y-89252795D01*
X124761898Y-89174774D01*
X124561939Y-89135000D01*
X124358061Y-89135000D01*
X124158102Y-89174774D01*
X123969744Y-89252795D01*
X123800226Y-89366063D01*
X123656063Y-89510226D01*
X123542795Y-89679744D01*
X123464774Y-89868102D01*
X123425000Y-90068061D01*
X123425000Y-90130198D01*
X120335199Y-93220000D01*
X115003711Y-93220000D01*
X114959774Y-93176063D01*
X114790256Y-93062795D01*
X114601898Y-92984774D01*
X114488911Y-92962300D01*
X116147622Y-91303589D01*
X117995000Y-91303589D01*
X117995000Y-91576411D01*
X118048225Y-91843989D01*
X118152629Y-92096043D01*
X118304201Y-92322886D01*
X118497114Y-92515799D01*
X118723957Y-92667371D01*
X118976011Y-92771775D01*
X119243589Y-92825000D01*
X119516411Y-92825000D01*
X119783989Y-92771775D01*
X120036043Y-92667371D01*
X120262886Y-92515799D01*
X120455799Y-92322886D01*
X120607371Y-92096043D01*
X120711775Y-91843989D01*
X120765000Y-91576411D01*
X120765000Y-91303589D01*
X120711775Y-91036011D01*
X120607371Y-90783957D01*
X120455799Y-90557114D01*
X120262886Y-90364201D01*
X120036043Y-90212629D01*
X119783989Y-90108225D01*
X119516411Y-90055000D01*
X119243589Y-90055000D01*
X118976011Y-90108225D01*
X118723957Y-90212629D01*
X118497114Y-90364201D01*
X118304201Y-90557114D01*
X118152629Y-90783957D01*
X118048225Y-91036011D01*
X117995000Y-91303589D01*
X116147622Y-91303589D01*
X118606201Y-88845011D01*
X120045070Y-88845009D01*
X120082402Y-88848686D01*
X120119735Y-88845009D01*
X120231388Y-88834012D01*
X120289857Y-88816276D01*
X120374648Y-88790556D01*
X120506678Y-88719984D01*
X120593404Y-88648809D01*
X120593405Y-88648808D01*
X120622403Y-88625010D01*
X120646201Y-88596012D01*
X126966005Y-82276209D01*
X126995002Y-82252412D01*
X127040309Y-82197205D01*
X127089975Y-82136688D01*
X127160547Y-82004658D01*
X127169851Y-81973985D01*
X127204004Y-81861397D01*
X127215001Y-81749744D01*
X127215001Y-81749734D01*
X127218677Y-81712411D01*
X127215001Y-81675088D01*
X127215001Y-79699332D01*
X127218678Y-79661999D01*
X127214504Y-79619615D01*
X127204004Y-79513013D01*
X127160547Y-79369752D01*
X127089975Y-79237723D01*
X126995002Y-79121998D01*
X126965998Y-79098195D01*
X126641805Y-78774002D01*
X126618002Y-78744998D01*
X126502277Y-78650025D01*
X126370248Y-78579453D01*
X126226987Y-78535996D01*
X126115334Y-78524999D01*
X126115323Y-78524999D01*
X126078001Y-78521323D01*
X126040679Y-78524999D01*
X124434556Y-78524999D01*
X124397233Y-78521323D01*
X124359910Y-78524999D01*
X124359900Y-78524999D01*
X124248247Y-78535996D01*
X124104986Y-78579453D01*
X123972956Y-78650025D01*
X123907172Y-78704013D01*
X123857232Y-78744998D01*
X123833434Y-78773996D01*
X121765019Y-80842410D01*
X121765018Y-75516529D01*
X121768695Y-75479196D01*
X121754021Y-75330210D01*
X121710564Y-75186950D01*
X121639992Y-75054920D01*
X121568818Y-74968194D01*
X121568813Y-74968189D01*
X121545019Y-74939196D01*
X121516026Y-74915402D01*
X120664604Y-74063981D01*
X120640802Y-74034978D01*
X120525077Y-73940005D01*
X120393048Y-73869433D01*
X120249787Y-73825976D01*
X120138134Y-73814979D01*
X120138123Y-73814979D01*
X120100801Y-73811303D01*
X120063479Y-73814979D01*
X119134450Y-73814979D01*
X119145000Y-73761939D01*
X119145000Y-73730000D01*
X128971928Y-73730000D01*
X128971928Y-76130000D01*
X128984188Y-76254482D01*
X129020498Y-76374180D01*
X129079463Y-76484494D01*
X129158815Y-76581185D01*
X129255506Y-76660537D01*
X129365820Y-76719502D01*
X129485518Y-76755812D01*
X129610000Y-76768072D01*
X132010000Y-76768072D01*
X132134482Y-76755812D01*
X132254180Y-76719502D01*
X132364494Y-76660537D01*
X132461185Y-76581185D01*
X132540537Y-76484494D01*
X132599502Y-76374180D01*
X132635812Y-76254482D01*
X132648072Y-76130000D01*
X132648072Y-74749268D01*
X136475000Y-74749268D01*
X136475000Y-75110732D01*
X136545518Y-75465250D01*
X136683844Y-75799199D01*
X136884662Y-76099744D01*
X137140256Y-76355338D01*
X137440801Y-76556156D01*
X137774750Y-76694482D01*
X138129268Y-76765000D01*
X138490732Y-76765000D01*
X138845250Y-76694482D01*
X139179199Y-76556156D01*
X139479744Y-76355338D01*
X139735338Y-76099744D01*
X139936156Y-75799199D01*
X140074482Y-75465250D01*
X140145000Y-75110732D01*
X140145000Y-74749268D01*
X140074482Y-74394750D01*
X139936156Y-74060801D01*
X139735338Y-73760256D01*
X139479744Y-73504662D01*
X139179199Y-73303844D01*
X138845250Y-73165518D01*
X138490732Y-73095000D01*
X138129268Y-73095000D01*
X137774750Y-73165518D01*
X137440801Y-73303844D01*
X137140256Y-73504662D01*
X136884662Y-73760256D01*
X136683844Y-74060801D01*
X136545518Y-74394750D01*
X136475000Y-74749268D01*
X132648072Y-74749268D01*
X132648072Y-73730000D01*
X132635812Y-73605518D01*
X132599502Y-73485820D01*
X132540537Y-73375506D01*
X132461185Y-73278815D01*
X132364494Y-73199463D01*
X132254180Y-73140498D01*
X132134482Y-73104188D01*
X132010000Y-73091928D01*
X129610000Y-73091928D01*
X129485518Y-73104188D01*
X129365820Y-73140498D01*
X129255506Y-73199463D01*
X129158815Y-73278815D01*
X129079463Y-73375506D01*
X129020498Y-73485820D01*
X128984188Y-73605518D01*
X128971928Y-73730000D01*
X119145000Y-73730000D01*
X119145000Y-73558061D01*
X119105226Y-73358102D01*
X119027205Y-73169744D01*
X118913937Y-73000226D01*
X118860722Y-72947011D01*
X119348669Y-72947011D01*
X119385991Y-72950687D01*
X119423313Y-72947011D01*
X119423324Y-72947011D01*
X119534977Y-72936014D01*
X119678238Y-72892557D01*
X119810267Y-72821985D01*
X119925992Y-72727012D01*
X119949794Y-72698009D01*
X120616005Y-72031799D01*
X120645002Y-72008002D01*
X120739975Y-71892277D01*
X120810547Y-71760248D01*
X120854004Y-71616987D01*
X120865001Y-71505334D01*
X120865001Y-71505326D01*
X120868677Y-71468001D01*
X120865001Y-71430676D01*
X120865001Y-66642334D01*
X120868678Y-66605001D01*
X120854004Y-66456015D01*
X120810547Y-66312754D01*
X120739975Y-66180725D01*
X120668800Y-66093998D01*
X120645002Y-66065000D01*
X120616004Y-66041202D01*
X120610468Y-66035666D01*
X120773741Y-65986138D01*
X121001318Y-65864495D01*
X121200792Y-65700792D01*
X121270000Y-65616461D01*
X121339208Y-65700792D01*
X121538682Y-65864495D01*
X121766259Y-65986138D01*
X122013195Y-66061045D01*
X122205649Y-66080000D01*
X122334351Y-66080000D01*
X122526805Y-66061045D01*
X122773741Y-65986138D01*
X123001318Y-65864495D01*
X123200792Y-65700792D01*
X123270000Y-65616461D01*
X123339208Y-65700792D01*
X123538682Y-65864495D01*
X123766259Y-65986138D01*
X124013195Y-66061045D01*
X124205649Y-66080000D01*
X124334351Y-66080000D01*
X124526805Y-66061045D01*
X124773741Y-65986138D01*
X125001318Y-65864495D01*
X125200792Y-65700792D01*
X125270000Y-65616461D01*
X125339208Y-65700792D01*
X125538682Y-65864495D01*
X125766259Y-65986138D01*
X126013195Y-66061045D01*
X126205649Y-66080000D01*
X126334351Y-66080000D01*
X126526805Y-66061045D01*
X126773741Y-65986138D01*
X127001318Y-65864495D01*
X127070926Y-65807369D01*
X127143815Y-65896185D01*
X127240506Y-65975537D01*
X127350820Y-66034502D01*
X127470518Y-66070812D01*
X127595000Y-66083072D01*
X128945000Y-66083072D01*
X129069482Y-66070812D01*
X129189180Y-66034502D01*
X129299494Y-65975537D01*
X129396185Y-65896185D01*
X129475537Y-65799494D01*
X129534502Y-65689180D01*
X129570812Y-65569482D01*
X129583072Y-65445000D01*
X129583072Y-64095000D01*
X134576928Y-64095000D01*
X134576928Y-65445000D01*
X134589188Y-65569482D01*
X134625498Y-65689180D01*
X134684463Y-65799494D01*
X134763815Y-65896185D01*
X134860506Y-65975537D01*
X134970820Y-66034502D01*
X135090518Y-66070812D01*
X135215000Y-66083072D01*
X136565000Y-66083072D01*
X136689482Y-66070812D01*
X136809180Y-66034502D01*
X136919494Y-65975537D01*
X137016185Y-65896185D01*
X137089074Y-65807369D01*
X137158682Y-65864495D01*
X137386259Y-65986138D01*
X137633195Y-66061045D01*
X137825649Y-66080000D01*
X137954351Y-66080000D01*
X138146805Y-66061045D01*
X138393741Y-65986138D01*
X138621318Y-65864495D01*
X138820792Y-65700792D01*
X138890000Y-65616461D01*
X138959208Y-65700792D01*
X139158682Y-65864495D01*
X139386259Y-65986138D01*
X139633195Y-66061045D01*
X139825649Y-66080000D01*
X139954351Y-66080000D01*
X140146805Y-66061045D01*
X140393741Y-65986138D01*
X140621318Y-65864495D01*
X140820792Y-65700792D01*
X140984495Y-65501318D01*
X141106138Y-65273741D01*
X141181045Y-65026805D01*
X141206338Y-64770000D01*
X141181045Y-64513195D01*
X141106138Y-64266259D01*
X140984495Y-64038682D01*
X140820792Y-63839208D01*
X140621318Y-63675505D01*
X140393741Y-63553862D01*
X140146805Y-63478955D01*
X139954351Y-63460000D01*
X139825649Y-63460000D01*
X139633195Y-63478955D01*
X139386259Y-63553862D01*
X139158682Y-63675505D01*
X138959208Y-63839208D01*
X138890000Y-63923539D01*
X138820792Y-63839208D01*
X138621318Y-63675505D01*
X138393741Y-63553862D01*
X138146805Y-63478955D01*
X137954351Y-63460000D01*
X137825649Y-63460000D01*
X137633195Y-63478955D01*
X137386259Y-63553862D01*
X137158682Y-63675505D01*
X137089074Y-63732631D01*
X137016185Y-63643815D01*
X136919494Y-63564463D01*
X136809180Y-63505498D01*
X136689482Y-63469188D01*
X136565000Y-63456928D01*
X135215000Y-63456928D01*
X135090518Y-63469188D01*
X134970820Y-63505498D01*
X134860506Y-63564463D01*
X134763815Y-63643815D01*
X134684463Y-63740506D01*
X134625498Y-63850820D01*
X134589188Y-63970518D01*
X134576928Y-64095000D01*
X129583072Y-64095000D01*
X129570812Y-63970518D01*
X129534502Y-63850820D01*
X129475537Y-63740506D01*
X129396185Y-63643815D01*
X129299494Y-63564463D01*
X129189180Y-63505498D01*
X129069482Y-63469188D01*
X128945000Y-63456928D01*
X127595000Y-63456928D01*
X127470518Y-63469188D01*
X127350820Y-63505498D01*
X127240506Y-63564463D01*
X127143815Y-63643815D01*
X127070926Y-63732631D01*
X127001318Y-63675505D01*
X126773741Y-63553862D01*
X126526805Y-63478955D01*
X126334351Y-63460000D01*
X126205649Y-63460000D01*
X126013195Y-63478955D01*
X125766259Y-63553862D01*
X125538682Y-63675505D01*
X125339208Y-63839208D01*
X125270000Y-63923539D01*
X125200792Y-63839208D01*
X125001318Y-63675505D01*
X124773741Y-63553862D01*
X124526805Y-63478955D01*
X124334351Y-63460000D01*
X124205649Y-63460000D01*
X124013195Y-63478955D01*
X123766259Y-63553862D01*
X123538682Y-63675505D01*
X123339208Y-63839208D01*
X123270000Y-63923539D01*
X123200792Y-63839208D01*
X123001318Y-63675505D01*
X122773741Y-63553862D01*
X122526805Y-63478955D01*
X122334351Y-63460000D01*
X122205649Y-63460000D01*
X122013195Y-63478955D01*
X121766259Y-63553862D01*
X121538682Y-63675505D01*
X121339208Y-63839208D01*
X121270000Y-63923539D01*
X121200792Y-63839208D01*
X121001318Y-63675505D01*
X120773741Y-63553862D01*
X120526805Y-63478955D01*
X120334351Y-63460000D01*
X120205649Y-63460000D01*
X120013195Y-63478955D01*
X119766259Y-63553862D01*
X119538682Y-63675505D01*
X119339208Y-63839208D01*
X119270000Y-63923539D01*
X119200792Y-63839208D01*
X119001318Y-63675505D01*
X118773741Y-63553862D01*
X118526805Y-63478955D01*
X118334351Y-63460000D01*
X118205649Y-63460000D01*
X118013195Y-63478955D01*
X117766259Y-63553862D01*
X117538682Y-63675505D01*
X117339208Y-63839208D01*
X117270000Y-63923539D01*
X117200792Y-63839208D01*
X117001318Y-63675505D01*
X116773741Y-63553862D01*
X116526805Y-63478955D01*
X116334351Y-63460000D01*
X116205649Y-63460000D01*
X116050121Y-63475318D01*
X115383792Y-62808991D01*
X115359990Y-62779988D01*
X115244265Y-62685015D01*
X115112236Y-62614443D01*
X114968975Y-62570986D01*
X114857322Y-62559989D01*
X114857311Y-62559989D01*
X114819989Y-62556313D01*
X114782667Y-62559989D01*
X105640924Y-62559989D01*
X105603599Y-62556313D01*
X105566274Y-62559989D01*
X105566266Y-62559989D01*
X105454613Y-62570986D01*
X105311352Y-62614443D01*
X105179323Y-62685015D01*
X105063598Y-62779988D01*
X105039800Y-62808986D01*
X102469001Y-65379786D01*
X102469001Y-65029321D01*
X102472677Y-64991998D01*
X102469001Y-64954676D01*
X102469001Y-64954666D01*
X102458004Y-64843013D01*
X102414547Y-64699752D01*
X102394654Y-64662535D01*
X102343975Y-64567722D01*
X102272800Y-64480996D01*
X102249002Y-64451998D01*
X102220004Y-64428200D01*
X100787786Y-62995983D01*
X100763983Y-62966979D01*
X100648258Y-62872006D01*
X100516229Y-62801434D01*
X100372968Y-62757977D01*
X100261315Y-62746980D01*
X100261304Y-62746980D01*
X100223982Y-62743304D01*
X100186660Y-62746980D01*
X91568520Y-62746980D01*
X91531197Y-62743304D01*
X91493874Y-62746980D01*
X91493865Y-62746980D01*
X91382212Y-62757977D01*
X91238951Y-62801434D01*
X91106922Y-62872006D01*
X91106920Y-62872007D01*
X91106921Y-62872007D01*
X91034748Y-62931237D01*
X90973937Y-62840226D01*
X90829774Y-62696063D01*
X90660256Y-62582795D01*
X90471898Y-62504774D01*
X90271939Y-62465000D01*
X90068061Y-62465000D01*
X89868102Y-62504774D01*
X89679744Y-62582795D01*
X89510226Y-62696063D01*
X89366063Y-62840226D01*
X89252795Y-63009744D01*
X89174774Y-63198102D01*
X89135000Y-63398061D01*
X89135000Y-63460197D01*
X87590199Y-65005000D01*
X87528061Y-65005000D01*
X87328102Y-65044774D01*
X87139744Y-65122795D01*
X86970226Y-65236063D01*
X86826063Y-65380226D01*
X86712795Y-65549744D01*
X86634774Y-65738102D01*
X86595000Y-65938061D01*
X86595000Y-66141939D01*
X86634774Y-66341898D01*
X86712795Y-66530256D01*
X86826063Y-66699774D01*
X86970226Y-66843937D01*
X87059672Y-66903703D01*
X68984002Y-84979375D01*
X68954998Y-85003178D01*
X68915835Y-85050899D01*
X68860025Y-85118903D01*
X68807576Y-85217027D01*
X68789453Y-85250933D01*
X68745996Y-85394194D01*
X68734999Y-85505847D01*
X68734999Y-85505857D01*
X68731323Y-85543179D01*
X67437000Y-85543179D01*
X67437000Y-72798967D01*
X71375000Y-72798967D01*
X71375000Y-73121033D01*
X71437832Y-73436912D01*
X71561082Y-73734463D01*
X71740013Y-74002252D01*
X71967748Y-74229987D01*
X72235537Y-74408918D01*
X72533088Y-74532168D01*
X72848967Y-74595000D01*
X73171033Y-74595000D01*
X73486912Y-74532168D01*
X73784463Y-74408918D01*
X74052252Y-74229987D01*
X74279987Y-74002252D01*
X74458918Y-73734463D01*
X74582168Y-73436912D01*
X74645000Y-73121033D01*
X74645000Y-72798967D01*
X74582168Y-72483088D01*
X74458918Y-72185537D01*
X74279987Y-71917748D01*
X74052252Y-71690013D01*
X73784463Y-71511082D01*
X73486912Y-71387832D01*
X73171033Y-71325000D01*
X72848967Y-71325000D01*
X72533088Y-71387832D01*
X72235537Y-71511082D01*
X71967748Y-71690013D01*
X71740013Y-71917748D01*
X71561082Y-72185537D01*
X71437832Y-72483088D01*
X71375000Y-72798967D01*
X67437000Y-72798967D01*
X67437000Y-62357000D01*
X143383000Y-62357000D01*
X143383000Y-111633000D01*
G36*
X97030000Y-79167800D02*
G01*
X97030001Y-86888199D01*
X94193413Y-84051612D01*
X94195037Y-84049420D01*
X94315246Y-83795087D01*
X94355904Y-83661039D01*
X94233915Y-83439000D01*
X93091000Y-83439000D01*
X93091000Y-83459000D01*
X92837000Y-83459000D01*
X92837000Y-83439000D01*
X91694085Y-83439000D01*
X91572096Y-83661039D01*
X91612754Y-83795087D01*
X91732963Y-84049420D01*
X91734587Y-84051611D01*
X91291999Y-84494200D01*
X91263001Y-84517998D01*
X91239203Y-84546996D01*
X91239202Y-84546997D01*
X91168027Y-84633723D01*
X91097455Y-84765753D01*
X91075241Y-84838986D01*
X91060458Y-84887722D01*
X91053999Y-84909014D01*
X91039325Y-85057999D01*
X91043002Y-85095331D01*
X91043001Y-92032197D01*
X90130199Y-92945000D01*
X90068061Y-92945000D01*
X89868102Y-92984774D01*
X89679744Y-93062795D01*
X89510226Y-93176063D01*
X89366063Y-93320226D01*
X89252795Y-93489744D01*
X89174774Y-93678102D01*
X89135000Y-93878061D01*
X89135000Y-94081939D01*
X89174774Y-94281898D01*
X89252795Y-94470256D01*
X89265987Y-94490000D01*
X77899627Y-94490000D01*
X77834775Y-94333434D01*
X77623013Y-94016509D01*
X77353491Y-93746987D01*
X77036566Y-93535225D01*
X76684419Y-93389361D01*
X76310581Y-93315000D01*
X75929419Y-93315000D01*
X75555581Y-93389361D01*
X75254999Y-93513866D01*
X75254999Y-93459802D01*
X86057801Y-82657001D01*
X91694007Y-82657001D01*
X91612754Y-82828913D01*
X91572096Y-82962961D01*
X91694085Y-83185000D01*
X92837000Y-83185000D01*
X92837000Y-83165000D01*
X93091000Y-83165000D01*
X93091000Y-83185000D01*
X94233915Y-83185000D01*
X94355904Y-82962961D01*
X94315246Y-82828913D01*
X94195037Y-82574580D01*
X94069960Y-82405843D01*
X94600005Y-81875799D01*
X94629002Y-81852002D01*
X94679886Y-81790000D01*
X94723975Y-81736278D01*
X94794547Y-81604248D01*
X94804254Y-81572247D01*
X94838004Y-81460987D01*
X94849001Y-81349334D01*
X94849001Y-81349324D01*
X94852677Y-81312001D01*
X94849001Y-81274678D01*
X94849001Y-76986800D01*
X97030000Y-79167800D01*
X97030000Y-79167800D01*
G37*
X97030000Y-79167800D02*
X97030001Y-86888199D01*
X94193413Y-84051612D01*
X94195037Y-84049420D01*
X94315246Y-83795087D01*
X94355904Y-83661039D01*
X94233915Y-83439000D01*
X93091000Y-83439000D01*
X93091000Y-83459000D01*
X92837000Y-83459000D01*
X92837000Y-83439000D01*
X91694085Y-83439000D01*
X91572096Y-83661039D01*
X91612754Y-83795087D01*
X91732963Y-84049420D01*
X91734587Y-84051611D01*
X91291999Y-84494200D01*
X91263001Y-84517998D01*
X91239203Y-84546996D01*
X91239202Y-84546997D01*
X91168027Y-84633723D01*
X91097455Y-84765753D01*
X91075241Y-84838986D01*
X91060458Y-84887722D01*
X91053999Y-84909014D01*
X91039325Y-85057999D01*
X91043002Y-85095331D01*
X91043001Y-92032197D01*
X90130199Y-92945000D01*
X90068061Y-92945000D01*
X89868102Y-92984774D01*
X89679744Y-93062795D01*
X89510226Y-93176063D01*
X89366063Y-93320226D01*
X89252795Y-93489744D01*
X89174774Y-93678102D01*
X89135000Y-93878061D01*
X89135000Y-94081939D01*
X89174774Y-94281898D01*
X89252795Y-94470256D01*
X89265987Y-94490000D01*
X77899627Y-94490000D01*
X77834775Y-94333434D01*
X77623013Y-94016509D01*
X77353491Y-93746987D01*
X77036566Y-93535225D01*
X76684419Y-93389361D01*
X76310581Y-93315000D01*
X75929419Y-93315000D01*
X75555581Y-93389361D01*
X75254999Y-93513866D01*
X75254999Y-93459802D01*
X86057801Y-82657001D01*
X91694007Y-82657001D01*
X91612754Y-82828913D01*
X91572096Y-82962961D01*
X91694085Y-83185000D01*
X92837000Y-83185000D01*
X92837000Y-83165000D01*
X93091000Y-83165000D01*
X93091000Y-83185000D01*
X94233915Y-83185000D01*
X94355904Y-82962961D01*
X94315246Y-82828913D01*
X94195037Y-82574580D01*
X94069960Y-82405843D01*
X94600005Y-81875799D01*
X94629002Y-81852002D01*
X94679886Y-81790000D01*
X94723975Y-81736278D01*
X94794547Y-81604248D01*
X94804254Y-81572247D01*
X94838004Y-81460987D01*
X94849001Y-81349334D01*
X94849001Y-81349324D01*
X94852677Y-81312001D01*
X94849001Y-81274678D01*
X94849001Y-76986800D01*
X97030000Y-79167800D01*
G36*
X113540001Y-84331801D02*
G01*
X113540001Y-84386288D01*
X113496063Y-84430226D01*
X113382795Y-84599744D01*
X113304774Y-84788102D01*
X113265000Y-84988061D01*
X113265000Y-85191939D01*
X113304774Y-85391898D01*
X113382795Y-85580256D01*
X113496063Y-85749774D01*
X113640226Y-85893937D01*
X113809744Y-86007205D01*
X113998102Y-86085226D01*
X114198061Y-86125000D01*
X114401939Y-86125000D01*
X114601898Y-86085226D01*
X114620807Y-86077394D01*
X108710000Y-91988201D01*
X108710000Y-90873711D01*
X108753937Y-90829774D01*
X108867205Y-90660256D01*
X108945226Y-90471898D01*
X108985000Y-90271939D01*
X108985000Y-90068061D01*
X108945226Y-89868102D01*
X108867205Y-89679744D01*
X108753937Y-89510226D01*
X108682755Y-89439044D01*
X112271004Y-85850796D01*
X112300001Y-85826999D01*
X112336730Y-85782245D01*
X112394974Y-85711275D01*
X112465546Y-85579245D01*
X112476486Y-85543179D01*
X112509003Y-85435984D01*
X112520000Y-85324331D01*
X112520000Y-85324322D01*
X112523676Y-85286999D01*
X112520000Y-85249676D01*
X112520000Y-83311799D01*
X113540001Y-84331801D01*
X113540001Y-84331801D01*
G37*
X113540001Y-84331801D02*
X113540001Y-84386288D01*
X113496063Y-84430226D01*
X113382795Y-84599744D01*
X113304774Y-84788102D01*
X113265000Y-84988061D01*
X113265000Y-85191939D01*
X113304774Y-85391898D01*
X113382795Y-85580256D01*
X113496063Y-85749774D01*
X113640226Y-85893937D01*
X113809744Y-86007205D01*
X113998102Y-86085226D01*
X114198061Y-86125000D01*
X114401939Y-86125000D01*
X114601898Y-86085226D01*
X114620807Y-86077394D01*
X108710000Y-91988201D01*
X108710000Y-90873711D01*
X108753937Y-90829774D01*
X108867205Y-90660256D01*
X108945226Y-90471898D01*
X108985000Y-90271939D01*
X108985000Y-90068061D01*
X108945226Y-89868102D01*
X108867205Y-89679744D01*
X108753937Y-89510226D01*
X108682755Y-89439044D01*
X112271004Y-85850796D01*
X112300001Y-85826999D01*
X112336730Y-85782245D01*
X112394974Y-85711275D01*
X112465546Y-85579245D01*
X112476486Y-85543179D01*
X112509003Y-85435984D01*
X112520000Y-85324331D01*
X112520000Y-85324322D01*
X112523676Y-85286999D01*
X112520000Y-85249676D01*
X112520000Y-83311799D01*
X113540001Y-84331801D01*
G36*
X103222795Y-89390256D02*
G01*
X103336063Y-89559774D01*
X103480226Y-89703937D01*
X103649744Y-89817205D01*
X103796583Y-89878028D01*
X103212867Y-90461744D01*
X103171898Y-90444774D01*
X102971939Y-90405000D01*
X102768061Y-90405000D01*
X102568102Y-90444774D01*
X102379744Y-90522795D01*
X102210226Y-90636063D01*
X102066063Y-90780226D01*
X102018069Y-90852054D01*
X101998236Y-90650691D01*
X101984708Y-90606094D01*
X103216278Y-89374523D01*
X103222795Y-89390256D01*
X103222795Y-89390256D01*
G37*
X103222795Y-89390256D02*
X103336063Y-89559774D01*
X103480226Y-89703937D01*
X103649744Y-89817205D01*
X103796583Y-89878028D01*
X103212867Y-90461744D01*
X103171898Y-90444774D01*
X102971939Y-90405000D01*
X102768061Y-90405000D01*
X102568102Y-90444774D01*
X102379744Y-90522795D01*
X102210226Y-90636063D01*
X102066063Y-90780226D01*
X102018069Y-90852054D01*
X101998236Y-90650691D01*
X101984708Y-90606094D01*
X103216278Y-89374523D01*
X103222795Y-89390256D01*
G36*
X107910199Y-72625000D02*
G01*
X107848061Y-72625000D01*
X107648102Y-72664774D01*
X107459744Y-72742795D01*
X107290226Y-72856063D01*
X107146063Y-73000226D01*
X107032795Y-73169744D01*
X106954774Y-73358102D01*
X106915000Y-73558061D01*
X106915000Y-73761939D01*
X106954774Y-73961898D01*
X107032795Y-74150256D01*
X107146063Y-74319774D01*
X107290226Y-74463937D01*
X107438911Y-74563285D01*
X102903997Y-79098200D01*
X102874999Y-79121998D01*
X102851201Y-79150996D01*
X102851200Y-79150997D01*
X102780025Y-79237723D01*
X102709453Y-79369753D01*
X102679179Y-79469557D01*
X102665997Y-79513013D01*
X102655000Y-79624666D01*
X102651323Y-79661999D01*
X102655000Y-79699331D01*
X102654999Y-87786199D01*
X102023402Y-88417796D01*
X102025943Y-88392000D01*
X101998236Y-88110691D01*
X101984708Y-88066094D01*
X102220005Y-87830797D01*
X102249002Y-87807000D01*
X102343975Y-87691275D01*
X102414547Y-87559246D01*
X102458004Y-87415985D01*
X102469001Y-87304332D01*
X102469001Y-87304324D01*
X102472677Y-87266999D01*
X102469001Y-87229674D01*
X102469001Y-85349322D01*
X102472677Y-85311999D01*
X102469001Y-85274676D01*
X102469001Y-85274666D01*
X102458004Y-85163013D01*
X102414547Y-85019752D01*
X102397608Y-84988061D01*
X102343975Y-84887722D01*
X102272800Y-84800996D01*
X102249002Y-84771998D01*
X102220003Y-84748199D01*
X101693670Y-84221867D01*
X101782932Y-84113101D01*
X101916182Y-83863808D01*
X101998236Y-83593309D01*
X102025943Y-83312000D01*
X101998236Y-83030691D01*
X101916182Y-82760192D01*
X101782932Y-82510899D01*
X101603608Y-82292392D01*
X101385101Y-82113068D01*
X101247318Y-82039421D01*
X101439131Y-81924385D01*
X101647519Y-81735414D01*
X101815037Y-81509420D01*
X101935246Y-81255087D01*
X101975904Y-81121039D01*
X101853915Y-80899000D01*
X100711000Y-80899000D01*
X100711000Y-80919000D01*
X100457000Y-80919000D01*
X100457000Y-80899000D01*
X100437000Y-80899000D01*
X100437000Y-80645000D01*
X100457000Y-80645000D01*
X100457000Y-80625000D01*
X100711000Y-80625000D01*
X100711000Y-80645000D01*
X101853915Y-80645000D01*
X101975904Y-80422961D01*
X101935246Y-80288913D01*
X101815037Y-80034580D01*
X101647519Y-79808586D01*
X101439131Y-79619615D01*
X101247318Y-79504579D01*
X101385101Y-79430932D01*
X101603608Y-79251608D01*
X101782932Y-79033101D01*
X101916182Y-78783808D01*
X101998236Y-78513309D01*
X102025943Y-78232000D01*
X101998236Y-77950691D01*
X101916182Y-77680192D01*
X101782932Y-77430899D01*
X101603608Y-77212392D01*
X101385101Y-77033068D01*
X101252142Y-76962000D01*
X101385101Y-76890932D01*
X101603608Y-76711608D01*
X101782932Y-76493101D01*
X101916182Y-76243808D01*
X101998236Y-75973309D01*
X102025943Y-75692000D01*
X101998236Y-75410691D01*
X101916182Y-75140192D01*
X101782932Y-74890899D01*
X101603608Y-74672392D01*
X101385101Y-74493068D01*
X101252142Y-74422000D01*
X101385101Y-74350932D01*
X101603608Y-74171608D01*
X101782932Y-73953101D01*
X101916182Y-73703808D01*
X101998236Y-73433309D01*
X102025943Y-73152000D01*
X101998236Y-72870691D01*
X101916182Y-72600192D01*
X101861025Y-72497001D01*
X108038198Y-72497001D01*
X107910199Y-72625000D01*
X107910199Y-72625000D01*
G37*
X107910199Y-72625000D02*
X107848061Y-72625000D01*
X107648102Y-72664774D01*
X107459744Y-72742795D01*
X107290226Y-72856063D01*
X107146063Y-73000226D01*
X107032795Y-73169744D01*
X106954774Y-73358102D01*
X106915000Y-73558061D01*
X106915000Y-73761939D01*
X106954774Y-73961898D01*
X107032795Y-74150256D01*
X107146063Y-74319774D01*
X107290226Y-74463937D01*
X107438911Y-74563285D01*
X102903997Y-79098200D01*
X102874999Y-79121998D01*
X102851201Y-79150996D01*
X102851200Y-79150997D01*
X102780025Y-79237723D01*
X102709453Y-79369753D01*
X102679179Y-79469557D01*
X102665997Y-79513013D01*
X102655000Y-79624666D01*
X102651323Y-79661999D01*
X102655000Y-79699331D01*
X102654999Y-87786199D01*
X102023402Y-88417796D01*
X102025943Y-88392000D01*
X101998236Y-88110691D01*
X101984708Y-88066094D01*
X102220005Y-87830797D01*
X102249002Y-87807000D01*
X102343975Y-87691275D01*
X102414547Y-87559246D01*
X102458004Y-87415985D01*
X102469001Y-87304332D01*
X102469001Y-87304324D01*
X102472677Y-87266999D01*
X102469001Y-87229674D01*
X102469001Y-85349322D01*
X102472677Y-85311999D01*
X102469001Y-85274676D01*
X102469001Y-85274666D01*
X102458004Y-85163013D01*
X102414547Y-85019752D01*
X102397608Y-84988061D01*
X102343975Y-84887722D01*
X102272800Y-84800996D01*
X102249002Y-84771998D01*
X102220003Y-84748199D01*
X101693670Y-84221867D01*
X101782932Y-84113101D01*
X101916182Y-83863808D01*
X101998236Y-83593309D01*
X102025943Y-83312000D01*
X101998236Y-83030691D01*
X101916182Y-82760192D01*
X101782932Y-82510899D01*
X101603608Y-82292392D01*
X101385101Y-82113068D01*
X101247318Y-82039421D01*
X101439131Y-81924385D01*
X101647519Y-81735414D01*
X101815037Y-81509420D01*
X101935246Y-81255087D01*
X101975904Y-81121039D01*
X101853915Y-80899000D01*
X100711000Y-80899000D01*
X100711000Y-80919000D01*
X100457000Y-80919000D01*
X100457000Y-80899000D01*
X100437000Y-80899000D01*
X100437000Y-80645000D01*
X100457000Y-80645000D01*
X100457000Y-80625000D01*
X100711000Y-80625000D01*
X100711000Y-80645000D01*
X101853915Y-80645000D01*
X101975904Y-80422961D01*
X101935246Y-80288913D01*
X101815037Y-80034580D01*
X101647519Y-79808586D01*
X101439131Y-79619615D01*
X101247318Y-79504579D01*
X101385101Y-79430932D01*
X101603608Y-79251608D01*
X101782932Y-79033101D01*
X101916182Y-78783808D01*
X101998236Y-78513309D01*
X102025943Y-78232000D01*
X101998236Y-77950691D01*
X101916182Y-77680192D01*
X101782932Y-77430899D01*
X101603608Y-77212392D01*
X101385101Y-77033068D01*
X101252142Y-76962000D01*
X101385101Y-76890932D01*
X101603608Y-76711608D01*
X101782932Y-76493101D01*
X101916182Y-76243808D01*
X101998236Y-75973309D01*
X102025943Y-75692000D01*
X101998236Y-75410691D01*
X101916182Y-75140192D01*
X101782932Y-74890899D01*
X101603608Y-74672392D01*
X101385101Y-74493068D01*
X101252142Y-74422000D01*
X101385101Y-74350932D01*
X101603608Y-74171608D01*
X101782932Y-73953101D01*
X101916182Y-73703808D01*
X101998236Y-73433309D01*
X102025943Y-73152000D01*
X101998236Y-72870691D01*
X101916182Y-72600192D01*
X101861025Y-72497001D01*
X108038198Y-72497001D01*
X107910199Y-72625000D01*
G36*
X109180199Y-80245000D02*
G01*
X109118061Y-80245000D01*
X108918102Y-80284774D01*
X108729744Y-80362795D01*
X108560226Y-80476063D01*
X108416063Y-80620226D01*
X108302795Y-80789744D01*
X108224774Y-80978102D01*
X108185000Y-81178061D01*
X108185000Y-81381939D01*
X108224774Y-81581898D01*
X108302795Y-81770256D01*
X108416063Y-81939774D01*
X108560226Y-82083937D01*
X108590819Y-82104379D01*
X107504379Y-83190820D01*
X107483937Y-83160226D01*
X107339774Y-83016063D01*
X107170256Y-82902795D01*
X106981898Y-82824774D01*
X106781939Y-82785000D01*
X106578061Y-82785000D01*
X106378102Y-82824774D01*
X106189744Y-82902795D01*
X106020226Y-83016063D01*
X105876063Y-83160226D01*
X105762795Y-83329744D01*
X105684774Y-83518102D01*
X105645000Y-83718061D01*
X105645000Y-83780198D01*
X104899003Y-84526196D01*
X104869999Y-84549999D01*
X104843225Y-84582624D01*
X104775026Y-84665724D01*
X104704455Y-84797753D01*
X104704454Y-84797754D01*
X104660997Y-84941015D01*
X104650000Y-85052668D01*
X104650000Y-85052678D01*
X104646324Y-85090000D01*
X104650000Y-85127323D01*
X104650001Y-87995988D01*
X104630256Y-87982795D01*
X104441898Y-87904774D01*
X104241939Y-87865000D01*
X104174999Y-87865000D01*
X104174999Y-81045000D01*
X104241939Y-81045000D01*
X104441898Y-81005226D01*
X104630256Y-80927205D01*
X104799774Y-80813937D01*
X104943937Y-80669774D01*
X105057205Y-80500256D01*
X105135226Y-80311898D01*
X105175000Y-80111939D01*
X105175000Y-80049801D01*
X109889824Y-75334979D01*
X114090218Y-75334979D01*
X109180199Y-80245000D01*
X109180199Y-80245000D01*
G37*
X109180199Y-80245000D02*
X109118061Y-80245000D01*
X108918102Y-80284774D01*
X108729744Y-80362795D01*
X108560226Y-80476063D01*
X108416063Y-80620226D01*
X108302795Y-80789744D01*
X108224774Y-80978102D01*
X108185000Y-81178061D01*
X108185000Y-81381939D01*
X108224774Y-81581898D01*
X108302795Y-81770256D01*
X108416063Y-81939774D01*
X108560226Y-82083937D01*
X108590819Y-82104379D01*
X107504379Y-83190820D01*
X107483937Y-83160226D01*
X107339774Y-83016063D01*
X107170256Y-82902795D01*
X106981898Y-82824774D01*
X106781939Y-82785000D01*
X106578061Y-82785000D01*
X106378102Y-82824774D01*
X106189744Y-82902795D01*
X106020226Y-83016063D01*
X105876063Y-83160226D01*
X105762795Y-83329744D01*
X105684774Y-83518102D01*
X105645000Y-83718061D01*
X105645000Y-83780198D01*
X104899003Y-84526196D01*
X104869999Y-84549999D01*
X104843225Y-84582624D01*
X104775026Y-84665724D01*
X104704455Y-84797753D01*
X104704454Y-84797754D01*
X104660997Y-84941015D01*
X104650000Y-85052668D01*
X104650000Y-85052678D01*
X104646324Y-85090000D01*
X104650000Y-85127323D01*
X104650001Y-87995988D01*
X104630256Y-87982795D01*
X104441898Y-87904774D01*
X104241939Y-87865000D01*
X104174999Y-87865000D01*
X104174999Y-81045000D01*
X104241939Y-81045000D01*
X104441898Y-81005226D01*
X104630256Y-80927205D01*
X104799774Y-80813937D01*
X104943937Y-80669774D01*
X105057205Y-80500256D01*
X105135226Y-80311898D01*
X105175000Y-80111939D01*
X105175000Y-80049801D01*
X109889824Y-75334979D01*
X114090218Y-75334979D01*
X109180199Y-80245000D01*
G36*
X117114774Y-75898102D02*
G01*
X117075000Y-76098061D01*
X117075000Y-76301939D01*
X117114774Y-76501898D01*
X117192795Y-76690256D01*
X117306063Y-76859774D01*
X117450226Y-77003937D01*
X117619744Y-77117205D01*
X117808102Y-77195226D01*
X118008061Y-77235000D01*
X118211939Y-77235000D01*
X118411898Y-77195226D01*
X118600256Y-77117205D01*
X118620001Y-77104012D01*
X118620000Y-82078200D01*
X115287394Y-85410807D01*
X115295226Y-85391898D01*
X115335000Y-85191939D01*
X115335000Y-84988061D01*
X115295226Y-84788102D01*
X115217205Y-84599744D01*
X115103937Y-84430226D01*
X115060000Y-84386289D01*
X115060000Y-84054323D01*
X115063676Y-84016998D01*
X115060000Y-83979673D01*
X115060000Y-83979665D01*
X115049003Y-83868012D01*
X115005546Y-83724751D01*
X114934974Y-83592722D01*
X114840001Y-83476997D01*
X114811003Y-83453199D01*
X112671805Y-81314002D01*
X112648002Y-81284998D01*
X112532277Y-81190025D01*
X112400248Y-81119453D01*
X112256987Y-81075996D01*
X112145334Y-81064999D01*
X112145323Y-81064999D01*
X112108001Y-81061323D01*
X112070679Y-81064999D01*
X110509802Y-81064999D01*
X115789814Y-75784989D01*
X117161627Y-75784989D01*
X117114774Y-75898102D01*
X117114774Y-75898102D01*
G37*
X117114774Y-75898102D02*
X117075000Y-76098061D01*
X117075000Y-76301939D01*
X117114774Y-76501898D01*
X117192795Y-76690256D01*
X117306063Y-76859774D01*
X117450226Y-77003937D01*
X117619744Y-77117205D01*
X117808102Y-77195226D01*
X118008061Y-77235000D01*
X118211939Y-77235000D01*
X118411898Y-77195226D01*
X118600256Y-77117205D01*
X118620001Y-77104012D01*
X118620000Y-82078200D01*
X115287394Y-85410807D01*
X115295226Y-85391898D01*
X115335000Y-85191939D01*
X115335000Y-84988061D01*
X115295226Y-84788102D01*
X115217205Y-84599744D01*
X115103937Y-84430226D01*
X115060000Y-84386289D01*
X115060000Y-84054323D01*
X115063676Y-84016998D01*
X115060000Y-83979673D01*
X115060000Y-83979665D01*
X115049003Y-83868012D01*
X115005546Y-83724751D01*
X114934974Y-83592722D01*
X114840001Y-83476997D01*
X114811003Y-83453199D01*
X112671805Y-81314002D01*
X112648002Y-81284998D01*
X112532277Y-81190025D01*
X112400248Y-81119453D01*
X112256987Y-81075996D01*
X112145334Y-81064999D01*
X112145323Y-81064999D01*
X112108001Y-81061323D01*
X112070679Y-81064999D01*
X110509802Y-81064999D01*
X115789814Y-75784989D01*
X117161627Y-75784989D01*
X117114774Y-75898102D01*
M02*
