G04 #@! TF.GenerationSoftware,KiCad,Pcbnew,(5.1.0)-1*
G04 #@! TF.CreationDate,2019-11-07T23:05:45-05:00*
G04 #@! TF.ProjectId,ocarina v1.0,6f636172-696e-4612-9076-312e302e6b69,rev?*
G04 #@! TF.SameCoordinates,Original*
G04 #@! TF.FileFunction,Soldermask,Bot*
G04 #@! TF.FilePolarity,Negative*
%FSLAX46Y46*%
G04 Gerber Fmt 4.6, Leading zero omitted, Abs format (unit mm)*
G04 Created by KiCad (PCBNEW (5.1.0)-1) date 2019-11-07 23:05:45*
%MOMM*%
%LPD*%
G04 APERTURE LIST*
%ADD10C,0.100000*%
G04 APERTURE END LIST*
D10*
G36*
X71247617Y-108128420D02*
G01*
X71338403Y-108155960D01*
X71370335Y-108165646D01*
X71483424Y-108226094D01*
X71582554Y-108307447D01*
X71663906Y-108406575D01*
X71724354Y-108519664D01*
X71732349Y-108546019D01*
X71761580Y-108642382D01*
X71771000Y-108738027D01*
X71771000Y-109601973D01*
X71761580Y-109697618D01*
X71734040Y-109788404D01*
X71724354Y-109820336D01*
X71663906Y-109933425D01*
X71582554Y-110032554D01*
X71483425Y-110113906D01*
X71370336Y-110174354D01*
X71338404Y-110184040D01*
X71247618Y-110211580D01*
X71120000Y-110224149D01*
X70992383Y-110211580D01*
X70901597Y-110184040D01*
X70869665Y-110174354D01*
X70756576Y-110113906D01*
X70657447Y-110032554D01*
X70576095Y-109933425D01*
X70515647Y-109820336D01*
X70511282Y-109805946D01*
X70478420Y-109697618D01*
X70469000Y-109601973D01*
X70469000Y-108738028D01*
X70478420Y-108642383D01*
X70515645Y-108519669D01*
X70515646Y-108519665D01*
X70576094Y-108406576D01*
X70657447Y-108307446D01*
X70756575Y-108226094D01*
X70869664Y-108165646D01*
X70901596Y-108155960D01*
X70992382Y-108128420D01*
X71120000Y-108115851D01*
X71247617Y-108128420D01*
X71247617Y-108128420D01*
G37*
G36*
X73787617Y-108128420D02*
G01*
X73878403Y-108155960D01*
X73910335Y-108165646D01*
X74023424Y-108226094D01*
X74122554Y-108307447D01*
X74203906Y-108406575D01*
X74264354Y-108519664D01*
X74272349Y-108546019D01*
X74301580Y-108642382D01*
X74311000Y-108738027D01*
X74311000Y-109601973D01*
X74301580Y-109697618D01*
X74274040Y-109788404D01*
X74264354Y-109820336D01*
X74203906Y-109933425D01*
X74122554Y-110032554D01*
X74023425Y-110113906D01*
X73910336Y-110174354D01*
X73878404Y-110184040D01*
X73787618Y-110211580D01*
X73660000Y-110224149D01*
X73532383Y-110211580D01*
X73441597Y-110184040D01*
X73409665Y-110174354D01*
X73296576Y-110113906D01*
X73197447Y-110032554D01*
X73116095Y-109933425D01*
X73055647Y-109820336D01*
X73051282Y-109805946D01*
X73018420Y-109697618D01*
X73009000Y-109601973D01*
X73009000Y-108738028D01*
X73018420Y-108642383D01*
X73055645Y-108519669D01*
X73055646Y-108519665D01*
X73116094Y-108406576D01*
X73197447Y-108307446D01*
X73296575Y-108226094D01*
X73409664Y-108165646D01*
X73441596Y-108155960D01*
X73532382Y-108128420D01*
X73660000Y-108115851D01*
X73787617Y-108128420D01*
X73787617Y-108128420D01*
G37*
G36*
X76327617Y-108128420D02*
G01*
X76418403Y-108155960D01*
X76450335Y-108165646D01*
X76563424Y-108226094D01*
X76662554Y-108307447D01*
X76743906Y-108406575D01*
X76804354Y-108519664D01*
X76812349Y-108546019D01*
X76841580Y-108642382D01*
X76851000Y-108738027D01*
X76851000Y-109601973D01*
X76841580Y-109697618D01*
X76814040Y-109788404D01*
X76804354Y-109820336D01*
X76743906Y-109933425D01*
X76662554Y-110032554D01*
X76563425Y-110113906D01*
X76450336Y-110174354D01*
X76418404Y-110184040D01*
X76327618Y-110211580D01*
X76200000Y-110224149D01*
X76072383Y-110211580D01*
X75981597Y-110184040D01*
X75949665Y-110174354D01*
X75836576Y-110113906D01*
X75737447Y-110032554D01*
X75656095Y-109933425D01*
X75595647Y-109820336D01*
X75591282Y-109805946D01*
X75558420Y-109697618D01*
X75549000Y-109601973D01*
X75549000Y-108738028D01*
X75558420Y-108642383D01*
X75595645Y-108519669D01*
X75595646Y-108519665D01*
X75656094Y-108406576D01*
X75737447Y-108307446D01*
X75836575Y-108226094D01*
X75949664Y-108165646D01*
X75981596Y-108155960D01*
X76072382Y-108128420D01*
X76200000Y-108115851D01*
X76327617Y-108128420D01*
X76327617Y-108128420D01*
G37*
G36*
X96781213Y-108497502D02*
G01*
X96852321Y-108504505D01*
X96989172Y-108546019D01*
X96989175Y-108546020D01*
X97115294Y-108613432D01*
X97225843Y-108704157D01*
X97316568Y-108814706D01*
X97383980Y-108940825D01*
X97383981Y-108940828D01*
X97425495Y-109077679D01*
X97439512Y-109220000D01*
X97425495Y-109362321D01*
X97383981Y-109499172D01*
X97383980Y-109499175D01*
X97316568Y-109625294D01*
X97225843Y-109735843D01*
X97115294Y-109826568D01*
X96989175Y-109893980D01*
X96989172Y-109893981D01*
X96852321Y-109935495D01*
X96781213Y-109942498D01*
X96745660Y-109946000D01*
X96674340Y-109946000D01*
X96638787Y-109942498D01*
X96567679Y-109935495D01*
X96430828Y-109893981D01*
X96430825Y-109893980D01*
X96304706Y-109826568D01*
X96194157Y-109735843D01*
X96103432Y-109625294D01*
X96036020Y-109499175D01*
X96036019Y-109499172D01*
X95994505Y-109362321D01*
X95980488Y-109220000D01*
X95994505Y-109077679D01*
X96036019Y-108940828D01*
X96036020Y-108940825D01*
X96103432Y-108814706D01*
X96194157Y-108704157D01*
X96304706Y-108613432D01*
X96430825Y-108546020D01*
X96430828Y-108546019D01*
X96567679Y-108504505D01*
X96638787Y-108497502D01*
X96674340Y-108494000D01*
X96745660Y-108494000D01*
X96781213Y-108497502D01*
X96781213Y-108497502D01*
G37*
G36*
X94781213Y-108497502D02*
G01*
X94852321Y-108504505D01*
X94989172Y-108546019D01*
X94989175Y-108546020D01*
X95115294Y-108613432D01*
X95225843Y-108704157D01*
X95316568Y-108814706D01*
X95383980Y-108940825D01*
X95383981Y-108940828D01*
X95425495Y-109077679D01*
X95439512Y-109220000D01*
X95425495Y-109362321D01*
X95383981Y-109499172D01*
X95383980Y-109499175D01*
X95316568Y-109625294D01*
X95225843Y-109735843D01*
X95115294Y-109826568D01*
X94989175Y-109893980D01*
X94989172Y-109893981D01*
X94852321Y-109935495D01*
X94781213Y-109942498D01*
X94745660Y-109946000D01*
X94674340Y-109946000D01*
X94638787Y-109942498D01*
X94567679Y-109935495D01*
X94430828Y-109893981D01*
X94430825Y-109893980D01*
X94304706Y-109826568D01*
X94194157Y-109735843D01*
X94103432Y-109625294D01*
X94036020Y-109499175D01*
X94036019Y-109499172D01*
X93994505Y-109362321D01*
X93980488Y-109220000D01*
X93994505Y-109077679D01*
X94036019Y-108940828D01*
X94036020Y-108940825D01*
X94103432Y-108814706D01*
X94194157Y-108704157D01*
X94304706Y-108613432D01*
X94430825Y-108546020D01*
X94430828Y-108546019D01*
X94567679Y-108504505D01*
X94638787Y-108497502D01*
X94674340Y-108494000D01*
X94745660Y-108494000D01*
X94781213Y-108497502D01*
X94781213Y-108497502D01*
G37*
G36*
X93436000Y-109946000D02*
G01*
X91984000Y-109946000D01*
X91984000Y-108494000D01*
X93436000Y-108494000D01*
X93436000Y-109946000D01*
X93436000Y-109946000D01*
G37*
G36*
X104866000Y-109946000D02*
G01*
X103414000Y-109946000D01*
X103414000Y-108494000D01*
X104866000Y-108494000D01*
X104866000Y-109946000D01*
X104866000Y-109946000D01*
G37*
G36*
X106211213Y-108497502D02*
G01*
X106282321Y-108504505D01*
X106419172Y-108546019D01*
X106419175Y-108546020D01*
X106545294Y-108613432D01*
X106655843Y-108704157D01*
X106746568Y-108814706D01*
X106813980Y-108940825D01*
X106813981Y-108940828D01*
X106855495Y-109077679D01*
X106869512Y-109220000D01*
X106855495Y-109362321D01*
X106813981Y-109499172D01*
X106813980Y-109499175D01*
X106746568Y-109625294D01*
X106655843Y-109735843D01*
X106545294Y-109826568D01*
X106419175Y-109893980D01*
X106419172Y-109893981D01*
X106282321Y-109935495D01*
X106211213Y-109942498D01*
X106175660Y-109946000D01*
X106104340Y-109946000D01*
X106068787Y-109942498D01*
X105997679Y-109935495D01*
X105860828Y-109893981D01*
X105860825Y-109893980D01*
X105734706Y-109826568D01*
X105624157Y-109735843D01*
X105533432Y-109625294D01*
X105466020Y-109499175D01*
X105466019Y-109499172D01*
X105424505Y-109362321D01*
X105410488Y-109220000D01*
X105424505Y-109077679D01*
X105466019Y-108940828D01*
X105466020Y-108940825D01*
X105533432Y-108814706D01*
X105624157Y-108704157D01*
X105734706Y-108613432D01*
X105860825Y-108546020D01*
X105860828Y-108546019D01*
X105997679Y-108504505D01*
X106068787Y-108497502D01*
X106104340Y-108494000D01*
X106175660Y-108494000D01*
X106211213Y-108497502D01*
X106211213Y-108497502D01*
G37*
G36*
X108211213Y-108497502D02*
G01*
X108282321Y-108504505D01*
X108419172Y-108546019D01*
X108419175Y-108546020D01*
X108545294Y-108613432D01*
X108655843Y-108704157D01*
X108746568Y-108814706D01*
X108813980Y-108940825D01*
X108813981Y-108940828D01*
X108855495Y-109077679D01*
X108869512Y-109220000D01*
X108855495Y-109362321D01*
X108813981Y-109499172D01*
X108813980Y-109499175D01*
X108746568Y-109625294D01*
X108655843Y-109735843D01*
X108545294Y-109826568D01*
X108419175Y-109893980D01*
X108419172Y-109893981D01*
X108282321Y-109935495D01*
X108211213Y-109942498D01*
X108175660Y-109946000D01*
X108104340Y-109946000D01*
X108068787Y-109942498D01*
X107997679Y-109935495D01*
X107860828Y-109893981D01*
X107860825Y-109893980D01*
X107734706Y-109826568D01*
X107624157Y-109735843D01*
X107533432Y-109625294D01*
X107466020Y-109499175D01*
X107466019Y-109499172D01*
X107424505Y-109362321D01*
X107410488Y-109220000D01*
X107424505Y-109077679D01*
X107466019Y-108940828D01*
X107466020Y-108940825D01*
X107533432Y-108814706D01*
X107624157Y-108704157D01*
X107734706Y-108613432D01*
X107860825Y-108546020D01*
X107860828Y-108546019D01*
X107997679Y-108504505D01*
X108068787Y-108497502D01*
X108104340Y-108494000D01*
X108175660Y-108494000D01*
X108211213Y-108497502D01*
X108211213Y-108497502D01*
G37*
G36*
X112211213Y-108497502D02*
G01*
X112282321Y-108504505D01*
X112419172Y-108546019D01*
X112419175Y-108546020D01*
X112545294Y-108613432D01*
X112655843Y-108704157D01*
X112746568Y-108814706D01*
X112813980Y-108940825D01*
X112813981Y-108940828D01*
X112855495Y-109077679D01*
X112869512Y-109220000D01*
X112855495Y-109362321D01*
X112813981Y-109499172D01*
X112813980Y-109499175D01*
X112746568Y-109625294D01*
X112655843Y-109735843D01*
X112545294Y-109826568D01*
X112419175Y-109893980D01*
X112419172Y-109893981D01*
X112282321Y-109935495D01*
X112211213Y-109942498D01*
X112175660Y-109946000D01*
X112104340Y-109946000D01*
X112068787Y-109942498D01*
X111997679Y-109935495D01*
X111860828Y-109893981D01*
X111860825Y-109893980D01*
X111734706Y-109826568D01*
X111624157Y-109735843D01*
X111533432Y-109625294D01*
X111466020Y-109499175D01*
X111466019Y-109499172D01*
X111424505Y-109362321D01*
X111410488Y-109220000D01*
X111424505Y-109077679D01*
X111466019Y-108940828D01*
X111466020Y-108940825D01*
X111533432Y-108814706D01*
X111624157Y-108704157D01*
X111734706Y-108613432D01*
X111860825Y-108546020D01*
X111860828Y-108546019D01*
X111997679Y-108504505D01*
X112068787Y-108497502D01*
X112104340Y-108494000D01*
X112175660Y-108494000D01*
X112211213Y-108497502D01*
X112211213Y-108497502D01*
G37*
G36*
X110211213Y-108497502D02*
G01*
X110282321Y-108504505D01*
X110419172Y-108546019D01*
X110419175Y-108546020D01*
X110545294Y-108613432D01*
X110655843Y-108704157D01*
X110746568Y-108814706D01*
X110813980Y-108940825D01*
X110813981Y-108940828D01*
X110855495Y-109077679D01*
X110869512Y-109220000D01*
X110855495Y-109362321D01*
X110813981Y-109499172D01*
X110813980Y-109499175D01*
X110746568Y-109625294D01*
X110655843Y-109735843D01*
X110545294Y-109826568D01*
X110419175Y-109893980D01*
X110419172Y-109893981D01*
X110282321Y-109935495D01*
X110211213Y-109942498D01*
X110175660Y-109946000D01*
X110104340Y-109946000D01*
X110068787Y-109942498D01*
X109997679Y-109935495D01*
X109860828Y-109893981D01*
X109860825Y-109893980D01*
X109734706Y-109826568D01*
X109624157Y-109735843D01*
X109533432Y-109625294D01*
X109466020Y-109499175D01*
X109466019Y-109499172D01*
X109424505Y-109362321D01*
X109410488Y-109220000D01*
X109424505Y-109077679D01*
X109466019Y-108940828D01*
X109466020Y-108940825D01*
X109533432Y-108814706D01*
X109624157Y-108704157D01*
X109734706Y-108613432D01*
X109860825Y-108546020D01*
X109860828Y-108546019D01*
X109997679Y-108504505D01*
X110068787Y-108497502D01*
X110104340Y-108494000D01*
X110175660Y-108494000D01*
X110211213Y-108497502D01*
X110211213Y-108497502D01*
G37*
G36*
X138551256Y-105579298D02*
G01*
X138657579Y-105600447D01*
X138958042Y-105724903D01*
X139228451Y-105905585D01*
X139458415Y-106135549D01*
X139639097Y-106405958D01*
X139763553Y-106706421D01*
X139827000Y-107025391D01*
X139827000Y-107350609D01*
X139763553Y-107669579D01*
X139639097Y-107970042D01*
X139458415Y-108240451D01*
X139228451Y-108470415D01*
X138958042Y-108651097D01*
X138657579Y-108775553D01*
X138551256Y-108796702D01*
X138338611Y-108839000D01*
X138013389Y-108839000D01*
X137800744Y-108796702D01*
X137694421Y-108775553D01*
X137393958Y-108651097D01*
X137123549Y-108470415D01*
X136893585Y-108240451D01*
X136712903Y-107970042D01*
X136588447Y-107669579D01*
X136525000Y-107350609D01*
X136525000Y-107025391D01*
X136588447Y-106706421D01*
X136712903Y-106405958D01*
X136893585Y-106135549D01*
X137123549Y-105905585D01*
X137393958Y-105724903D01*
X137694421Y-105600447D01*
X137800744Y-105579298D01*
X138013389Y-105537000D01*
X138338611Y-105537000D01*
X138551256Y-105579298D01*
X138551256Y-105579298D01*
G37*
G36*
X73787617Y-100608420D02*
G01*
X73878403Y-100635960D01*
X73910335Y-100645646D01*
X74023424Y-100706094D01*
X74122554Y-100787447D01*
X74203906Y-100886575D01*
X74264354Y-100999664D01*
X74274040Y-101031596D01*
X74301580Y-101122382D01*
X74311000Y-101218027D01*
X74311000Y-102081973D01*
X74301580Y-102177618D01*
X74274040Y-102268404D01*
X74264354Y-102300336D01*
X74203906Y-102413425D01*
X74122554Y-102512554D01*
X74023425Y-102593906D01*
X73910336Y-102654354D01*
X73878404Y-102664040D01*
X73787618Y-102691580D01*
X73660000Y-102704149D01*
X73532383Y-102691580D01*
X73441597Y-102664040D01*
X73409665Y-102654354D01*
X73296576Y-102593906D01*
X73197447Y-102512554D01*
X73116095Y-102413425D01*
X73055647Y-102300336D01*
X73051282Y-102285946D01*
X73018420Y-102177618D01*
X73009000Y-102081973D01*
X73009000Y-101218028D01*
X73018420Y-101122383D01*
X73055645Y-100999669D01*
X73055646Y-100999665D01*
X73116094Y-100886576D01*
X73197447Y-100787446D01*
X73296575Y-100706094D01*
X73409664Y-100645646D01*
X73441596Y-100635960D01*
X73532382Y-100608420D01*
X73660000Y-100595851D01*
X73787617Y-100608420D01*
X73787617Y-100608420D01*
G37*
G36*
X76327617Y-100608420D02*
G01*
X76418403Y-100635960D01*
X76450335Y-100645646D01*
X76563424Y-100706094D01*
X76662554Y-100787447D01*
X76743906Y-100886575D01*
X76804354Y-100999664D01*
X76814040Y-101031596D01*
X76841580Y-101122382D01*
X76851000Y-101218027D01*
X76851000Y-102081973D01*
X76841580Y-102177618D01*
X76814040Y-102268404D01*
X76804354Y-102300336D01*
X76743906Y-102413425D01*
X76662554Y-102512554D01*
X76563425Y-102593906D01*
X76450336Y-102654354D01*
X76418404Y-102664040D01*
X76327618Y-102691580D01*
X76200000Y-102704149D01*
X76072383Y-102691580D01*
X75981597Y-102664040D01*
X75949665Y-102654354D01*
X75836576Y-102593906D01*
X75737447Y-102512554D01*
X75656095Y-102413425D01*
X75595647Y-102300336D01*
X75591282Y-102285946D01*
X75558420Y-102177618D01*
X75549000Y-102081973D01*
X75549000Y-101218028D01*
X75558420Y-101122383D01*
X75595645Y-100999669D01*
X75595646Y-100999665D01*
X75656094Y-100886576D01*
X75737447Y-100787446D01*
X75836575Y-100706094D01*
X75949664Y-100645646D01*
X75981596Y-100635960D01*
X76072382Y-100608420D01*
X76200000Y-100595851D01*
X76327617Y-100608420D01*
X76327617Y-100608420D01*
G37*
G36*
X71247617Y-100608420D02*
G01*
X71338403Y-100635960D01*
X71370335Y-100645646D01*
X71483424Y-100706094D01*
X71582554Y-100787447D01*
X71663906Y-100886575D01*
X71724354Y-100999664D01*
X71734040Y-101031596D01*
X71761580Y-101122382D01*
X71771000Y-101218027D01*
X71771000Y-102081973D01*
X71761580Y-102177618D01*
X71734040Y-102268404D01*
X71724354Y-102300336D01*
X71663906Y-102413425D01*
X71582554Y-102512554D01*
X71483425Y-102593906D01*
X71370336Y-102654354D01*
X71338404Y-102664040D01*
X71247618Y-102691580D01*
X71120000Y-102704149D01*
X70992383Y-102691580D01*
X70901597Y-102664040D01*
X70869665Y-102654354D01*
X70756576Y-102593906D01*
X70657447Y-102512554D01*
X70576095Y-102413425D01*
X70515647Y-102300336D01*
X70511282Y-102285946D01*
X70478420Y-102177618D01*
X70469000Y-102081973D01*
X70469000Y-101218028D01*
X70478420Y-101122383D01*
X70515645Y-100999669D01*
X70515646Y-100999665D01*
X70576094Y-100886576D01*
X70657447Y-100787446D01*
X70756575Y-100706094D01*
X70869664Y-100645646D01*
X70901596Y-100635960D01*
X70992382Y-100608420D01*
X71120000Y-100595851D01*
X71247617Y-100608420D01*
X71247617Y-100608420D01*
G37*
G36*
X87663642Y-98289781D02*
G01*
X87809414Y-98350162D01*
X87809416Y-98350163D01*
X87940608Y-98437822D01*
X88052178Y-98549392D01*
X88139837Y-98680584D01*
X88139838Y-98680586D01*
X88200219Y-98826358D01*
X88231000Y-98981107D01*
X88231000Y-99138893D01*
X88200219Y-99293642D01*
X88180178Y-99342024D01*
X88139837Y-99439416D01*
X88052178Y-99570608D01*
X87940608Y-99682178D01*
X87809416Y-99769837D01*
X87809415Y-99769838D01*
X87809414Y-99769838D01*
X87663642Y-99830219D01*
X87508893Y-99861000D01*
X87351107Y-99861000D01*
X87196358Y-99830219D01*
X87050586Y-99769838D01*
X87050585Y-99769838D01*
X87050584Y-99769837D01*
X86919392Y-99682178D01*
X86807822Y-99570608D01*
X86720163Y-99439416D01*
X86679822Y-99342024D01*
X86659781Y-99293642D01*
X86629000Y-99138893D01*
X86629000Y-98981107D01*
X86659781Y-98826358D01*
X86720162Y-98680586D01*
X86720163Y-98680584D01*
X86807822Y-98549392D01*
X86919392Y-98437822D01*
X87050584Y-98350163D01*
X87050586Y-98350162D01*
X87196358Y-98289781D01*
X87351107Y-98259000D01*
X87508893Y-98259000D01*
X87663642Y-98289781D01*
X87663642Y-98289781D01*
G37*
G36*
X82783642Y-98289781D02*
G01*
X82929414Y-98350162D01*
X82929416Y-98350163D01*
X83060608Y-98437822D01*
X83172178Y-98549392D01*
X83259837Y-98680584D01*
X83259838Y-98680586D01*
X83320219Y-98826358D01*
X83351000Y-98981107D01*
X83351000Y-99138893D01*
X83320219Y-99293642D01*
X83300178Y-99342024D01*
X83259837Y-99439416D01*
X83172178Y-99570608D01*
X83060608Y-99682178D01*
X82929416Y-99769837D01*
X82929415Y-99769838D01*
X82929414Y-99769838D01*
X82783642Y-99830219D01*
X82628893Y-99861000D01*
X82471107Y-99861000D01*
X82316358Y-99830219D01*
X82170586Y-99769838D01*
X82170585Y-99769838D01*
X82170584Y-99769837D01*
X82039392Y-99682178D01*
X81927822Y-99570608D01*
X81840163Y-99439416D01*
X81799822Y-99342024D01*
X81779781Y-99293642D01*
X81749000Y-99138893D01*
X81749000Y-98981107D01*
X81779781Y-98826358D01*
X81840162Y-98680586D01*
X81840163Y-98680584D01*
X81927822Y-98549392D01*
X82039392Y-98437822D01*
X82170584Y-98350163D01*
X82170586Y-98350162D01*
X82316358Y-98289781D01*
X82471107Y-98259000D01*
X82628893Y-98259000D01*
X82783642Y-98289781D01*
X82783642Y-98289781D01*
G37*
G36*
X93130823Y-97713313D02*
G01*
X93291242Y-97761976D01*
X93423906Y-97832886D01*
X93439078Y-97840996D01*
X93568659Y-97947341D01*
X93675004Y-98076922D01*
X93675005Y-98076924D01*
X93754024Y-98224758D01*
X93802687Y-98385177D01*
X93819117Y-98552000D01*
X93802687Y-98718823D01*
X93754024Y-98879242D01*
X93699576Y-98981107D01*
X93675004Y-99027078D01*
X93568659Y-99156659D01*
X93439078Y-99263004D01*
X93439076Y-99263005D01*
X93291242Y-99342024D01*
X93130823Y-99390687D01*
X93005804Y-99403000D01*
X92922196Y-99403000D01*
X92797177Y-99390687D01*
X92636758Y-99342024D01*
X92488924Y-99263005D01*
X92488922Y-99263004D01*
X92359341Y-99156659D01*
X92252996Y-99027078D01*
X92228424Y-98981107D01*
X92173976Y-98879242D01*
X92125313Y-98718823D01*
X92108883Y-98552000D01*
X92125313Y-98385177D01*
X92173976Y-98224758D01*
X92252995Y-98076924D01*
X92252996Y-98076922D01*
X92359341Y-97947341D01*
X92488922Y-97840996D01*
X92504094Y-97832886D01*
X92636758Y-97761976D01*
X92797177Y-97713313D01*
X92922196Y-97701000D01*
X93005804Y-97701000D01*
X93130823Y-97713313D01*
X93130823Y-97713313D01*
G37*
G36*
X100750823Y-97713313D02*
G01*
X100911242Y-97761976D01*
X101043906Y-97832886D01*
X101059078Y-97840996D01*
X101188659Y-97947341D01*
X101295004Y-98076922D01*
X101295005Y-98076924D01*
X101374024Y-98224758D01*
X101422687Y-98385177D01*
X101439117Y-98552000D01*
X101422687Y-98718823D01*
X101374024Y-98879242D01*
X101319576Y-98981107D01*
X101295004Y-99027078D01*
X101188659Y-99156659D01*
X101059078Y-99263004D01*
X101059076Y-99263005D01*
X100911242Y-99342024D01*
X100750823Y-99390687D01*
X100625804Y-99403000D01*
X100542196Y-99403000D01*
X100417177Y-99390687D01*
X100256758Y-99342024D01*
X100108924Y-99263005D01*
X100108922Y-99263004D01*
X99979341Y-99156659D01*
X99872996Y-99027078D01*
X99848424Y-98981107D01*
X99793976Y-98879242D01*
X99745313Y-98718823D01*
X99728883Y-98552000D01*
X99745313Y-98385177D01*
X99793976Y-98224758D01*
X99872995Y-98076924D01*
X99872996Y-98076922D01*
X99979341Y-97947341D01*
X100108922Y-97840996D01*
X100124094Y-97832886D01*
X100256758Y-97761976D01*
X100417177Y-97713313D01*
X100542196Y-97701000D01*
X100625804Y-97701000D01*
X100750823Y-97713313D01*
X100750823Y-97713313D01*
G37*
G36*
X93130823Y-95173313D02*
G01*
X93291242Y-95221976D01*
X93423906Y-95292886D01*
X93439078Y-95300996D01*
X93568659Y-95407341D01*
X93675004Y-95536922D01*
X93675005Y-95536924D01*
X93754024Y-95684758D01*
X93802687Y-95845177D01*
X93819117Y-96012000D01*
X93802687Y-96178823D01*
X93754024Y-96339242D01*
X93696297Y-96447241D01*
X93675004Y-96487078D01*
X93568659Y-96616659D01*
X93439078Y-96723004D01*
X93439076Y-96723005D01*
X93291242Y-96802024D01*
X93130823Y-96850687D01*
X93005804Y-96863000D01*
X92922196Y-96863000D01*
X92797177Y-96850687D01*
X92636758Y-96802024D01*
X92488924Y-96723005D01*
X92488922Y-96723004D01*
X92359341Y-96616659D01*
X92252996Y-96487078D01*
X92231703Y-96447241D01*
X92173976Y-96339242D01*
X92125313Y-96178823D01*
X92108883Y-96012000D01*
X92125313Y-95845177D01*
X92173976Y-95684758D01*
X92252995Y-95536924D01*
X92252996Y-95536922D01*
X92359341Y-95407341D01*
X92488922Y-95300996D01*
X92504094Y-95292886D01*
X92636758Y-95221976D01*
X92797177Y-95173313D01*
X92922196Y-95161000D01*
X93005804Y-95161000D01*
X93130823Y-95173313D01*
X93130823Y-95173313D01*
G37*
G36*
X100750823Y-95173313D02*
G01*
X100911242Y-95221976D01*
X101043906Y-95292886D01*
X101059078Y-95300996D01*
X101188659Y-95407341D01*
X101295004Y-95536922D01*
X101295005Y-95536924D01*
X101374024Y-95684758D01*
X101422687Y-95845177D01*
X101439117Y-96012000D01*
X101422687Y-96178823D01*
X101374024Y-96339242D01*
X101316297Y-96447241D01*
X101295004Y-96487078D01*
X101188659Y-96616659D01*
X101059078Y-96723004D01*
X101059076Y-96723005D01*
X100911242Y-96802024D01*
X100750823Y-96850687D01*
X100625804Y-96863000D01*
X100542196Y-96863000D01*
X100417177Y-96850687D01*
X100256758Y-96802024D01*
X100108924Y-96723005D01*
X100108922Y-96723004D01*
X99979341Y-96616659D01*
X99872996Y-96487078D01*
X99851703Y-96447241D01*
X99793976Y-96339242D01*
X99745313Y-96178823D01*
X99728883Y-96012000D01*
X99745313Y-95845177D01*
X99793976Y-95684758D01*
X99872995Y-95536924D01*
X99872996Y-95536922D01*
X99979341Y-95407341D01*
X100108922Y-95300996D01*
X100124094Y-95292886D01*
X100256758Y-95221976D01*
X100417177Y-95173313D01*
X100542196Y-95161000D01*
X100625804Y-95161000D01*
X100750823Y-95173313D01*
X100750823Y-95173313D01*
G37*
G36*
X76494757Y-93947076D02*
G01*
X76514072Y-93950918D01*
X76759939Y-94052759D01*
X76871328Y-94127187D01*
X76954865Y-94183005D01*
X76981212Y-94200610D01*
X77169390Y-94388788D01*
X77317241Y-94610061D01*
X77419082Y-94855928D01*
X77471000Y-95116938D01*
X77471000Y-95383062D01*
X77419082Y-95644072D01*
X77317241Y-95889939D01*
X77169390Y-96111212D01*
X76981212Y-96299390D01*
X76759939Y-96447241D01*
X76759938Y-96447242D01*
X76759937Y-96447242D01*
X76514072Y-96549082D01*
X76253063Y-96601000D01*
X75986937Y-96601000D01*
X75725928Y-96549082D01*
X75480063Y-96447242D01*
X75480062Y-96447242D01*
X75480061Y-96447241D01*
X75258788Y-96299390D01*
X75070610Y-96111212D01*
X74922759Y-95889939D01*
X74820918Y-95644072D01*
X74769000Y-95383062D01*
X74769000Y-95116938D01*
X74820918Y-94855928D01*
X74922759Y-94610061D01*
X75070610Y-94388788D01*
X75258788Y-94200610D01*
X75285136Y-94183005D01*
X75368672Y-94127187D01*
X75480061Y-94052759D01*
X75725928Y-93950918D01*
X75745243Y-93947076D01*
X75986937Y-93899000D01*
X76253063Y-93899000D01*
X76494757Y-93947076D01*
X76494757Y-93947076D01*
G37*
G36*
X71494757Y-93947076D02*
G01*
X71514072Y-93950918D01*
X71759939Y-94052759D01*
X71871328Y-94127187D01*
X71954865Y-94183005D01*
X71981212Y-94200610D01*
X72169390Y-94388788D01*
X72317241Y-94610061D01*
X72419082Y-94855928D01*
X72471000Y-95116938D01*
X72471000Y-95383062D01*
X72419082Y-95644072D01*
X72317241Y-95889939D01*
X72169390Y-96111212D01*
X71981212Y-96299390D01*
X71759939Y-96447241D01*
X71759938Y-96447242D01*
X71759937Y-96447242D01*
X71514072Y-96549082D01*
X71253063Y-96601000D01*
X70986937Y-96601000D01*
X70725928Y-96549082D01*
X70480063Y-96447242D01*
X70480062Y-96447242D01*
X70480061Y-96447241D01*
X70258788Y-96299390D01*
X70070610Y-96111212D01*
X69922759Y-95889939D01*
X69820918Y-95644072D01*
X69769000Y-95383062D01*
X69769000Y-95116938D01*
X69820918Y-94855928D01*
X69922759Y-94610061D01*
X70070610Y-94388788D01*
X70258788Y-94200610D01*
X70285136Y-94183005D01*
X70368672Y-94127187D01*
X70480061Y-94052759D01*
X70725928Y-93950918D01*
X70745243Y-93947076D01*
X70986937Y-93899000D01*
X71253063Y-93899000D01*
X71494757Y-93947076D01*
X71494757Y-93947076D01*
G37*
G36*
X100750823Y-92633313D02*
G01*
X100911242Y-92681976D01*
X101043906Y-92752886D01*
X101059078Y-92760996D01*
X101188659Y-92867341D01*
X101295004Y-92996922D01*
X101295005Y-92996924D01*
X101374024Y-93144758D01*
X101422687Y-93305177D01*
X101439117Y-93472000D01*
X101422687Y-93638823D01*
X101374024Y-93799242D01*
X101320702Y-93899000D01*
X101295004Y-93947078D01*
X101188659Y-94076659D01*
X101059078Y-94183004D01*
X101059076Y-94183005D01*
X100911242Y-94262024D01*
X100750823Y-94310687D01*
X100625804Y-94323000D01*
X100542196Y-94323000D01*
X100417177Y-94310687D01*
X100256758Y-94262024D01*
X100108924Y-94183005D01*
X100108922Y-94183004D01*
X99979341Y-94076659D01*
X99872996Y-93947078D01*
X99847298Y-93899000D01*
X99793976Y-93799242D01*
X99745313Y-93638823D01*
X99728883Y-93472000D01*
X99745313Y-93305177D01*
X99793976Y-93144758D01*
X99872995Y-92996924D01*
X99872996Y-92996922D01*
X99979341Y-92867341D01*
X100108922Y-92760996D01*
X100124094Y-92752886D01*
X100256758Y-92681976D01*
X100417177Y-92633313D01*
X100542196Y-92621000D01*
X100625804Y-92621000D01*
X100750823Y-92633313D01*
X100750823Y-92633313D01*
G37*
G36*
X93130823Y-92633313D02*
G01*
X93291242Y-92681976D01*
X93423906Y-92752886D01*
X93439078Y-92760996D01*
X93568659Y-92867341D01*
X93675004Y-92996922D01*
X93675005Y-92996924D01*
X93754024Y-93144758D01*
X93802687Y-93305177D01*
X93819117Y-93472000D01*
X93802687Y-93638823D01*
X93754024Y-93799242D01*
X93700702Y-93899000D01*
X93675004Y-93947078D01*
X93568659Y-94076659D01*
X93439078Y-94183004D01*
X93439076Y-94183005D01*
X93291242Y-94262024D01*
X93130823Y-94310687D01*
X93005804Y-94323000D01*
X92922196Y-94323000D01*
X92797177Y-94310687D01*
X92636758Y-94262024D01*
X92488924Y-94183005D01*
X92488922Y-94183004D01*
X92359341Y-94076659D01*
X92252996Y-93947078D01*
X92227298Y-93899000D01*
X92173976Y-93799242D01*
X92125313Y-93638823D01*
X92108883Y-93472000D01*
X92125313Y-93305177D01*
X92173976Y-93144758D01*
X92252995Y-92996924D01*
X92252996Y-92996922D01*
X92359341Y-92867341D01*
X92488922Y-92760996D01*
X92504094Y-92752886D01*
X92636758Y-92681976D01*
X92797177Y-92633313D01*
X92922196Y-92621000D01*
X93005804Y-92621000D01*
X93130823Y-92633313D01*
X93130823Y-92633313D01*
G37*
G36*
X138674903Y-91507075D02*
G01*
X138902571Y-91601378D01*
X139107466Y-91738285D01*
X139281715Y-91912534D01*
X139418622Y-92117429D01*
X139512925Y-92345097D01*
X139561000Y-92586787D01*
X139561000Y-92833213D01*
X139512925Y-93074903D01*
X139418622Y-93302571D01*
X139281715Y-93507466D01*
X139107466Y-93681715D01*
X138902571Y-93818622D01*
X138902570Y-93818623D01*
X138902569Y-93818623D01*
X138674903Y-93912925D01*
X138433214Y-93961000D01*
X138186786Y-93961000D01*
X137945097Y-93912925D01*
X137717431Y-93818623D01*
X137717430Y-93818623D01*
X137717429Y-93818622D01*
X137512534Y-93681715D01*
X137338285Y-93507466D01*
X137201378Y-93302571D01*
X137107075Y-93074903D01*
X137059000Y-92833213D01*
X137059000Y-92586787D01*
X137107075Y-92345097D01*
X137201378Y-92117429D01*
X137338285Y-91912534D01*
X137512534Y-91738285D01*
X137717429Y-91601378D01*
X137945097Y-91507075D01*
X138186786Y-91459000D01*
X138433214Y-91459000D01*
X138674903Y-91507075D01*
X138674903Y-91507075D01*
G37*
G36*
X132061000Y-93961000D02*
G01*
X129559000Y-93961000D01*
X129559000Y-91459000D01*
X132061000Y-91459000D01*
X132061000Y-93961000D01*
X132061000Y-93961000D01*
G37*
G36*
X119613642Y-90669781D02*
G01*
X119759414Y-90730162D01*
X119759416Y-90730163D01*
X119890608Y-90817822D01*
X120002178Y-90929392D01*
X120089837Y-91060584D01*
X120089838Y-91060586D01*
X120150219Y-91206358D01*
X120181000Y-91361107D01*
X120181000Y-91518893D01*
X120150219Y-91673642D01*
X120110022Y-91770686D01*
X120089837Y-91819416D01*
X120002178Y-91950608D01*
X119890608Y-92062178D01*
X119759416Y-92149837D01*
X119759415Y-92149838D01*
X119759414Y-92149838D01*
X119613642Y-92210219D01*
X119458893Y-92241000D01*
X119301107Y-92241000D01*
X119146358Y-92210219D01*
X119000586Y-92149838D01*
X119000585Y-92149838D01*
X119000584Y-92149837D01*
X118869392Y-92062178D01*
X118757822Y-91950608D01*
X118670163Y-91819416D01*
X118649978Y-91770686D01*
X118609781Y-91673642D01*
X118579000Y-91518893D01*
X118579000Y-91361107D01*
X118609781Y-91206358D01*
X118670162Y-91060586D01*
X118670163Y-91060584D01*
X118757822Y-90929392D01*
X118869392Y-90817822D01*
X119000584Y-90730163D01*
X119000586Y-90730162D01*
X119146358Y-90669781D01*
X119301107Y-90639000D01*
X119458893Y-90639000D01*
X119613642Y-90669781D01*
X119613642Y-90669781D01*
G37*
G36*
X93130823Y-90093313D02*
G01*
X93291242Y-90141976D01*
X93423906Y-90212886D01*
X93439078Y-90220996D01*
X93568659Y-90327341D01*
X93675004Y-90456922D01*
X93675005Y-90456924D01*
X93754024Y-90604758D01*
X93802687Y-90765177D01*
X93819117Y-90932000D01*
X93802687Y-91098823D01*
X93754024Y-91259242D01*
X93699576Y-91361107D01*
X93675004Y-91407078D01*
X93568659Y-91536659D01*
X93439078Y-91643004D01*
X93439076Y-91643005D01*
X93291242Y-91722024D01*
X93130823Y-91770687D01*
X93005804Y-91783000D01*
X92922196Y-91783000D01*
X92797177Y-91770687D01*
X92636758Y-91722024D01*
X92488924Y-91643005D01*
X92488922Y-91643004D01*
X92359341Y-91536659D01*
X92252996Y-91407078D01*
X92228424Y-91361107D01*
X92173976Y-91259242D01*
X92125313Y-91098823D01*
X92108883Y-90932000D01*
X92125313Y-90765177D01*
X92173976Y-90604758D01*
X92252995Y-90456924D01*
X92252996Y-90456922D01*
X92359341Y-90327341D01*
X92488922Y-90220996D01*
X92504094Y-90212886D01*
X92636758Y-90141976D01*
X92797177Y-90093313D01*
X92922196Y-90081000D01*
X93005804Y-90081000D01*
X93130823Y-90093313D01*
X93130823Y-90093313D01*
G37*
G36*
X100750823Y-90093313D02*
G01*
X100911242Y-90141976D01*
X101043906Y-90212886D01*
X101059078Y-90220996D01*
X101188659Y-90327341D01*
X101295004Y-90456922D01*
X101295005Y-90456924D01*
X101374024Y-90604758D01*
X101422687Y-90765177D01*
X101439117Y-90932000D01*
X101422687Y-91098823D01*
X101374024Y-91259242D01*
X101319576Y-91361107D01*
X101295004Y-91407078D01*
X101188659Y-91536659D01*
X101059078Y-91643004D01*
X101059076Y-91643005D01*
X100911242Y-91722024D01*
X100750823Y-91770687D01*
X100625804Y-91783000D01*
X100542196Y-91783000D01*
X100417177Y-91770687D01*
X100256758Y-91722024D01*
X100108924Y-91643005D01*
X100108922Y-91643004D01*
X99979341Y-91536659D01*
X99872996Y-91407078D01*
X99848424Y-91361107D01*
X99793976Y-91259242D01*
X99745313Y-91098823D01*
X99728883Y-90932000D01*
X99745313Y-90765177D01*
X99793976Y-90604758D01*
X99872995Y-90456924D01*
X99872996Y-90456922D01*
X99979341Y-90327341D01*
X100108922Y-90220996D01*
X100124094Y-90212886D01*
X100256758Y-90141976D01*
X100417177Y-90093313D01*
X100542196Y-90081000D01*
X100625804Y-90081000D01*
X100750823Y-90093313D01*
X100750823Y-90093313D01*
G37*
G36*
X93130823Y-87553313D02*
G01*
X93291242Y-87601976D01*
X93423906Y-87672886D01*
X93439078Y-87680996D01*
X93568659Y-87787341D01*
X93675004Y-87916922D01*
X93675005Y-87916924D01*
X93754024Y-88064758D01*
X93802687Y-88225177D01*
X93819117Y-88392000D01*
X93802687Y-88558823D01*
X93754024Y-88719242D01*
X93683114Y-88851906D01*
X93675004Y-88867078D01*
X93568659Y-88996659D01*
X93439078Y-89103004D01*
X93439076Y-89103005D01*
X93291242Y-89182024D01*
X93130823Y-89230687D01*
X93005804Y-89243000D01*
X92922196Y-89243000D01*
X92797177Y-89230687D01*
X92636758Y-89182024D01*
X92488924Y-89103005D01*
X92488922Y-89103004D01*
X92359341Y-88996659D01*
X92252996Y-88867078D01*
X92244886Y-88851906D01*
X92173976Y-88719242D01*
X92125313Y-88558823D01*
X92108883Y-88392000D01*
X92125313Y-88225177D01*
X92173976Y-88064758D01*
X92252995Y-87916924D01*
X92252996Y-87916922D01*
X92359341Y-87787341D01*
X92488922Y-87680996D01*
X92504094Y-87672886D01*
X92636758Y-87601976D01*
X92797177Y-87553313D01*
X92922196Y-87541000D01*
X93005804Y-87541000D01*
X93130823Y-87553313D01*
X93130823Y-87553313D01*
G37*
G36*
X100750823Y-87553313D02*
G01*
X100911242Y-87601976D01*
X101043906Y-87672886D01*
X101059078Y-87680996D01*
X101188659Y-87787341D01*
X101295004Y-87916922D01*
X101295005Y-87916924D01*
X101374024Y-88064758D01*
X101422687Y-88225177D01*
X101439117Y-88392000D01*
X101422687Y-88558823D01*
X101374024Y-88719242D01*
X101303114Y-88851906D01*
X101295004Y-88867078D01*
X101188659Y-88996659D01*
X101059078Y-89103004D01*
X101059076Y-89103005D01*
X100911242Y-89182024D01*
X100750823Y-89230687D01*
X100625804Y-89243000D01*
X100542196Y-89243000D01*
X100417177Y-89230687D01*
X100256758Y-89182024D01*
X100108924Y-89103005D01*
X100108922Y-89103004D01*
X99979341Y-88996659D01*
X99872996Y-88867078D01*
X99864886Y-88851906D01*
X99793976Y-88719242D01*
X99745313Y-88558823D01*
X99728883Y-88392000D01*
X99745313Y-88225177D01*
X99793976Y-88064758D01*
X99872995Y-87916924D01*
X99872996Y-87916922D01*
X99979341Y-87787341D01*
X100108922Y-87680996D01*
X100124094Y-87672886D01*
X100256758Y-87601976D01*
X100417177Y-87553313D01*
X100542196Y-87541000D01*
X100625804Y-87541000D01*
X100750823Y-87553313D01*
X100750823Y-87553313D01*
G37*
G36*
X119613642Y-85789781D02*
G01*
X119759414Y-85850162D01*
X119759416Y-85850163D01*
X119890608Y-85937822D01*
X120002178Y-86049392D01*
X120088938Y-86179239D01*
X120089838Y-86180586D01*
X120150219Y-86326358D01*
X120181000Y-86481107D01*
X120181000Y-86638893D01*
X120150219Y-86793642D01*
X120089838Y-86939414D01*
X120089837Y-86939416D01*
X120002178Y-87070608D01*
X119890608Y-87182178D01*
X119759416Y-87269837D01*
X119759415Y-87269838D01*
X119759414Y-87269838D01*
X119613642Y-87330219D01*
X119458893Y-87361000D01*
X119301107Y-87361000D01*
X119146358Y-87330219D01*
X119000586Y-87269838D01*
X119000585Y-87269838D01*
X119000584Y-87269837D01*
X118869392Y-87182178D01*
X118757822Y-87070608D01*
X118670163Y-86939416D01*
X118670162Y-86939414D01*
X118609781Y-86793642D01*
X118579000Y-86638893D01*
X118579000Y-86481107D01*
X118609781Y-86326358D01*
X118670162Y-86180586D01*
X118671062Y-86179239D01*
X118757822Y-86049392D01*
X118869392Y-85937822D01*
X119000584Y-85850163D01*
X119000586Y-85850162D01*
X119146358Y-85789781D01*
X119301107Y-85759000D01*
X119458893Y-85759000D01*
X119613642Y-85789781D01*
X119613642Y-85789781D01*
G37*
G36*
X100750823Y-85013313D02*
G01*
X100911242Y-85061976D01*
X101043906Y-85132886D01*
X101059078Y-85140996D01*
X101188659Y-85247341D01*
X101295004Y-85376922D01*
X101295005Y-85376924D01*
X101374024Y-85524758D01*
X101422687Y-85685177D01*
X101439117Y-85852000D01*
X101422687Y-86018823D01*
X101374024Y-86179242D01*
X101303114Y-86311906D01*
X101295004Y-86327078D01*
X101188659Y-86456659D01*
X101059078Y-86563004D01*
X101059076Y-86563005D01*
X100911242Y-86642024D01*
X100750823Y-86690687D01*
X100625804Y-86703000D01*
X100542196Y-86703000D01*
X100417177Y-86690687D01*
X100256758Y-86642024D01*
X100108924Y-86563005D01*
X100108922Y-86563004D01*
X99979341Y-86456659D01*
X99872996Y-86327078D01*
X99864886Y-86311906D01*
X99793976Y-86179242D01*
X99745313Y-86018823D01*
X99728883Y-85852000D01*
X99745313Y-85685177D01*
X99793976Y-85524758D01*
X99872995Y-85376924D01*
X99872996Y-85376922D01*
X99979341Y-85247341D01*
X100108922Y-85140996D01*
X100124094Y-85132886D01*
X100256758Y-85061976D01*
X100417177Y-85013313D01*
X100542196Y-85001000D01*
X100625804Y-85001000D01*
X100750823Y-85013313D01*
X100750823Y-85013313D01*
G37*
G36*
X93130823Y-85013313D02*
G01*
X93291242Y-85061976D01*
X93423906Y-85132886D01*
X93439078Y-85140996D01*
X93568659Y-85247341D01*
X93675004Y-85376922D01*
X93675005Y-85376924D01*
X93754024Y-85524758D01*
X93802687Y-85685177D01*
X93819117Y-85852000D01*
X93802687Y-86018823D01*
X93754024Y-86179242D01*
X93683114Y-86311906D01*
X93675004Y-86327078D01*
X93568659Y-86456659D01*
X93439078Y-86563004D01*
X93439076Y-86563005D01*
X93291242Y-86642024D01*
X93130823Y-86690687D01*
X93005804Y-86703000D01*
X92922196Y-86703000D01*
X92797177Y-86690687D01*
X92636758Y-86642024D01*
X92488924Y-86563005D01*
X92488922Y-86563004D01*
X92359341Y-86456659D01*
X92252996Y-86327078D01*
X92244886Y-86311906D01*
X92173976Y-86179242D01*
X92125313Y-86018823D01*
X92108883Y-85852000D01*
X92125313Y-85685177D01*
X92173976Y-85524758D01*
X92252995Y-85376924D01*
X92252996Y-85376922D01*
X92359341Y-85247341D01*
X92488922Y-85140996D01*
X92504094Y-85132886D01*
X92636758Y-85061976D01*
X92797177Y-85013313D01*
X92922196Y-85001000D01*
X93005804Y-85001000D01*
X93130823Y-85013313D01*
X93130823Y-85013313D01*
G37*
G36*
X100750823Y-82473313D02*
G01*
X100911242Y-82521976D01*
X101043906Y-82592886D01*
X101059078Y-82600996D01*
X101188659Y-82707341D01*
X101295004Y-82836922D01*
X101295005Y-82836924D01*
X101374024Y-82984758D01*
X101422687Y-83145177D01*
X101439117Y-83312000D01*
X101422687Y-83478823D01*
X101374024Y-83639242D01*
X101303114Y-83771906D01*
X101295004Y-83787078D01*
X101188659Y-83916659D01*
X101059078Y-84023004D01*
X101059076Y-84023005D01*
X100911242Y-84102024D01*
X100750823Y-84150687D01*
X100625804Y-84163000D01*
X100542196Y-84163000D01*
X100417177Y-84150687D01*
X100256758Y-84102024D01*
X100108924Y-84023005D01*
X100108922Y-84023004D01*
X99979341Y-83916659D01*
X99872996Y-83787078D01*
X99864886Y-83771906D01*
X99793976Y-83639242D01*
X99745313Y-83478823D01*
X99728883Y-83312000D01*
X99745313Y-83145177D01*
X99793976Y-82984758D01*
X99872995Y-82836924D01*
X99872996Y-82836922D01*
X99979341Y-82707341D01*
X100108922Y-82600996D01*
X100124094Y-82592886D01*
X100256758Y-82521976D01*
X100417177Y-82473313D01*
X100542196Y-82461000D01*
X100625804Y-82461000D01*
X100750823Y-82473313D01*
X100750823Y-82473313D01*
G37*
G36*
X93130823Y-82473313D02*
G01*
X93291242Y-82521976D01*
X93423906Y-82592886D01*
X93439078Y-82600996D01*
X93568659Y-82707341D01*
X93675004Y-82836922D01*
X93675005Y-82836924D01*
X93754024Y-82984758D01*
X93802687Y-83145177D01*
X93819117Y-83312000D01*
X93802687Y-83478823D01*
X93754024Y-83639242D01*
X93683114Y-83771906D01*
X93675004Y-83787078D01*
X93568659Y-83916659D01*
X93439078Y-84023004D01*
X93439076Y-84023005D01*
X93291242Y-84102024D01*
X93130823Y-84150687D01*
X93005804Y-84163000D01*
X92922196Y-84163000D01*
X92797177Y-84150687D01*
X92636758Y-84102024D01*
X92488924Y-84023005D01*
X92488922Y-84023004D01*
X92359341Y-83916659D01*
X92252996Y-83787078D01*
X92244886Y-83771906D01*
X92173976Y-83639242D01*
X92125313Y-83478823D01*
X92108883Y-83312000D01*
X92125313Y-83145177D01*
X92173976Y-82984758D01*
X92252995Y-82836924D01*
X92252996Y-82836922D01*
X92359341Y-82707341D01*
X92488922Y-82600996D01*
X92504094Y-82592886D01*
X92636758Y-82521976D01*
X92797177Y-82473313D01*
X92922196Y-82461000D01*
X93005804Y-82461000D01*
X93130823Y-82473313D01*
X93130823Y-82473313D01*
G37*
G36*
X93130823Y-79933313D02*
G01*
X93291242Y-79981976D01*
X93423906Y-80052886D01*
X93439078Y-80060996D01*
X93568659Y-80167341D01*
X93675004Y-80296922D01*
X93675005Y-80296924D01*
X93754024Y-80444758D01*
X93802687Y-80605177D01*
X93819117Y-80772000D01*
X93802687Y-80938823D01*
X93754024Y-81099242D01*
X93683114Y-81231906D01*
X93675004Y-81247078D01*
X93568659Y-81376659D01*
X93439078Y-81483004D01*
X93439076Y-81483005D01*
X93291242Y-81562024D01*
X93130823Y-81610687D01*
X93005804Y-81623000D01*
X92922196Y-81623000D01*
X92797177Y-81610687D01*
X92636758Y-81562024D01*
X92488924Y-81483005D01*
X92488922Y-81483004D01*
X92359341Y-81376659D01*
X92252996Y-81247078D01*
X92244886Y-81231906D01*
X92173976Y-81099242D01*
X92125313Y-80938823D01*
X92108883Y-80772000D01*
X92125313Y-80605177D01*
X92173976Y-80444758D01*
X92252995Y-80296924D01*
X92252996Y-80296922D01*
X92359341Y-80167341D01*
X92488922Y-80060996D01*
X92504094Y-80052886D01*
X92636758Y-79981976D01*
X92797177Y-79933313D01*
X92922196Y-79921000D01*
X93005804Y-79921000D01*
X93130823Y-79933313D01*
X93130823Y-79933313D01*
G37*
G36*
X100750823Y-79933313D02*
G01*
X100911242Y-79981976D01*
X101043906Y-80052886D01*
X101059078Y-80060996D01*
X101188659Y-80167341D01*
X101295004Y-80296922D01*
X101295005Y-80296924D01*
X101374024Y-80444758D01*
X101422687Y-80605177D01*
X101439117Y-80772000D01*
X101422687Y-80938823D01*
X101374024Y-81099242D01*
X101303114Y-81231906D01*
X101295004Y-81247078D01*
X101188659Y-81376659D01*
X101059078Y-81483004D01*
X101059076Y-81483005D01*
X100911242Y-81562024D01*
X100750823Y-81610687D01*
X100625804Y-81623000D01*
X100542196Y-81623000D01*
X100417177Y-81610687D01*
X100256758Y-81562024D01*
X100108924Y-81483005D01*
X100108922Y-81483004D01*
X99979341Y-81376659D01*
X99872996Y-81247078D01*
X99864886Y-81231906D01*
X99793976Y-81099242D01*
X99745313Y-80938823D01*
X99728883Y-80772000D01*
X99745313Y-80605177D01*
X99793976Y-80444758D01*
X99872995Y-80296924D01*
X99872996Y-80296922D01*
X99979341Y-80167341D01*
X100108922Y-80060996D01*
X100124094Y-80052886D01*
X100256758Y-79981976D01*
X100417177Y-79933313D01*
X100542196Y-79921000D01*
X100625804Y-79921000D01*
X100750823Y-79933313D01*
X100750823Y-79933313D01*
G37*
G36*
X100750823Y-77393313D02*
G01*
X100911242Y-77441976D01*
X101043906Y-77512886D01*
X101059078Y-77520996D01*
X101188659Y-77627341D01*
X101295004Y-77756922D01*
X101295005Y-77756924D01*
X101374024Y-77904758D01*
X101422687Y-78065177D01*
X101439117Y-78232000D01*
X101422687Y-78398823D01*
X101374024Y-78559242D01*
X101303114Y-78691906D01*
X101295004Y-78707078D01*
X101188659Y-78836659D01*
X101059078Y-78943004D01*
X101059076Y-78943005D01*
X100911242Y-79022024D01*
X100750823Y-79070687D01*
X100625804Y-79083000D01*
X100542196Y-79083000D01*
X100417177Y-79070687D01*
X100256758Y-79022024D01*
X100108924Y-78943005D01*
X100108922Y-78943004D01*
X99979341Y-78836659D01*
X99872996Y-78707078D01*
X99864886Y-78691906D01*
X99793976Y-78559242D01*
X99745313Y-78398823D01*
X99728883Y-78232000D01*
X99745313Y-78065177D01*
X99793976Y-77904758D01*
X99872995Y-77756924D01*
X99872996Y-77756922D01*
X99979341Y-77627341D01*
X100108922Y-77520996D01*
X100124094Y-77512886D01*
X100256758Y-77441976D01*
X100417177Y-77393313D01*
X100542196Y-77381000D01*
X100625804Y-77381000D01*
X100750823Y-77393313D01*
X100750823Y-77393313D01*
G37*
G36*
X93130823Y-77393313D02*
G01*
X93291242Y-77441976D01*
X93423906Y-77512886D01*
X93439078Y-77520996D01*
X93568659Y-77627341D01*
X93675004Y-77756922D01*
X93675005Y-77756924D01*
X93754024Y-77904758D01*
X93802687Y-78065177D01*
X93819117Y-78232000D01*
X93802687Y-78398823D01*
X93754024Y-78559242D01*
X93683114Y-78691906D01*
X93675004Y-78707078D01*
X93568659Y-78836659D01*
X93439078Y-78943004D01*
X93439076Y-78943005D01*
X93291242Y-79022024D01*
X93130823Y-79070687D01*
X93005804Y-79083000D01*
X92922196Y-79083000D01*
X92797177Y-79070687D01*
X92636758Y-79022024D01*
X92488924Y-78943005D01*
X92488922Y-78943004D01*
X92359341Y-78836659D01*
X92252996Y-78707078D01*
X92244886Y-78691906D01*
X92173976Y-78559242D01*
X92125313Y-78398823D01*
X92108883Y-78232000D01*
X92125313Y-78065177D01*
X92173976Y-77904758D01*
X92252995Y-77756924D01*
X92252996Y-77756922D01*
X92359341Y-77627341D01*
X92488922Y-77520996D01*
X92504094Y-77512886D01*
X92636758Y-77441976D01*
X92797177Y-77393313D01*
X92922196Y-77381000D01*
X93005804Y-77381000D01*
X93130823Y-77393313D01*
X93130823Y-77393313D01*
G37*
G36*
X93130823Y-74853313D02*
G01*
X93291242Y-74901976D01*
X93423906Y-74972886D01*
X93439078Y-74980996D01*
X93568659Y-75087341D01*
X93675004Y-75216922D01*
X93675005Y-75216924D01*
X93754024Y-75364758D01*
X93802687Y-75525177D01*
X93819117Y-75692000D01*
X93802687Y-75858823D01*
X93754024Y-76019242D01*
X93693259Y-76132925D01*
X93675004Y-76167078D01*
X93568659Y-76296659D01*
X93439078Y-76403004D01*
X93439076Y-76403005D01*
X93291242Y-76482024D01*
X93130823Y-76530687D01*
X93005804Y-76543000D01*
X92922196Y-76543000D01*
X92797177Y-76530687D01*
X92636758Y-76482024D01*
X92488924Y-76403005D01*
X92488922Y-76403004D01*
X92359341Y-76296659D01*
X92252996Y-76167078D01*
X92234741Y-76132925D01*
X92173976Y-76019242D01*
X92125313Y-75858823D01*
X92108883Y-75692000D01*
X92125313Y-75525177D01*
X92173976Y-75364758D01*
X92252995Y-75216924D01*
X92252996Y-75216922D01*
X92359341Y-75087341D01*
X92488922Y-74980996D01*
X92504094Y-74972886D01*
X92636758Y-74901976D01*
X92797177Y-74853313D01*
X92922196Y-74841000D01*
X93005804Y-74841000D01*
X93130823Y-74853313D01*
X93130823Y-74853313D01*
G37*
G36*
X100750823Y-74853313D02*
G01*
X100911242Y-74901976D01*
X101043906Y-74972886D01*
X101059078Y-74980996D01*
X101188659Y-75087341D01*
X101295004Y-75216922D01*
X101295005Y-75216924D01*
X101374024Y-75364758D01*
X101422687Y-75525177D01*
X101439117Y-75692000D01*
X101422687Y-75858823D01*
X101374024Y-76019242D01*
X101313259Y-76132925D01*
X101295004Y-76167078D01*
X101188659Y-76296659D01*
X101059078Y-76403004D01*
X101059076Y-76403005D01*
X100911242Y-76482024D01*
X100750823Y-76530687D01*
X100625804Y-76543000D01*
X100542196Y-76543000D01*
X100417177Y-76530687D01*
X100256758Y-76482024D01*
X100108924Y-76403005D01*
X100108922Y-76403004D01*
X99979341Y-76296659D01*
X99872996Y-76167078D01*
X99854741Y-76132925D01*
X99793976Y-76019242D01*
X99745313Y-75858823D01*
X99728883Y-75692000D01*
X99745313Y-75525177D01*
X99793976Y-75364758D01*
X99872995Y-75216924D01*
X99872996Y-75216922D01*
X99979341Y-75087341D01*
X100108922Y-74980996D01*
X100124094Y-74972886D01*
X100256758Y-74901976D01*
X100417177Y-74853313D01*
X100542196Y-74841000D01*
X100625804Y-74841000D01*
X100750823Y-74853313D01*
X100750823Y-74853313D01*
G37*
G36*
X138674903Y-73727075D02*
G01*
X138902571Y-73821378D01*
X139107466Y-73958285D01*
X139281715Y-74132534D01*
X139418622Y-74337429D01*
X139512925Y-74565097D01*
X139561000Y-74806787D01*
X139561000Y-75053213D01*
X139512925Y-75294903D01*
X139418622Y-75522571D01*
X139281715Y-75727466D01*
X139107466Y-75901715D01*
X138902571Y-76038622D01*
X138902570Y-76038623D01*
X138902569Y-76038623D01*
X138674903Y-76132925D01*
X138433214Y-76181000D01*
X138186786Y-76181000D01*
X137945097Y-76132925D01*
X137717431Y-76038623D01*
X137717430Y-76038623D01*
X137717429Y-76038622D01*
X137512534Y-75901715D01*
X137338285Y-75727466D01*
X137201378Y-75522571D01*
X137107075Y-75294903D01*
X137059000Y-75053213D01*
X137059000Y-74806787D01*
X137107075Y-74565097D01*
X137201378Y-74337429D01*
X137338285Y-74132534D01*
X137512534Y-73958285D01*
X137717429Y-73821378D01*
X137945097Y-73727075D01*
X138186786Y-73679000D01*
X138433214Y-73679000D01*
X138674903Y-73727075D01*
X138674903Y-73727075D01*
G37*
G36*
X132061000Y-76181000D02*
G01*
X129559000Y-76181000D01*
X129559000Y-73679000D01*
X132061000Y-73679000D01*
X132061000Y-76181000D01*
X132061000Y-76181000D01*
G37*
G36*
X73316564Y-71949389D02*
G01*
X73507833Y-72028615D01*
X73507835Y-72028616D01*
X73679973Y-72143635D01*
X73826365Y-72290027D01*
X73927239Y-72440995D01*
X73941385Y-72462167D01*
X74020611Y-72653436D01*
X74061000Y-72856484D01*
X74061000Y-73063516D01*
X74020611Y-73266564D01*
X73941385Y-73457833D01*
X73941384Y-73457835D01*
X73826365Y-73629973D01*
X73679973Y-73776365D01*
X73507835Y-73891384D01*
X73507834Y-73891385D01*
X73507833Y-73891385D01*
X73316564Y-73970611D01*
X73113516Y-74011000D01*
X72906484Y-74011000D01*
X72703436Y-73970611D01*
X72512167Y-73891385D01*
X72512166Y-73891385D01*
X72512165Y-73891384D01*
X72340027Y-73776365D01*
X72193635Y-73629973D01*
X72078616Y-73457835D01*
X72078615Y-73457833D01*
X71999389Y-73266564D01*
X71959000Y-73063516D01*
X71959000Y-72856484D01*
X71999389Y-72653436D01*
X72078615Y-72462167D01*
X72092762Y-72440995D01*
X72193635Y-72290027D01*
X72340027Y-72143635D01*
X72512165Y-72028616D01*
X72512167Y-72028615D01*
X72703436Y-71949389D01*
X72906484Y-71909000D01*
X73113516Y-71909000D01*
X73316564Y-71949389D01*
X73316564Y-71949389D01*
G37*
G36*
X100750823Y-72313313D02*
G01*
X100911242Y-72361976D01*
X101043906Y-72432886D01*
X101059078Y-72440996D01*
X101188659Y-72547341D01*
X101295004Y-72676922D01*
X101295005Y-72676924D01*
X101374024Y-72824758D01*
X101422687Y-72985177D01*
X101439117Y-73152000D01*
X101422687Y-73318823D01*
X101374024Y-73479242D01*
X101303114Y-73611906D01*
X101295004Y-73627078D01*
X101188659Y-73756659D01*
X101059078Y-73863004D01*
X101059076Y-73863005D01*
X100911242Y-73942024D01*
X100750823Y-73990687D01*
X100625804Y-74003000D01*
X100542196Y-74003000D01*
X100417177Y-73990687D01*
X100256758Y-73942024D01*
X100108924Y-73863005D01*
X100108922Y-73863004D01*
X99979341Y-73756659D01*
X99872996Y-73627078D01*
X99864886Y-73611906D01*
X99793976Y-73479242D01*
X99745313Y-73318823D01*
X99728883Y-73152000D01*
X99745313Y-72985177D01*
X99793976Y-72824758D01*
X99872995Y-72676924D01*
X99872996Y-72676922D01*
X99979341Y-72547341D01*
X100108922Y-72440996D01*
X100124094Y-72432886D01*
X100256758Y-72361976D01*
X100417177Y-72313313D01*
X100542196Y-72301000D01*
X100625804Y-72301000D01*
X100750823Y-72313313D01*
X100750823Y-72313313D01*
G37*
G36*
X93130823Y-72313313D02*
G01*
X93291242Y-72361976D01*
X93423906Y-72432886D01*
X93439078Y-72440996D01*
X93568659Y-72547341D01*
X93675004Y-72676922D01*
X93675005Y-72676924D01*
X93754024Y-72824758D01*
X93802687Y-72985177D01*
X93819117Y-73152000D01*
X93802687Y-73318823D01*
X93754024Y-73479242D01*
X93683114Y-73611906D01*
X93675004Y-73627078D01*
X93568659Y-73756659D01*
X93439078Y-73863004D01*
X93439076Y-73863005D01*
X93291242Y-73942024D01*
X93130823Y-73990687D01*
X93005804Y-74003000D01*
X92922196Y-74003000D01*
X92797177Y-73990687D01*
X92636758Y-73942024D01*
X92488924Y-73863005D01*
X92488922Y-73863004D01*
X92359341Y-73756659D01*
X92252996Y-73627078D01*
X92244886Y-73611906D01*
X92173976Y-73479242D01*
X92125313Y-73318823D01*
X92108883Y-73152000D01*
X92125313Y-72985177D01*
X92173976Y-72824758D01*
X92252995Y-72676924D01*
X92252996Y-72676922D01*
X92359341Y-72547341D01*
X92488922Y-72440996D01*
X92504094Y-72432886D01*
X92636758Y-72361976D01*
X92797177Y-72313313D01*
X92922196Y-72301000D01*
X93005804Y-72301000D01*
X93130823Y-72313313D01*
X93130823Y-72313313D01*
G37*
G36*
X100750823Y-69773313D02*
G01*
X100911242Y-69821976D01*
X101043906Y-69892886D01*
X101059078Y-69900996D01*
X101188659Y-70007341D01*
X101295004Y-70136922D01*
X101295005Y-70136924D01*
X101374024Y-70284758D01*
X101422687Y-70445177D01*
X101439117Y-70612000D01*
X101422687Y-70778823D01*
X101374024Y-70939242D01*
X101303114Y-71071906D01*
X101295004Y-71087078D01*
X101188659Y-71216659D01*
X101059078Y-71323004D01*
X101059076Y-71323005D01*
X100911242Y-71402024D01*
X100750823Y-71450687D01*
X100625804Y-71463000D01*
X100542196Y-71463000D01*
X100417177Y-71450687D01*
X100256758Y-71402024D01*
X100108924Y-71323005D01*
X100108922Y-71323004D01*
X99979341Y-71216659D01*
X99872996Y-71087078D01*
X99864886Y-71071906D01*
X99793976Y-70939242D01*
X99745313Y-70778823D01*
X99728883Y-70612000D01*
X99745313Y-70445177D01*
X99793976Y-70284758D01*
X99872995Y-70136924D01*
X99872996Y-70136922D01*
X99979341Y-70007341D01*
X100108922Y-69900996D01*
X100124094Y-69892886D01*
X100256758Y-69821976D01*
X100417177Y-69773313D01*
X100542196Y-69761000D01*
X100625804Y-69761000D01*
X100750823Y-69773313D01*
X100750823Y-69773313D01*
G37*
G36*
X93130823Y-69773313D02*
G01*
X93291242Y-69821976D01*
X93423906Y-69892886D01*
X93439078Y-69900996D01*
X93568659Y-70007341D01*
X93675004Y-70136922D01*
X93675005Y-70136924D01*
X93754024Y-70284758D01*
X93802687Y-70445177D01*
X93819117Y-70612000D01*
X93802687Y-70778823D01*
X93754024Y-70939242D01*
X93683114Y-71071906D01*
X93675004Y-71087078D01*
X93568659Y-71216659D01*
X93439078Y-71323004D01*
X93439076Y-71323005D01*
X93291242Y-71402024D01*
X93130823Y-71450687D01*
X93005804Y-71463000D01*
X92922196Y-71463000D01*
X92797177Y-71450687D01*
X92636758Y-71402024D01*
X92488924Y-71323005D01*
X92488922Y-71323004D01*
X92359341Y-71216659D01*
X92252996Y-71087078D01*
X92244886Y-71071906D01*
X92173976Y-70939242D01*
X92125313Y-70778823D01*
X92108883Y-70612000D01*
X92125313Y-70445177D01*
X92173976Y-70284758D01*
X92252995Y-70136924D01*
X92252996Y-70136922D01*
X92359341Y-70007341D01*
X92488922Y-69900996D01*
X92504094Y-69892886D01*
X92636758Y-69821976D01*
X92797177Y-69773313D01*
X92922196Y-69761000D01*
X93005804Y-69761000D01*
X93130823Y-69773313D01*
X93130823Y-69773313D01*
G37*
G36*
X93130823Y-67233313D02*
G01*
X93291242Y-67281976D01*
X93423906Y-67352886D01*
X93439078Y-67360996D01*
X93568659Y-67467341D01*
X93675004Y-67596922D01*
X93675005Y-67596924D01*
X93754024Y-67744758D01*
X93802687Y-67905177D01*
X93819117Y-68072000D01*
X93802687Y-68238823D01*
X93754024Y-68399242D01*
X93683114Y-68531906D01*
X93675004Y-68547078D01*
X93568659Y-68676659D01*
X93439078Y-68783004D01*
X93439076Y-68783005D01*
X93291242Y-68862024D01*
X93130823Y-68910687D01*
X93005804Y-68923000D01*
X92922196Y-68923000D01*
X92797177Y-68910687D01*
X92636758Y-68862024D01*
X92488924Y-68783005D01*
X92488922Y-68783004D01*
X92359341Y-68676659D01*
X92252996Y-68547078D01*
X92244886Y-68531906D01*
X92173976Y-68399242D01*
X92125313Y-68238823D01*
X92108883Y-68072000D01*
X92125313Y-67905177D01*
X92173976Y-67744758D01*
X92252995Y-67596924D01*
X92252996Y-67596922D01*
X92359341Y-67467341D01*
X92488922Y-67360996D01*
X92504094Y-67352886D01*
X92636758Y-67281976D01*
X92797177Y-67233313D01*
X92922196Y-67221000D01*
X93005804Y-67221000D01*
X93130823Y-67233313D01*
X93130823Y-67233313D01*
G37*
G36*
X100750823Y-67233313D02*
G01*
X100911242Y-67281976D01*
X101043906Y-67352886D01*
X101059078Y-67360996D01*
X101188659Y-67467341D01*
X101295004Y-67596922D01*
X101295005Y-67596924D01*
X101374024Y-67744758D01*
X101422687Y-67905177D01*
X101439117Y-68072000D01*
X101422687Y-68238823D01*
X101374024Y-68399242D01*
X101303114Y-68531906D01*
X101295004Y-68547078D01*
X101188659Y-68676659D01*
X101059078Y-68783004D01*
X101059076Y-68783005D01*
X100911242Y-68862024D01*
X100750823Y-68910687D01*
X100625804Y-68923000D01*
X100542196Y-68923000D01*
X100417177Y-68910687D01*
X100256758Y-68862024D01*
X100108924Y-68783005D01*
X100108922Y-68783004D01*
X99979341Y-68676659D01*
X99872996Y-68547078D01*
X99864886Y-68531906D01*
X99793976Y-68399242D01*
X99745313Y-68238823D01*
X99728883Y-68072000D01*
X99745313Y-67905177D01*
X99793976Y-67744758D01*
X99872995Y-67596924D01*
X99872996Y-67596922D01*
X99979341Y-67467341D01*
X100108922Y-67360996D01*
X100124094Y-67352886D01*
X100256758Y-67281976D01*
X100417177Y-67233313D01*
X100542196Y-67221000D01*
X100625804Y-67221000D01*
X100750823Y-67233313D01*
X100750823Y-67233313D01*
G37*
G36*
X93815000Y-66383000D02*
G01*
X92113000Y-66383000D01*
X92113000Y-64681000D01*
X93815000Y-64681000D01*
X93815000Y-66383000D01*
X93815000Y-66383000D01*
G37*
G36*
X100750823Y-64693313D02*
G01*
X100911242Y-64741976D01*
X101043906Y-64812886D01*
X101059078Y-64820996D01*
X101188659Y-64927341D01*
X101295004Y-65056922D01*
X101295005Y-65056924D01*
X101374024Y-65204758D01*
X101422687Y-65365177D01*
X101439117Y-65532000D01*
X101422687Y-65698823D01*
X101374024Y-65859242D01*
X101303114Y-65991906D01*
X101295004Y-66007078D01*
X101188659Y-66136659D01*
X101059078Y-66243004D01*
X101059076Y-66243005D01*
X100911242Y-66322024D01*
X100750823Y-66370687D01*
X100625804Y-66383000D01*
X100542196Y-66383000D01*
X100417177Y-66370687D01*
X100256758Y-66322024D01*
X100108924Y-66243005D01*
X100108922Y-66243004D01*
X99979341Y-66136659D01*
X99872996Y-66007078D01*
X99864886Y-65991906D01*
X99793976Y-65859242D01*
X99745313Y-65698823D01*
X99728883Y-65532000D01*
X99745313Y-65365177D01*
X99793976Y-65204758D01*
X99872995Y-65056924D01*
X99872996Y-65056922D01*
X99979341Y-64927341D01*
X100108922Y-64820996D01*
X100124094Y-64812886D01*
X100256758Y-64741976D01*
X100417177Y-64693313D01*
X100542196Y-64681000D01*
X100625804Y-64681000D01*
X100750823Y-64693313D01*
X100750823Y-64693313D01*
G37*
G36*
X122341213Y-64047502D02*
G01*
X122412321Y-64054505D01*
X122549172Y-64096019D01*
X122549175Y-64096020D01*
X122675294Y-64163432D01*
X122785843Y-64254157D01*
X122876568Y-64364706D01*
X122943980Y-64490825D01*
X122943981Y-64490828D01*
X122985495Y-64627679D01*
X122999512Y-64770000D01*
X122985495Y-64912321D01*
X122943981Y-65049172D01*
X122943980Y-65049175D01*
X122876568Y-65175294D01*
X122785843Y-65285843D01*
X122675294Y-65376568D01*
X122549175Y-65443980D01*
X122549172Y-65443981D01*
X122412321Y-65485495D01*
X122341213Y-65492498D01*
X122305660Y-65496000D01*
X122234340Y-65496000D01*
X122198787Y-65492498D01*
X122127679Y-65485495D01*
X121990828Y-65443981D01*
X121990825Y-65443980D01*
X121864706Y-65376568D01*
X121754157Y-65285843D01*
X121663432Y-65175294D01*
X121596020Y-65049175D01*
X121596019Y-65049172D01*
X121554505Y-64912321D01*
X121540488Y-64770000D01*
X121554505Y-64627679D01*
X121596019Y-64490828D01*
X121596020Y-64490825D01*
X121663432Y-64364706D01*
X121754157Y-64254157D01*
X121864706Y-64163432D01*
X121990825Y-64096020D01*
X121990828Y-64096019D01*
X122127679Y-64054505D01*
X122198787Y-64047502D01*
X122234340Y-64044000D01*
X122305660Y-64044000D01*
X122341213Y-64047502D01*
X122341213Y-64047502D01*
G37*
G36*
X126341213Y-64047502D02*
G01*
X126412321Y-64054505D01*
X126549172Y-64096019D01*
X126549175Y-64096020D01*
X126675294Y-64163432D01*
X126785843Y-64254157D01*
X126876568Y-64364706D01*
X126943980Y-64490825D01*
X126943981Y-64490828D01*
X126985495Y-64627679D01*
X126999512Y-64770000D01*
X126985495Y-64912321D01*
X126943981Y-65049172D01*
X126943980Y-65049175D01*
X126876568Y-65175294D01*
X126785843Y-65285843D01*
X126675294Y-65376568D01*
X126549175Y-65443980D01*
X126549172Y-65443981D01*
X126412321Y-65485495D01*
X126341213Y-65492498D01*
X126305660Y-65496000D01*
X126234340Y-65496000D01*
X126198787Y-65492498D01*
X126127679Y-65485495D01*
X125990828Y-65443981D01*
X125990825Y-65443980D01*
X125864706Y-65376568D01*
X125754157Y-65285843D01*
X125663432Y-65175294D01*
X125596020Y-65049175D01*
X125596019Y-65049172D01*
X125554505Y-64912321D01*
X125540488Y-64770000D01*
X125554505Y-64627679D01*
X125596019Y-64490828D01*
X125596020Y-64490825D01*
X125663432Y-64364706D01*
X125754157Y-64254157D01*
X125864706Y-64163432D01*
X125990825Y-64096020D01*
X125990828Y-64096019D01*
X126127679Y-64054505D01*
X126198787Y-64047502D01*
X126234340Y-64044000D01*
X126305660Y-64044000D01*
X126341213Y-64047502D01*
X126341213Y-64047502D01*
G37*
G36*
X128996000Y-65496000D02*
G01*
X127544000Y-65496000D01*
X127544000Y-64044000D01*
X128996000Y-64044000D01*
X128996000Y-65496000D01*
X128996000Y-65496000D01*
G37*
G36*
X124341213Y-64047502D02*
G01*
X124412321Y-64054505D01*
X124549172Y-64096019D01*
X124549175Y-64096020D01*
X124675294Y-64163432D01*
X124785843Y-64254157D01*
X124876568Y-64364706D01*
X124943980Y-64490825D01*
X124943981Y-64490828D01*
X124985495Y-64627679D01*
X124999512Y-64770000D01*
X124985495Y-64912321D01*
X124943981Y-65049172D01*
X124943980Y-65049175D01*
X124876568Y-65175294D01*
X124785843Y-65285843D01*
X124675294Y-65376568D01*
X124549175Y-65443980D01*
X124549172Y-65443981D01*
X124412321Y-65485495D01*
X124341213Y-65492498D01*
X124305660Y-65496000D01*
X124234340Y-65496000D01*
X124198787Y-65492498D01*
X124127679Y-65485495D01*
X123990828Y-65443981D01*
X123990825Y-65443980D01*
X123864706Y-65376568D01*
X123754157Y-65285843D01*
X123663432Y-65175294D01*
X123596020Y-65049175D01*
X123596019Y-65049172D01*
X123554505Y-64912321D01*
X123540488Y-64770000D01*
X123554505Y-64627679D01*
X123596019Y-64490828D01*
X123596020Y-64490825D01*
X123663432Y-64364706D01*
X123754157Y-64254157D01*
X123864706Y-64163432D01*
X123990825Y-64096020D01*
X123990828Y-64096019D01*
X124127679Y-64054505D01*
X124198787Y-64047502D01*
X124234340Y-64044000D01*
X124305660Y-64044000D01*
X124341213Y-64047502D01*
X124341213Y-64047502D01*
G37*
G36*
X139961213Y-64047502D02*
G01*
X140032321Y-64054505D01*
X140169172Y-64096019D01*
X140169175Y-64096020D01*
X140295294Y-64163432D01*
X140405843Y-64254157D01*
X140496568Y-64364706D01*
X140563980Y-64490825D01*
X140563981Y-64490828D01*
X140605495Y-64627679D01*
X140619512Y-64770000D01*
X140605495Y-64912321D01*
X140563981Y-65049172D01*
X140563980Y-65049175D01*
X140496568Y-65175294D01*
X140405843Y-65285843D01*
X140295294Y-65376568D01*
X140169175Y-65443980D01*
X140169172Y-65443981D01*
X140032321Y-65485495D01*
X139961213Y-65492498D01*
X139925660Y-65496000D01*
X139854340Y-65496000D01*
X139818787Y-65492498D01*
X139747679Y-65485495D01*
X139610828Y-65443981D01*
X139610825Y-65443980D01*
X139484706Y-65376568D01*
X139374157Y-65285843D01*
X139283432Y-65175294D01*
X139216020Y-65049175D01*
X139216019Y-65049172D01*
X139174505Y-64912321D01*
X139160488Y-64770000D01*
X139174505Y-64627679D01*
X139216019Y-64490828D01*
X139216020Y-64490825D01*
X139283432Y-64364706D01*
X139374157Y-64254157D01*
X139484706Y-64163432D01*
X139610825Y-64096020D01*
X139610828Y-64096019D01*
X139747679Y-64054505D01*
X139818787Y-64047502D01*
X139854340Y-64044000D01*
X139925660Y-64044000D01*
X139961213Y-64047502D01*
X139961213Y-64047502D01*
G37*
G36*
X137961213Y-64047502D02*
G01*
X138032321Y-64054505D01*
X138169172Y-64096019D01*
X138169175Y-64096020D01*
X138295294Y-64163432D01*
X138405843Y-64254157D01*
X138496568Y-64364706D01*
X138563980Y-64490825D01*
X138563981Y-64490828D01*
X138605495Y-64627679D01*
X138619512Y-64770000D01*
X138605495Y-64912321D01*
X138563981Y-65049172D01*
X138563980Y-65049175D01*
X138496568Y-65175294D01*
X138405843Y-65285843D01*
X138295294Y-65376568D01*
X138169175Y-65443980D01*
X138169172Y-65443981D01*
X138032321Y-65485495D01*
X137961213Y-65492498D01*
X137925660Y-65496000D01*
X137854340Y-65496000D01*
X137818787Y-65492498D01*
X137747679Y-65485495D01*
X137610828Y-65443981D01*
X137610825Y-65443980D01*
X137484706Y-65376568D01*
X137374157Y-65285843D01*
X137283432Y-65175294D01*
X137216020Y-65049175D01*
X137216019Y-65049172D01*
X137174505Y-64912321D01*
X137160488Y-64770000D01*
X137174505Y-64627679D01*
X137216019Y-64490828D01*
X137216020Y-64490825D01*
X137283432Y-64364706D01*
X137374157Y-64254157D01*
X137484706Y-64163432D01*
X137610825Y-64096020D01*
X137610828Y-64096019D01*
X137747679Y-64054505D01*
X137818787Y-64047502D01*
X137854340Y-64044000D01*
X137925660Y-64044000D01*
X137961213Y-64047502D01*
X137961213Y-64047502D01*
G37*
G36*
X136616000Y-65496000D02*
G01*
X135164000Y-65496000D01*
X135164000Y-64044000D01*
X136616000Y-64044000D01*
X136616000Y-65496000D01*
X136616000Y-65496000D01*
G37*
G36*
X106341213Y-64047502D02*
G01*
X106412321Y-64054505D01*
X106549172Y-64096019D01*
X106549175Y-64096020D01*
X106675294Y-64163432D01*
X106785843Y-64254157D01*
X106876568Y-64364706D01*
X106943980Y-64490825D01*
X106943981Y-64490828D01*
X106985495Y-64627679D01*
X106999512Y-64770000D01*
X106985495Y-64912321D01*
X106943981Y-65049172D01*
X106943980Y-65049175D01*
X106876568Y-65175294D01*
X106785843Y-65285843D01*
X106675294Y-65376568D01*
X106549175Y-65443980D01*
X106549172Y-65443981D01*
X106412321Y-65485495D01*
X106341213Y-65492498D01*
X106305660Y-65496000D01*
X106234340Y-65496000D01*
X106198787Y-65492498D01*
X106127679Y-65485495D01*
X105990828Y-65443981D01*
X105990825Y-65443980D01*
X105864706Y-65376568D01*
X105754157Y-65285843D01*
X105663432Y-65175294D01*
X105596020Y-65049175D01*
X105596019Y-65049172D01*
X105554505Y-64912321D01*
X105540488Y-64770000D01*
X105554505Y-64627679D01*
X105596019Y-64490828D01*
X105596020Y-64490825D01*
X105663432Y-64364706D01*
X105754157Y-64254157D01*
X105864706Y-64163432D01*
X105990825Y-64096020D01*
X105990828Y-64096019D01*
X106127679Y-64054505D01*
X106198787Y-64047502D01*
X106234340Y-64044000D01*
X106305660Y-64044000D01*
X106341213Y-64047502D01*
X106341213Y-64047502D01*
G37*
G36*
X108341213Y-64047502D02*
G01*
X108412321Y-64054505D01*
X108549172Y-64096019D01*
X108549175Y-64096020D01*
X108675294Y-64163432D01*
X108785843Y-64254157D01*
X108876568Y-64364706D01*
X108943980Y-64490825D01*
X108943981Y-64490828D01*
X108985495Y-64627679D01*
X108999512Y-64770000D01*
X108985495Y-64912321D01*
X108943981Y-65049172D01*
X108943980Y-65049175D01*
X108876568Y-65175294D01*
X108785843Y-65285843D01*
X108675294Y-65376568D01*
X108549175Y-65443980D01*
X108549172Y-65443981D01*
X108412321Y-65485495D01*
X108341213Y-65492498D01*
X108305660Y-65496000D01*
X108234340Y-65496000D01*
X108198787Y-65492498D01*
X108127679Y-65485495D01*
X107990828Y-65443981D01*
X107990825Y-65443980D01*
X107864706Y-65376568D01*
X107754157Y-65285843D01*
X107663432Y-65175294D01*
X107596020Y-65049175D01*
X107596019Y-65049172D01*
X107554505Y-64912321D01*
X107540488Y-64770000D01*
X107554505Y-64627679D01*
X107596019Y-64490828D01*
X107596020Y-64490825D01*
X107663432Y-64364706D01*
X107754157Y-64254157D01*
X107864706Y-64163432D01*
X107990825Y-64096020D01*
X107990828Y-64096019D01*
X108127679Y-64054505D01*
X108198787Y-64047502D01*
X108234340Y-64044000D01*
X108305660Y-64044000D01*
X108341213Y-64047502D01*
X108341213Y-64047502D01*
G37*
G36*
X112341213Y-64047502D02*
G01*
X112412321Y-64054505D01*
X112549172Y-64096019D01*
X112549175Y-64096020D01*
X112675294Y-64163432D01*
X112785843Y-64254157D01*
X112876568Y-64364706D01*
X112943980Y-64490825D01*
X112943981Y-64490828D01*
X112985495Y-64627679D01*
X112999512Y-64770000D01*
X112985495Y-64912321D01*
X112943981Y-65049172D01*
X112943980Y-65049175D01*
X112876568Y-65175294D01*
X112785843Y-65285843D01*
X112675294Y-65376568D01*
X112549175Y-65443980D01*
X112549172Y-65443981D01*
X112412321Y-65485495D01*
X112341213Y-65492498D01*
X112305660Y-65496000D01*
X112234340Y-65496000D01*
X112198787Y-65492498D01*
X112127679Y-65485495D01*
X111990828Y-65443981D01*
X111990825Y-65443980D01*
X111864706Y-65376568D01*
X111754157Y-65285843D01*
X111663432Y-65175294D01*
X111596020Y-65049175D01*
X111596019Y-65049172D01*
X111554505Y-64912321D01*
X111540488Y-64770000D01*
X111554505Y-64627679D01*
X111596019Y-64490828D01*
X111596020Y-64490825D01*
X111663432Y-64364706D01*
X111754157Y-64254157D01*
X111864706Y-64163432D01*
X111990825Y-64096020D01*
X111990828Y-64096019D01*
X112127679Y-64054505D01*
X112198787Y-64047502D01*
X112234340Y-64044000D01*
X112305660Y-64044000D01*
X112341213Y-64047502D01*
X112341213Y-64047502D01*
G37*
G36*
X114341213Y-64047502D02*
G01*
X114412321Y-64054505D01*
X114549172Y-64096019D01*
X114549175Y-64096020D01*
X114675294Y-64163432D01*
X114785843Y-64254157D01*
X114876568Y-64364706D01*
X114943980Y-64490825D01*
X114943981Y-64490828D01*
X114985495Y-64627679D01*
X114999512Y-64770000D01*
X114985495Y-64912321D01*
X114943981Y-65049172D01*
X114943980Y-65049175D01*
X114876568Y-65175294D01*
X114785843Y-65285843D01*
X114675294Y-65376568D01*
X114549175Y-65443980D01*
X114549172Y-65443981D01*
X114412321Y-65485495D01*
X114341213Y-65492498D01*
X114305660Y-65496000D01*
X114234340Y-65496000D01*
X114198787Y-65492498D01*
X114127679Y-65485495D01*
X113990828Y-65443981D01*
X113990825Y-65443980D01*
X113864706Y-65376568D01*
X113754157Y-65285843D01*
X113663432Y-65175294D01*
X113596020Y-65049175D01*
X113596019Y-65049172D01*
X113554505Y-64912321D01*
X113540488Y-64770000D01*
X113554505Y-64627679D01*
X113596019Y-64490828D01*
X113596020Y-64490825D01*
X113663432Y-64364706D01*
X113754157Y-64254157D01*
X113864706Y-64163432D01*
X113990825Y-64096020D01*
X113990828Y-64096019D01*
X114127679Y-64054505D01*
X114198787Y-64047502D01*
X114234340Y-64044000D01*
X114305660Y-64044000D01*
X114341213Y-64047502D01*
X114341213Y-64047502D01*
G37*
G36*
X116341213Y-64047502D02*
G01*
X116412321Y-64054505D01*
X116549172Y-64096019D01*
X116549175Y-64096020D01*
X116675294Y-64163432D01*
X116785843Y-64254157D01*
X116876568Y-64364706D01*
X116943980Y-64490825D01*
X116943981Y-64490828D01*
X116985495Y-64627679D01*
X116999512Y-64770000D01*
X116985495Y-64912321D01*
X116943981Y-65049172D01*
X116943980Y-65049175D01*
X116876568Y-65175294D01*
X116785843Y-65285843D01*
X116675294Y-65376568D01*
X116549175Y-65443980D01*
X116549172Y-65443981D01*
X116412321Y-65485495D01*
X116341213Y-65492498D01*
X116305660Y-65496000D01*
X116234340Y-65496000D01*
X116198787Y-65492498D01*
X116127679Y-65485495D01*
X115990828Y-65443981D01*
X115990825Y-65443980D01*
X115864706Y-65376568D01*
X115754157Y-65285843D01*
X115663432Y-65175294D01*
X115596020Y-65049175D01*
X115596019Y-65049172D01*
X115554505Y-64912321D01*
X115540488Y-64770000D01*
X115554505Y-64627679D01*
X115596019Y-64490828D01*
X115596020Y-64490825D01*
X115663432Y-64364706D01*
X115754157Y-64254157D01*
X115864706Y-64163432D01*
X115990825Y-64096020D01*
X115990828Y-64096019D01*
X116127679Y-64054505D01*
X116198787Y-64047502D01*
X116234340Y-64044000D01*
X116305660Y-64044000D01*
X116341213Y-64047502D01*
X116341213Y-64047502D01*
G37*
G36*
X118341213Y-64047502D02*
G01*
X118412321Y-64054505D01*
X118549172Y-64096019D01*
X118549175Y-64096020D01*
X118675294Y-64163432D01*
X118785843Y-64254157D01*
X118876568Y-64364706D01*
X118943980Y-64490825D01*
X118943981Y-64490828D01*
X118985495Y-64627679D01*
X118999512Y-64770000D01*
X118985495Y-64912321D01*
X118943981Y-65049172D01*
X118943980Y-65049175D01*
X118876568Y-65175294D01*
X118785843Y-65285843D01*
X118675294Y-65376568D01*
X118549175Y-65443980D01*
X118549172Y-65443981D01*
X118412321Y-65485495D01*
X118341213Y-65492498D01*
X118305660Y-65496000D01*
X118234340Y-65496000D01*
X118198787Y-65492498D01*
X118127679Y-65485495D01*
X117990828Y-65443981D01*
X117990825Y-65443980D01*
X117864706Y-65376568D01*
X117754157Y-65285843D01*
X117663432Y-65175294D01*
X117596020Y-65049175D01*
X117596019Y-65049172D01*
X117554505Y-64912321D01*
X117540488Y-64770000D01*
X117554505Y-64627679D01*
X117596019Y-64490828D01*
X117596020Y-64490825D01*
X117663432Y-64364706D01*
X117754157Y-64254157D01*
X117864706Y-64163432D01*
X117990825Y-64096020D01*
X117990828Y-64096019D01*
X118127679Y-64054505D01*
X118198787Y-64047502D01*
X118234340Y-64044000D01*
X118305660Y-64044000D01*
X118341213Y-64047502D01*
X118341213Y-64047502D01*
G37*
G36*
X120341213Y-64047502D02*
G01*
X120412321Y-64054505D01*
X120549172Y-64096019D01*
X120549175Y-64096020D01*
X120675294Y-64163432D01*
X120785843Y-64254157D01*
X120876568Y-64364706D01*
X120943980Y-64490825D01*
X120943981Y-64490828D01*
X120985495Y-64627679D01*
X120999512Y-64770000D01*
X120985495Y-64912321D01*
X120943981Y-65049172D01*
X120943980Y-65049175D01*
X120876568Y-65175294D01*
X120785843Y-65285843D01*
X120675294Y-65376568D01*
X120549175Y-65443980D01*
X120549172Y-65443981D01*
X120412321Y-65485495D01*
X120341213Y-65492498D01*
X120305660Y-65496000D01*
X120234340Y-65496000D01*
X120198787Y-65492498D01*
X120127679Y-65485495D01*
X119990828Y-65443981D01*
X119990825Y-65443980D01*
X119864706Y-65376568D01*
X119754157Y-65285843D01*
X119663432Y-65175294D01*
X119596020Y-65049175D01*
X119596019Y-65049172D01*
X119554505Y-64912321D01*
X119540488Y-64770000D01*
X119554505Y-64627679D01*
X119596019Y-64490828D01*
X119596020Y-64490825D01*
X119663432Y-64364706D01*
X119754157Y-64254157D01*
X119864706Y-64163432D01*
X119990825Y-64096020D01*
X119990828Y-64096019D01*
X120127679Y-64054505D01*
X120198787Y-64047502D01*
X120234340Y-64044000D01*
X120305660Y-64044000D01*
X120341213Y-64047502D01*
X120341213Y-64047502D01*
G37*
G36*
X110341213Y-64047502D02*
G01*
X110412321Y-64054505D01*
X110549172Y-64096019D01*
X110549175Y-64096020D01*
X110675294Y-64163432D01*
X110785843Y-64254157D01*
X110876568Y-64364706D01*
X110943980Y-64490825D01*
X110943981Y-64490828D01*
X110985495Y-64627679D01*
X110999512Y-64770000D01*
X110985495Y-64912321D01*
X110943981Y-65049172D01*
X110943980Y-65049175D01*
X110876568Y-65175294D01*
X110785843Y-65285843D01*
X110675294Y-65376568D01*
X110549175Y-65443980D01*
X110549172Y-65443981D01*
X110412321Y-65485495D01*
X110341213Y-65492498D01*
X110305660Y-65496000D01*
X110234340Y-65496000D01*
X110198787Y-65492498D01*
X110127679Y-65485495D01*
X109990828Y-65443981D01*
X109990825Y-65443980D01*
X109864706Y-65376568D01*
X109754157Y-65285843D01*
X109663432Y-65175294D01*
X109596020Y-65049175D01*
X109596019Y-65049172D01*
X109554505Y-64912321D01*
X109540488Y-64770000D01*
X109554505Y-64627679D01*
X109596019Y-64490828D01*
X109596020Y-64490825D01*
X109663432Y-64364706D01*
X109754157Y-64254157D01*
X109864706Y-64163432D01*
X109990825Y-64096020D01*
X109990828Y-64096019D01*
X110127679Y-64054505D01*
X110198787Y-64047502D01*
X110234340Y-64044000D01*
X110305660Y-64044000D01*
X110341213Y-64047502D01*
X110341213Y-64047502D01*
G37*
G36*
X72511256Y-55287298D02*
G01*
X72617579Y-55308447D01*
X72918042Y-55432903D01*
X73188451Y-55613585D01*
X73418415Y-55843549D01*
X73599097Y-56113958D01*
X73723553Y-56414421D01*
X73787000Y-56733391D01*
X73787000Y-57058609D01*
X73723553Y-57377579D01*
X73599097Y-57678042D01*
X73418415Y-57948451D01*
X73188451Y-58178415D01*
X72918042Y-58359097D01*
X72617579Y-58483553D01*
X72511256Y-58504702D01*
X72298611Y-58547000D01*
X71973389Y-58547000D01*
X71760744Y-58504702D01*
X71654421Y-58483553D01*
X71353958Y-58359097D01*
X71083549Y-58178415D01*
X70853585Y-57948451D01*
X70672903Y-57678042D01*
X70548447Y-57377579D01*
X70485000Y-57058609D01*
X70485000Y-56733391D01*
X70548447Y-56414421D01*
X70672903Y-56113958D01*
X70853585Y-55843549D01*
X71083549Y-55613585D01*
X71353958Y-55432903D01*
X71654421Y-55308447D01*
X71760744Y-55287298D01*
X71973389Y-55245000D01*
X72298611Y-55245000D01*
X72511256Y-55287298D01*
X72511256Y-55287298D01*
G37*
G36*
X138551256Y-55287298D02*
G01*
X138657579Y-55308447D01*
X138958042Y-55432903D01*
X139228451Y-55613585D01*
X139458415Y-55843549D01*
X139639097Y-56113958D01*
X139763553Y-56414421D01*
X139827000Y-56733391D01*
X139827000Y-57058609D01*
X139763553Y-57377579D01*
X139639097Y-57678042D01*
X139458415Y-57948451D01*
X139228451Y-58178415D01*
X138958042Y-58359097D01*
X138657579Y-58483553D01*
X138551256Y-58504702D01*
X138338611Y-58547000D01*
X138013389Y-58547000D01*
X137800744Y-58504702D01*
X137694421Y-58483553D01*
X137393958Y-58359097D01*
X137123549Y-58178415D01*
X136893585Y-57948451D01*
X136712903Y-57678042D01*
X136588447Y-57377579D01*
X136525000Y-57058609D01*
X136525000Y-56733391D01*
X136588447Y-56414421D01*
X136712903Y-56113958D01*
X136893585Y-55843549D01*
X137123549Y-55613585D01*
X137393958Y-55432903D01*
X137694421Y-55308447D01*
X137800744Y-55287298D01*
X138013389Y-55245000D01*
X138338611Y-55245000D01*
X138551256Y-55287298D01*
X138551256Y-55287298D01*
G37*
M02*
