M48
; DRILL file {KiCad (5.1.0)-1} date 11/7/2019 11:08:41 PM
; FORMAT={-:-/ absolute / metric / decimal}
; #@! TF.CreationDate,2019-11-07T23:08:41-05:00
; #@! TF.GenerationSoftware,Kicad,Pcbnew,(5.1.0)-1
FMAT,2
METRIC
T1C0.400
T2C0.800
T3C1.200
T4C1.300
T5C2.000
T6C3.200
%
G90
G05
T1
X74.93Y-106.68
X76.2Y-85.09
X78.218Y-88.152
X83.82Y-78.74
X87.63Y-66.04
X90.17Y-63.5
X90.17Y-63.5
X90.17Y-93.98
X92.71Y-105.41
X97.79Y-87.63
X102.87Y-67.31
X102.87Y-68.58
X102.87Y-90.17
X102.87Y-91.44
X102.87Y-100.33
X104.14Y-80.01
X104.14Y-81.28
X104.14Y-88.9
X104.14Y-92.71
X106.483Y-93.782
X106.68Y-83.82
X106.68Y-85.09
X106.68Y-85.09
X107.95Y-73.66
X107.95Y-90.17
X107.95Y-96.52
X109.22Y-81.28
X109.22Y-90.17
X109.22Y-101.6
X110.49Y-66.04
X110.49Y-67.31
X110.49Y-87.63
X110.49Y-97.79
X110.675Y-96.335
X111.74Y-86.34
X111.76Y-82.55
X111.76Y-104.14
X114.3Y-85.09
X114.3Y-93.98
X115.57Y-99.06
X115.57Y-99.06
X116.84Y-100.33
X118.11Y-73.66
X118.11Y-76.2
X118.11Y-81.28
X119.38Y-71.12
X119.38Y-76.2
X121.92Y-76.2
X124.46Y-90.17
X125.73Y-80.01
X127.0Y-82.55
T2
X82.55Y-99.06
X87.43Y-99.06
X106.27Y-64.77
X108.27Y-64.77
X110.27Y-64.77
X112.27Y-64.77
X114.27Y-64.77
X116.27Y-64.77
X118.27Y-64.77
X120.27Y-64.77
X122.27Y-64.77
X124.27Y-64.77
X126.27Y-64.77
X128.27Y-64.77
X92.71Y-109.22
X94.71Y-109.22
X96.71Y-109.22
X119.38Y-86.56
X119.38Y-91.44
X104.14Y-109.22
X106.14Y-109.22
X108.14Y-109.22
X110.14Y-109.22
X112.14Y-109.22
X71.12Y-101.65
X71.12Y-109.17
X73.66Y-101.65
X73.66Y-109.17
X76.2Y-101.65
X76.2Y-109.17
X92.964Y-65.532
X92.964Y-68.072
X92.964Y-70.612
X92.964Y-73.152
X92.964Y-75.692
X92.964Y-78.232
X92.964Y-80.772
X92.964Y-83.312
X92.964Y-85.852
X92.964Y-88.392
X92.964Y-90.932
X92.964Y-93.472
X92.964Y-96.012
X92.964Y-98.552
X100.584Y-65.532
X100.584Y-68.072
X100.584Y-70.612
X100.584Y-73.152
X100.584Y-75.692
X100.584Y-78.232
X100.584Y-80.772
X100.584Y-83.312
X100.584Y-85.852
X100.584Y-88.392
X100.584Y-90.932
X100.584Y-93.472
X100.584Y-96.012
X100.584Y-98.552
X135.89Y-64.77
X137.89Y-64.77
X139.89Y-64.77
T3
X130.81Y-92.71
X138.31Y-92.71
X130.81Y-74.93
X138.31Y-74.93
T4
X71.12Y-95.25
X76.12Y-95.25
T5
X73.01Y-72.96
T6
X138.176Y-107.188
X138.176Y-56.896
X72.136Y-56.896
T0
M30
